<svg width="512" height="512" viewBox="0 0 512 512" xmlns="http://www.w3.org/2000/svg">
<path transform="scale(0.2, -0.2) translate(680, -1950)" unicode="0" d="M141 554v348q0 141 33 248.5t94.5 180t149 109.5t196.5 37q110 0 198 -37t149.5 -109.5t94.5 -180t33 -248.5v-348q0 -141 -32.5 -248.5t-93.5 -180t-149 -109.5t-198 -37q-109 0 -197 37t-149.5 109.5t-95 180t-33.5 248.5zM421 486q5 -144 53 -213.5t142 -69.5 q98 0 145.5 76t47.5 233v262zM421 674l388 289q-3 147 -51 218t-144 71q-97 0 -145 -75t-48 -231v-272z" />
</svg>