<svg width="512" height="512" viewBox="0 0 512 512" xmlns="http://www.w3.org/2000/svg">
<path transform="scale(0.2, -0.2) translate(680, -1950)" unicode="3" d="M96 396h278q0 -42 16 -77.5t45.5 -61t69.5 -40t88 -14.5q106 0 166 56t60 152q0 59 -17 101t-49.5 69t-78 40t-102.5 13h-151v216h151q114 0 169 57.5t55 150.5q0 43 -12.5 78.5t-37.5 61t-63.5 39.5t-89.5 14q-42 0 -78.5 -12t-64 -34.5t-43.5 -54.5t-16 -72h-278 q0 89 36.5 162t100.5 125.5t150.5 81.5t186.5 29q108 0 198 -26.5t154 -79t99.5 -130t35.5 -179.5q0 -47 -14 -92.5t-41 -86.5t-67 -75.5t-92 -59.5q61 -22 105.5 -56t73.5 -77.5t43 -95.5t14 -110q0 -102 -39 -182t-107 -134.5t-161.5 -83t-201.5 -28.5q-93 0 -181.5 25.5 t-157.5 77t-110.5 129.5t-41.5 184z" />
</svg>