<svg width="512" height="512" viewBox="0 0 512 512" xmlns="http://www.w3.org/2000/svg">
<path transform="scale(0.2, -0.2) translate(680, -1950)" unicode="5" d="M117 402h274q10 -95 68.5 -147t149.5 -52q56 0 95.5 21t64 58t36 88t11.5 110q0 58 -14.5 106.5t-44.5 83.5t-75 54t-106 19q-41 0 -71 -7t-53 -18t-41 -25.5t-34 -30.5l-222 55l83 739h808v-236h-579l-35 -320q31 18 88 37t131 19q105 0 187.5 -33.5t139 -96.5 t86.5 -154t30 -206q0 -98 -29 -186t-89 -155t-151 -106t-215 -39q-94 0 -181.5 28t-155.5 82t-110.5 132.5t-45.5 179.5z" />
</svg>