<svg width="512" height="512" viewBox="0 0 512 512" xmlns="http://www.w3.org/2000/svg">
<path transform="scale(0.2, -0.2) translate(680, -1950)" unicode="8" d="M109 398q0 60 16.5 113.5t46.5 98t72.5 80t95.5 60.5q-93 48 -146 130.5t-53 188.5q0 99 34 174.5t94.5 127.5t144 78.5t182.5 26.5t183 -26.5t145.5 -78.5t96 -127.5t34.5 -174.5q0 -106 -53.5 -188.5t-146.5 -131.5q106 -50 168.5 -140t62.5 -211q0 -103 -37.5 -181 t-103 -130.5t-154.5 -79.5t-192 -27q-104 0 -193.5 27t-155.5 79.5t-103.5 130.5t-37.5 181zM388 417q0 -100 57 -157t154 -57q46 0 84 14.5t65.5 42.5t43 67.5t15.5 89.5t-15 90t-42.5 68.5t-66 43.5t-86.5 15t-86.5 -15t-65.5 -43.5t-42 -68.5t-15 -90zM419 1056 q0 -44 12 -80.5t35.5 -62.5t57 -40.5t75.5 -14.5t75 14.5t56 40.5t35.5 62.5t12.5 80.5t-13 80t-36.5 61.5t-57 39.5t-75.5 14q-85 0 -131 -52t-46 -143z" />
</svg>