<svg width="512" height="512" viewBox="0 0 512 512" xmlns="http://www.w3.org/2000/svg">
<path transform="scale(0.2, -0.2) translate(680, -1950)" unicode="9" d="M97 962q0 106 33.5 199.5t96.5 163.5t152.5 110.5t201.5 40.5q114 0 205 -44t154.5 -123t97 -188t33.5 -239v-96q0 -174 -43 -320t-133 -252.5t-229 -166t-332 -59.5h-21v233h19q112 0 194 24t137.5 69.5t86 111t39.5 148.5q-42 -42 -108 -72t-160 -30q-104 0 -183 38 t-132.5 104t-81 155.5t-27.5 192.5zM374 966q0 -56 13 -107t39.5 -89t66.5 -60.5t94 -22.5q38 0 70.5 11t59 30.5t46 46t31.5 57.5v99q0 80 -16.5 140t-45.5 100t-68 60t-84 20q-49 0 -87.5 -23.5t-64.5 -63t-40 -91t-14 -107.5z" />
</svg>