<svg width="512" height="512" viewBox="0 0 512 512" xmlns="http://www.w3.org/2000/svg">
<path transform="scale(0.2, -0.2) translate(680, -1950)" unicode="{" d="M309 518v200q127 0 189 58t62 193v163q0 52 8.5 107t27.5 107t48.5 97.5t72 79.5t98 54t125.5 20l34 -157q-61 2 -94 -25.5t-48 -72.5t-17.5 -100.5t-2.5 -109.5v-163q0 -119 -58.5 -211t-181.5 -140q124 -48 182 -139t58 -210v-163q0 -54 6.5 -109.5t24.5 -100.5 t49.5 -72.5t81.5 -25.5l-34 -158q-66 0 -120 20t-96.5 54t-73 80t-51 98t-30 106.5t-9.5 107.5v163q0 133 -62 191t-189 58z" />
</svg>