<svg width="512" height="512" viewBox="0 0 512 512" xmlns="http://www.w3.org/2000/svg">
<path transform="scale(0.2, -0.2) translate(680, -1950)" unicode="}" d="M332 -202q49 -2 80.5 25.5t49.5 72.5t25 100.5t7 109.5v163q0 58 13.5 110t41.5 97t70.5 80.5t101.5 60.5q-117 50 -172 143t-55 209v163q0 54 -2.5 109.5t-17.5 100.5t-48 72.5t-94 25.5l34 157q70 0 125.5 -20t97.5 -54t72 -79.5t49 -97.5t27.5 -107t8.5 -107v-163 q0 -135 61.5 -193t189.5 -58v-200q-128 0 -189.5 -58t-61.5 -191v-163q0 -52 -10 -107t-30 -107t-51 -98t-73 -80t-96 -54t-120 -20z" />
</svg>