<svg width="512" height="512" viewBox="0 0 512 512" xmlns="http://www.w3.org/2000/svg">
<path transform="scale(0.2, -0.2) translate(680, -1950)" unicode="?" d="M160 1075q1 102 38 177.5t100 125.5t148 74.5t184 24.5q111 0 199 -25t148.5 -74.5t92.5 -122.5t32 -169q0 -71 -24 -129.5t-62 -109t-86.5 -96t-97.5 -88.5q-30 -30 -47 -53t-24.5 -47t-9.5 -52.5t-2 -68.5h-250q0 69 3.5 117t16.5 86.5t39 71t73 69.5q34 31 68 65.5 t61.5 71t44.5 74.5t17 76q0 91 -49 133t-143 42q-36 0 -70 -9.5t-60.5 -30.5t-43 -54t-17.5 -79h-279zM458 139q0 33 11 61.5t32 49.5t51 32.5t68 11.5q37 0 67.5 -11.5t51.5 -32.5t32.5 -49.5t11.5 -61.5q0 -32 -11.5 -60t-32.5 -48t-51.5 -31.5t-67.5 -11.5 q-38 0 -68 11.5t-51 31.5t-32 48t-11 60z" />
</svg>