<svg width="512" height="512" viewBox="0 0 512 512" xmlns="http://www.w3.org/2000/svg">
<path transform="scale(0.2, -0.2) translate(680, -1950)" unicode="6" d="M105 557v107q0 173 47 320.5t140 255t231 168t319 60.5h37v-231h-16q-110 0 -194.5 -29t-144 -82t-94 -127t-43.5 -165q23 25 53 49.5t67.5 44t81.5 31.5t95 12q104 0 181.5 -39.5t129.5 -107t77.5 -157t25.5 -188.5q0 -106 -34 -197t-97 -158t-153 -105.5t-202 -38.5 q-117 0 -211 43.5t-159.5 120.5t-101 182.5t-35.5 230.5zM384 523q0 -80 16.5 -140t46.5 -99.5t71 -59.5t89 -20q49 0 89 20.5t68 56.5t43 85.5t15 108.5t-15 109t-43 86.5t-68.5 57t-92.5 20.5q-75 0 -132.5 -40t-86.5 -103v-82z" />
</svg>