<svg width="512" height="512" viewBox="0 0 512 512" xmlns="http://www.w3.org/2000/svg">
<path transform="scale(0.2, -0.2) translate(680, -1950)" unicode="@" d="M42 680q5 158 52.5 297t130 242.5t195.5 163t249 59.5q118 0 213 -44.5t160.5 -126t98.5 -195.5t29 -253q-3 -94 -21 -186.5t-53.5 -166t-90.5 -119t-132 -45.5q-51 0 -92.5 25.5t-65.5 73.5q-32 -45 -74.5 -71t-92.5 -26q-60 0 -105 27t-73 77.5t-38.5 121.5t-2.5 158 q11 102 39.5 184t73.5 140.5t106 90t137 31.5q78 0 127.5 -23t80.5 -53l-43 -527q-2 -29 1.5 -45t11 -24t17.5 -10t20 -2q26 0 47.5 27t37.5 75t24.5 114.5t8.5 145.5q4 122 -17.5 211.5t-67.5 147.5t-115 86t-159 28q-102 0 -183.5 -45.5t-139 -126.5t-90.5 -192.5 t-37 -244.5q-5 -134 18.5 -234t73 -166.5t125 -99.5t173.5 -33q31 0 64 4t64.5 11.5t60 17.5t51.5 22l32 -135q-26 -19 -59.5 -33t-70.5 -23.5t-74 -14t-71 -4.5q-146 0 -252 48t-175 137t-100.5 216.5t-26.5 286.5zM502 692q-6 -115 18.5 -173t73.5 -58q24 0 49 12.5 t48 48.5q0 3 0.5 6.5t0.5 6.5l38 447q-15 3 -31 3q-87 0 -134.5 -75t-62.5 -218z" />
</svg>