<svg width="512" height="512" viewBox="0 0 512 512" xmlns="http://www.w3.org/2000/svg">
<path transform="scale(0.2, -0.2) translate(680, -1950)" unicode="%" d="M35 1119v77q0 58 17.5 109t53 89t89 60.5t124.5 22.5q73 0 126.5 -22.5t88.5 -60.5t52.5 -89t17.5 -109v-77q0 -57 -17.5 -107.5t-52.5 -89t-88 -60.5t-125 -22t-125.5 22t-89 60.5t-53.5 89t-18 107.5zM223 1119q0 -23 5 -44.5t16.5 -38t30.5 -26t46 -9.5t45.5 9.5 t29.5 26t16 38t5 44.5v77q0 23 -5 44.5t-16.5 38t-30 26t-46.5 9.5q-27 0 -45 -9.5t-29.5 -26t-16.5 -38t-5 -44.5v-77zM279 263l561 1028l136 -65l-561 -1028zM623 259v78q0 57 18 108t53.5 89.5t89 60.5t124.5 22q73 0 126.5 -22t88.5 -60.5t52.5 -89.5t17.5 -108v-78 q0 -57 -17 -108t-52.5 -89t-88.5 -60t-125 -22t-126 22t-89.5 60t-53.5 89t-18 108zM811 259q0 -23 6 -44.5t18.5 -38t31 -26t43.5 -9.5q31 0 50 9.5t29 26t13 37.5t3 45v78q0 23 -5 44t-16.5 37.5t-30 26t-45.5 9.5t-46 -9.5t-30 -26t-16 -37.5t-5 -44v-78z" />
</svg>