mtllib Sphere.001.mtl
usemtl Sphere.001

g Sphere.001
v -0.09959412 0.05922985 -1.310314
v 0.7517147 0.04431534 -0.8563843
v 0.5282707 0.3204765 -1.141533
v 0.6660404 -0.223691 0.9116335
v 0.376761 0.237236 0.7266769
v 0.6930919 0.4861507 0.1119232
v 1.00885 -0.2102848 0.06795502
v 0.9314933 0.2047777 0.06485939
v 0.9928997 0.1676602 -0.5617075
v 0.7517147 0.04431534 -0.8563843
v 0.9928997 0.1676602 -0.5617075
v 0.8095131 0.341361 -0.9005947
v 0.7517147 0.04431534 -0.8563843
v 0.8095131 0.341361 -0.9005947
v 0.5282707 0.3204765 -1.141533
v 0.8095131 0.341361 -0.9005947
v 0.8022217 0.5977777 -0.5349352
v 0.5779781 0.636857 -1.01786
v -0.5420346 0.7550154 -0.9156837
v -0.9270219 0.2922873 -0.9325347
v -0.5799417 0.1736465 -1.411111
v -0.261837 0.6232443 -1.298098
v 0.6930919 0.4861507 0.1119232
v 0.376761 0.237236 0.7266769
v 0.09284878 0.9383893 -0.09033585
v 0.8022217 0.5977777 -0.5349352
v 0.6930919 0.4861507 0.1119232
v 0.3322761 0.9546609 -0.58009
v 0.3322761 0.9546609 -0.58009
v 0.1308827 0.8704042 -1.038914
v 0.5779781 0.636857 -1.01786
v 0.1308827 0.8704042 -1.038914
v -0.261837 0.6232443 -1.298098
v 0.2866001 0.5544355 -1.280799
v 0.376761 0.237236 0.7266769
v 0.1558361 -0.002925873 0.9770889
v -0.4013741 0.8512073 0.06958532
v 0.09284878 0.9383893 -0.09033585
v -0.2783141 1.002349 -0.3547166
v 0.3322761 0.9546609 -0.58009
v 0.376761 0.237236 0.7266769
v -0.4013741 0.8512073 0.06958532
v 0.09284878 0.9383893 -0.09033585
v -0.2783141 1.002349 -0.3547166
v -0.5420346 0.7550154 -0.9156837
v 0.1308827 0.8704042 -1.038914
v -0.4013741 0.8512073 0.06958532
v -0.6421871 0.6410627 0.05724812
v -0.7184883 0.7682214 -0.3478192
v -0.7184883 0.7682214 -0.3478192
v -0.8534656 0.3651085 -0.138135
v -0.9270219 0.2922873 -0.9325347
v 0.02512455 -0.1672096 1.002855
v -0.3270206 -0.1839428 0.6250324
v -0.6421871 0.6410627 0.05724812
v 0.1558361 -0.002925873 0.9770889
v -0.8534656 0.3651085 -0.138135
v -0.9260006 -0.1575277 -0.4499865
v -0.9734467 -0.08471632 -0.8707018
v -0.9270219 0.2922873 -0.9325347
v -0.9270219 0.2922873 -0.9325347
v -0.879056 -0.1806035 -1.183143
v -0.6899486 -0.1647949 -1.354901
v -0.5799417 0.1736465 -1.411111
v -0.9270219 0.2922873 -0.9325347
v -0.9734467 -0.08471632 -0.8707018
v -0.879056 -0.1806035 -1.183143
v -0.2370853 -0.617308 0.9888144
v -0.3407907 -0.7923501 0.7274971
v -0.9260006 -0.1575277 -0.4499865
v -0.3270206 -0.1839428 0.6250324
v -0.2041378 0.3337593 -1.405017
v -0.5799417 0.1736465 -1.411111
v -0.4283927 -0.209094 -1.348189
v -0.6899486 -0.1647949 -1.354901
v -0.4283927 -0.209094 -1.348189
v -0.5799417 0.1736465 -1.411111
v -0.9260006 -0.1575277 -0.4499865
v -0.7608879 -0.6792735 -0.5684854
v -0.9734467 -0.08471632 -0.8707018
v -0.879056 -0.1806035 -1.183143
v -0.6679934 -0.4859257 -1.13956
v -0.6899486 -0.1647949 -1.354901
v -0.7608879 -0.6792735 -0.5684854
v -0.6180191 -0.7111549 -0.729351
v -0.6679934 -0.4859257 -1.13956
v -0.1852252 -1.004475 0.2662187
v -0.3026667 -0.915884 -0.2028446
v -0.6180191 -0.7111549 -0.729351
v -0.7608879 -0.6792735 -0.5684854
v -0.6180191 -0.7111549 -0.729351
v -0.3026667 -0.915884 -0.2028446
v -0.6679934 -0.4859257 -1.13956
v -0.3270206 -0.1839428 0.6250324
v 0.2772498 -0.2101531 1.133096
v -0.05198646 -0.6495361 1.097039
v -0.2370853 -0.617308 0.9888144
v -0.3026667 -0.915884 -0.2028446
v 0.08608246 -0.4153976 -0.8209076
v -0.4283927 -0.209094 -1.348189
v -0.3407907 -0.7923501 0.7274971
v -0.1852252 -1.004475 0.2662187
v -0.7608879 -0.6792735 -0.5684854
v -0.3270206 -0.1839428 0.6250324
v 0.02512455 -0.1672096 1.002855
v 0.2772498 -0.2101531 1.133096
v -0.05198646 -0.6495361 1.097039
v -0.0812788 -0.8672643 0.8361731
v -0.3407907 -0.7923501 0.7274971
v -0.2370853 -0.617308 0.9888144
v 0.5380769 -0.5419273 1.001151
v 0.6660404 -0.223691 0.9116335
v 1.00885 -0.2102848 0.06795502
v 0.7791843 -0.6040974 0.4746361
v -0.3026667 -0.915884 -0.2028446
v -0.1852252 -1.004475 0.2662187
v 0.2062814 -0.9622127 -0.1415868
v -0.05198646 -0.6495361 1.097039
v 0.2772498 -0.2101531 1.133096
v 0.3636296 -0.4187078 1.128803
v -0.0812788 -0.8672643 0.8361731
v -0.05198646 -0.6495361 1.097039
v 0.4771888 -0.8136106 0.6706629
v 0.5380769 -0.5419273 1.001151
v -0.1852252 -1.004475 0.2662187
v -0.0812788 -0.8672643 0.8361731
v 0.4771888 -0.8136106 0.6706629
v 0.08608246 -0.4153976 -0.8209076
v -0.09959412 0.05922985 -1.310314
v -0.4283927 -0.209094 -1.348189
v 0.8024197 -0.5332985 -0.2419834
v 0.3636296 -0.4187078 1.128803
v 0.5380769 -0.5419273 1.001151
v -0.05198646 -0.6495361 1.097039
v 0.6461208 -0.7836533 0.03732252
v 0.8024197 -0.5332985 -0.2419834
v 0.2062814 -0.9622127 -0.1415868
v 0.4771888 -0.8136106 0.6706629
v 0.6461208 -0.7836533 0.03732252
v 0.2062814 -0.9622127 -0.1415868
v 0.4771888 -0.8136106 0.6706629
v 0.5380769 -0.5419273 1.001151
v 0.7791843 -0.6040974 0.4746361
v 0.6461208 -0.7836533 0.03732252
v 0.7791843 -0.6040974 0.4746361
v 0.9504323 -0.3894427 -0.2016029
v 0.3636296 -0.4187078 1.128803
v 0.2772498 -0.2101531 1.133096
v 0.6660404 -0.223691 0.9116335
v 0.8024197 -0.5332985 -0.2419834
v 0.9504323 -0.3894427 -0.2016029
v 0.7517147 0.04431534 -0.8563843
v 0.9504323 -0.3894427 -0.2016029
v 1.00885 -0.2102848 0.06795502
v 0.9928997 0.1676602 -0.5617075
v 0.1558361 -0.002925873 0.9770889
v 0.376761 0.237236 0.7266769
v 0.2772498 -0.2101531 1.133096
v 0.6660404 -0.223691 0.9116335
v 0.6930919 0.4861507 0.1119232
v 0.9314933 0.2047777 0.06485939
v 0.9314933 0.2047777 0.06485939
v 0.8022217 0.5977777 -0.5349352
v 0.9928997 0.1676602 -0.5617075
v 0.9928997 0.1676602 -0.5617075
v 0.8022217 0.5977777 -0.5349352
v 0.8095131 0.341361 -0.9005947
v 0.9314933 0.2047777 0.06485939
v 0.6930919 0.4861507 0.1119232
v 0.8022217 0.5977777 -0.5349352
v 0.8022217 0.5977777 -0.5349352
v 0.3322761 0.9546609 -0.58009
v 0.5779781 0.636857 -1.01786
v 0.2866001 0.5544355 -1.280799
v -0.09959412 0.05922985 -1.310314
v 0.5282707 0.3204765 -1.141533
v -0.2041378 0.3337593 -1.405017
v -0.4283927 -0.209094 -1.348189
v -0.09959412 0.05922985 -1.310314
v 0.5779781 0.636857 -1.01786
v 0.1308827 0.8704042 -1.038914
v 0.2866001 0.5544355 -1.280799
v 0.09284878 0.9383893 -0.09033585
v 0.3322761 0.9546609 -0.58009
v 0.6930919 0.4861507 0.1119232
v 0.8095131 0.341361 -0.9005947
v 0.5779781 0.636857 -1.01786
v 0.2866001 0.5544355 -1.280799
v 0.5282707 0.3204765 -1.141533
v -0.2783141 1.002349 -0.3547166
v 0.1308827 0.8704042 -1.038914
v 0.3322761 0.9546609 -0.58009
v -0.261837 0.6232443 -1.298098
v -0.2041378 0.3337593 -1.405017
v 0.2866001 0.5544355 -1.280799
v -0.5420346 0.7550154 -0.9156837
v -0.261837 0.6232443 -1.298098
v 0.1308827 0.8704042 -1.038914
v -0.4013741 0.8512073 0.06958532
v -0.2783141 1.002349 -0.3547166
v 0.09284878 0.9383893 -0.09033585
v -0.4013741 0.8512073 0.06958532
v -0.7184883 0.7682214 -0.3478192
v -0.2783141 1.002349 -0.3547166
v -0.7184883 0.7682214 -0.3478192
v -0.5420346 0.7550154 -0.9156837
v -0.2783141 1.002349 -0.3547166
v 0.1558361 -0.002925873 0.9770889
v -0.6421871 0.6410627 0.05724812
v -0.4013741 0.8512073 0.06958532
v -0.261837 0.6232443 -1.298098
v -0.5799417 0.1736465 -1.411111
v -0.2041378 0.3337593 -1.405017
v -0.7184883 0.7682214 -0.3478192
v -0.9270219 0.2922873 -0.9325347
v -0.5420346 0.7550154 -0.9156837
v -0.6421871 0.6410627 0.05724812
v -0.8534656 0.3651085 -0.138135
v -0.7184883 0.7682214 -0.3478192
v -0.3270206 -0.1839428 0.6250324
v -0.8534656 0.3651085 -0.138135
v -0.6421871 0.6410627 0.05724812
v -0.7608879 -0.6792735 -0.5684854
v -0.879056 -0.1806035 -1.183143
v -0.9734467 -0.08471632 -0.8707018
v -0.3270206 -0.1839428 0.6250324
v -0.9260006 -0.1575277 -0.4499865
v -0.8534656 0.3651085 -0.138135
v -0.6679934 -0.4859257 -1.13956
v -0.4283927 -0.209094 -1.348189
v -0.6899486 -0.1647949 -1.354901
v -0.7608879 -0.6792735 -0.5684854
v -0.6679934 -0.4859257 -1.13956
v -0.879056 -0.1806035 -1.183143
v -0.3407907 -0.7923501 0.7274971
v -0.7608879 -0.6792735 -0.5684854
v -0.9260006 -0.1575277 -0.4499865
v -0.3026667 -0.915884 -0.2028446
v -0.4283927 -0.209094 -1.348189
v -0.6679934 -0.4859257 -1.13956
v -0.0812788 -0.8672643 0.8361731
v -0.1852252 -1.004475 0.2662187
v -0.3407907 -0.7923501 0.7274971
v -0.3026667 -0.915884 -0.2028446
v 0.2062814 -0.9622127 -0.1415868
v 0.08608246 -0.4153976 -0.8209076
v 0.4771888 -0.8136106 0.6706629
v 0.2062814 -0.9622127 -0.1415868
v -0.1852252 -1.004475 0.2662187
v 0.8024197 -0.5332985 -0.2419834
v 0.08608246 -0.4153976 -0.8209076
v 0.2062814 -0.9622127 -0.1415868
v 0.1558361 -0.002925873 0.9770889
v 0.2772498 -0.2101531 1.133096
v 0.02512455 -0.1672096 1.002855
v 0.4771888 -0.8136106 0.6706629
v 0.7791843 -0.6040974 0.4746361
v 0.6461208 -0.7836533 0.03732252
v 0.6461208 -0.7836533 0.03732252
v 0.9504323 -0.3894427 -0.2016029
v 0.8024197 -0.5332985 -0.2419834
v 0.3636296 -0.4187078 1.128803
v 0.6660404 -0.223691 0.9116335
v 0.5380769 -0.5419273 1.001151
v 0.8024197 -0.5332985 -0.2419834
v 0.7517147 0.04431534 -0.8563843
v -0.09959412 0.05922985 -1.310314
v 0.7791843 -0.6040974 0.4746361
v 1.00885 -0.2102848 0.06795502
v 0.9504323 -0.3894427 -0.2016029
v 0.9504323 -0.3894427 -0.2016029
v 0.9928997 0.1676602 -0.5617075
v 0.7517147 0.04431534 -0.8563843
v 0.6660404 -0.223691 0.9116335
v 0.9314933 0.2047777 0.06485939
v 1.00885 -0.2102848 0.06795502
v 0.2772498 -0.2101531 1.133096
v 0.376761 0.237236 0.7266769
v 0.6660404 -0.223691 0.9116335

vn 0.4074269 -0.4754408 -0.7797175
vn 0.4074269 -0.4754408 -0.7797175
vn 0.4074269 -0.4754408 -0.7797175
vn 0.5940017 0.591561 0.5451766
vn 0.5940017 0.591561 0.5451766
vn 0.5940017 0.591561 0.5451766
vn 0.9793887 0.1831666 0.08513383
vn 0.9793887 0.1831666 0.08513383
vn 0.9793887 0.1831666 0.08513383
vn 0.7980683 -0.2376961 -0.5537035
vn 0.7980683 -0.2376961 -0.5537035
vn 0.7980683 -0.2376961 -0.5537035
vn 0.6425362 -0.233637 -0.7297677
vn 0.6425362 -0.233637 -0.7297677
vn 0.6425362 -0.233637 -0.7297677
vn 0.8019393 0.4965273 -0.3321957
vn 0.8019393 0.4965273 -0.3321957
vn 0.8019393 0.4965273 -0.3321957
vn -0.5955243 0.543193 -0.5918549
vn -0.5955243 0.543193 -0.5918549
vn -0.5955243 0.543193 -0.5918549
vn -0.5955243 0.543193 -0.5918549
vn 0.3994556 0.7596838 0.5131431
vn 0.3994556 0.7596838 0.5131431
vn 0.3994556 0.7596838 0.5131431
vn 0.5739805 0.7852169 0.2323378
vn 0.5739805 0.7852169 0.2323378
vn 0.5739805 0.7852169 0.2323378
vn 0.446945 0.8242877 -0.3475484
vn 0.446945 0.8242877 -0.3475484
vn 0.446945 0.8242877 -0.3475484
vn 0.1039497 0.6363664 -0.7643509
vn 0.1039497 0.6363664 -0.7643509
vn 0.1039497 0.6363664 -0.7643509
vn -0.008668362 0.7255059 0.6881613
vn -0.008668362 0.7255059 0.6881613
vn -0.008668362 0.7255059 0.6881613
vn 0.1091885 0.9902695 0.08627941
vn 0.1091885 0.9902695 0.08627941
vn 0.1091885 0.9902695 0.08627941
vn 0.07001073 0.7688951 0.6355303
vn 0.07001073 0.7688951 0.6355303
vn 0.07001073 0.7688951 0.6355303
vn -0.2152471 0.92689 -0.3074797
vn -0.2152471 0.92689 -0.3074797
vn -0.2152471 0.92689 -0.3074797
vn -0.6285205 0.7003882 0.3382578
vn -0.6285205 0.7003882 0.3382578
vn -0.6285205 0.7003882 0.3382578
vn -0.9377661 0.3428191 0.05540558
vn -0.9377661 0.3428191 0.05540558
vn -0.9377661 0.3428191 0.05540558
vn -0.6331888 0.3079762 0.7100864
vn -0.6331888 0.3079762 0.7100864
vn -0.6331888 0.3079762 0.7100864
vn -0.6331888 0.3079762 0.7100864
vn -0.9897361 0.1034831 0.09855817
vn -0.9897361 0.1034831 0.09855817
vn -0.9897361 0.1034831 0.09855817
vn -0.9897361 0.1034831 0.09855817
vn -0.7377775 0.2101242 -0.6415077
vn -0.7377775 0.2101242 -0.6415077
vn -0.7377775 0.2101242 -0.6415077
vn -0.7377775 0.2101242 -0.6415077
vn -0.9493149 0.06651435 -0.3072084
vn -0.9493149 0.06651435 -0.3072084
vn -0.9493149 0.06651435 -0.3072084
vn -0.8853403 0.0966315 0.454791
vn -0.8853403 0.0966315 0.454791
vn -0.8853403 0.0966315 0.454791
vn -0.8853403 0.0966315 0.454791
vn 0.07294742 -0.1335983 -0.9883472
vn 0.07294742 -0.1335983 -0.9883472
vn 0.07294742 -0.1335983 -0.9883472
vn -0.002305794 -0.1631088 -0.9866054
vn -0.002305794 -0.1631088 -0.9866054
vn -0.002305794 -0.1631088 -0.9866054
vn -0.9485399 -0.312201 0.05294026
vn -0.9485399 -0.312201 0.05294026
vn -0.9485399 -0.312201 0.05294026
vn -0.5650651 -0.4858062 -0.6668537
vn -0.5650651 -0.4858062 -0.6668537
vn -0.5650651 -0.4858062 -0.6668537
vn -0.5580198 -0.7541987 -0.3461189
vn -0.5580198 -0.7541987 -0.3461189
vn -0.5580198 -0.7541987 -0.3461189
vn -0.3936281 -0.9140125 -0.09817345
vn -0.3936281 -0.9140125 -0.09817345
vn -0.3936281 -0.9140125 -0.09817345
vn -0.3936281 -0.9140125 -0.09817345
vn 0.2778264 -0.8273734 -0.4881247
vn 0.2778264 -0.8273734 -0.4881247
vn 0.2778264 -0.8273734 -0.4881247
vn -0.5384257 0.4216101 0.7296182
vn -0.5384257 0.4216101 0.7296182
vn -0.5384257 0.4216101 0.7296182
vn -0.5384257 0.4216101 0.7296182
vn 0.214018 -0.8206153 -0.5298932
vn 0.214018 -0.8206153 -0.5298932
vn 0.214018 -0.8206153 -0.5298932
vn -0.6312907 -0.763161 0.138048
vn -0.6312907 -0.763161 0.138048
vn -0.6312907 -0.763161 0.138048
vn -0.3277797 -0.8797186 0.3444643
vn -0.3277797 -0.8797186 0.3444643
vn -0.3277797 -0.8797186 0.3444643
vn -0.4533239 -0.6530417 0.6066581
vn -0.4533239 -0.6530417 0.6066581
vn -0.4533239 -0.6530417 0.6066581
vn -0.4533239 -0.6530417 0.6066581
vn 0.9024544 -0.1807739 0.3910204
vn 0.9024544 -0.1807739 0.3910204
vn 0.9024544 -0.1807739 0.3910204
vn 0.9024544 -0.1807739 0.3910204
vn -0.06924102 -0.983288 -0.1683757
vn -0.06924102 -0.983288 -0.1683757
vn -0.06924102 -0.983288 -0.1683757
vn -0.05271936 -0.04237234 0.99771
vn -0.05271936 -0.04237234 0.99771
vn -0.05271936 -0.04237234 0.99771
vn 0.2515223 -0.7567549 0.6033727
vn 0.2515223 -0.7567549 0.6033727
vn 0.2515223 -0.7567549 0.6033727
vn 0.2366681 -0.7714773 0.5906023
vn 0.1535461 -0.966702 0.2047212
vn 0.1535461 -0.966702 0.2047212
vn 0.1535461 -0.966702 0.2047212
vn 0.502263 -0.5176979 -0.6926188
vn 0.502263 -0.5176979 -0.6926188
vn 0.502263 -0.5176979 -0.6926188
vn 0.476649 -0.5337742 -0.6984918
vn 0.2289556 -0.5250447 0.8196995
vn 0.2289556 -0.5250447 0.8196995
vn 0.2289556 -0.5250447 0.8196995
vn 0.4826769 -0.7689762 -0.4191641
vn 0.4826769 -0.7689762 -0.4191641
vn 0.4826769 -0.7689762 -0.4191641
vn 0.3576713 -0.9324375 0.05129767
vn 0.3576713 -0.9324375 0.05129767
vn 0.3576713 -0.9324375 0.05129767
vn 0.6816725 -0.6218115 0.3855813
vn 0.6816725 -0.6218115 0.3855813
vn 0.6816725 -0.6218115 0.3855813
vn 0.7939134 -0.6079774 0.008060548
vn 0.7939134 -0.6079774 0.008060548
vn 0.7939134 -0.6079774 0.008060548
vn 0.4912032 0.1859317 0.8509694
vn 0.4912032 0.1859317 0.8509694
vn 0.4912032 0.1859317 0.8509694
vn 0.6560891 -0.5220761 -0.5449622
vn 0.6560891 -0.5220761 -0.5449622
vn 0.6560891 -0.5220761 -0.5449622
vn 0.9822893 -0.148628 -0.1140938
vn 0.9822893 -0.148628 -0.1140938
vn 0.9822893 -0.148628 -0.1140938
vn 0.1440204 0.6476512 0.7482019
vn 0.1440204 0.6476512 0.7482019
vn 0.1440204 0.6476512 0.7482019
vn 0.7061743 0.5174989 0.4832316
vn 0.7061743 0.5174989 0.4832316
vn 0.7061743 0.5174989 0.4832316
vn 0.913724 0.4009731 0.06579563
vn 0.913724 0.4009731 0.06579563
vn 0.913724 0.4009731 0.06579563
vn 0.874967 0.404455 -0.2661743
vn 0.874967 0.404455 -0.2661743
vn 0.874967 0.404455 -0.2661743
vn 0.7608505 0.6056987 0.2328852
vn 0.7608505 0.6056987 0.2328852
vn 0.7608505 0.6056987 0.2328852
vn 0.6034304 0.7670007 -0.2181321
vn 0.6034304 0.7670007 -0.2181321
vn 0.6034304 0.7670007 -0.2181321
vn 0.3325702 -0.2044879 -0.920642
vn 0.3325702 -0.2044879 -0.920642
vn 0.3325702 -0.2044879 -0.920642
vn 0.3227214 -0.1964959 -0.9258727
vn 0.2829178 -0.2147326 -0.9347981
vn 0.2829178 -0.2147326 -0.9347981
vn 0.3814193 0.673056 -0.633652
vn 0.3814193 0.673056 -0.633652
vn 0.3814193 0.673056 -0.633652
vn 0.5160416 0.8097888 0.279183
vn 0.5160416 0.8097888 0.279183
vn 0.5160416 0.8097888 0.279183
vn 0.6276484 0.195908 -0.7534439
vn 0.6276484 0.195908 -0.7534439
vn 0.6276484 0.195908 -0.7534439
vn 0.6276484 0.195908 -0.7534439
vn 0.008728952 0.9828286 -0.1843142
vn 0.008728952 0.9828286 -0.1843142
vn 0.008728952 0.9828286 -0.1843142
vn 0.07433163 0.3585111 -0.9305614
vn 0.07433163 0.3585111 -0.9305614
vn 0.07433163 0.3585111 -0.9305614
vn -0.2316111 0.8548725 -0.4642729
vn -0.2316111 0.8548725 -0.4642729
vn -0.2316111 0.8548725 -0.4642729
vn -0.06381394 0.9458059 0.3184007
vn -0.06381394 0.9458059 0.3184007
vn -0.06381394 0.9458059 0.3184007
vn -0.4600689 0.8701577 0.1765283
vn -0.4600689 0.8701577 0.1765283
vn -0.4600689 0.8701577 0.1765283
vn -0.4651935 0.8697377 -0.164777
vn -0.4651935 0.8697377 -0.164777
vn -0.4651935 0.8697377 -0.164777
vn -0.4623091 0.4862458 0.7415088
vn -0.4623091 0.4862458 0.7415088
vn -0.4623091 0.4862458 0.7415088
vn -0.1221223 0.3223628 -0.9387057
vn -0.1221223 0.3223628 -0.9387057
vn -0.1221223 0.3223628 -0.9387057
vn -0.7409407 0.6253726 -0.2447774
vn -0.7409407 0.6253726 -0.2447774
vn -0.7409407 0.6253726 -0.2447774
vn -0.8480021 0.4386595 0.2974392
vn -0.8480021 0.4386595 0.2974392
vn -0.8480021 0.4386595 0.2974392
vn -0.7648675 0.1404793 0.6286837
vn -0.7648675 0.1404793 0.6286837
vn -0.7648675 0.1404793 0.6286837
vn -0.9041896 -0.3997453 -0.1504818
vn -0.9041896 -0.3997453 -0.1504818
vn -0.9041896 -0.3997453 -0.1504818
vn -0.8633273 -0.1647907 0.4769802
vn -0.8633273 -0.1647907 0.4769802
vn -0.8633273 -0.1647907 0.4769802
vn -0.07346211 -0.5588992 -0.8259752
vn -0.07346211 -0.5588992 -0.8259752
vn -0.07346211 -0.5588992 -0.8259752
vn -0.7586554 -0.5695852 -0.316251
vn -0.7586554 -0.5695852 -0.316251
vn -0.7586554 -0.5695852 -0.316251
vn -0.901354 -0.3447714 0.2620951
vn -0.901354 -0.3447714 0.2620951
vn -0.901354 -0.3447714 0.2620951
vn 0.4229181 -0.7496741 -0.509047
vn 0.4229181 -0.7496741 -0.509047
vn 0.4229181 -0.7496741 -0.509047
vn -0.3729147 -0.8843235 0.2809031
vn -0.3729147 -0.8843235 0.2809031
vn -0.3729147 -0.8843235 0.2809031
vn 0.004658694 -0.7785755 -0.6275337
vn 0.004658694 -0.7785755 -0.6275337
vn 0.004658694 -0.7785755 -0.6275337
vn 0.2150871 -0.9708384 0.1058785
vn 0.2150871 -0.9708384 0.1058785
vn 0.2150871 -0.9708384 0.1058785
vn 0.3875187 -0.6834195 -0.6186817
vn 0.3875187 -0.6834195 -0.6186817
vn 0.3875187 -0.6834195 -0.6186817
vn -0.3599743 0.4172859 0.8344405
vn -0.3599743 0.4172859 0.8344405
vn -0.3599743 0.4172859 0.8344405
vn 0.6203797 -0.7736398 0.1288815
vn 0.6203797 -0.7736398 0.1288815
vn 0.6203797 -0.7736398 0.1288815
vn 0.7103409 -0.673093 -0.2058195
vn 0.7103409 -0.673093 -0.2058195
vn 0.7103409 -0.673093 -0.2058195
vn 0.5867517 -0.008164328 0.8097258
vn 0.5867517 -0.008164328 0.8097258
vn 0.5867517 -0.008164328 0.8097258
vn 0.3396161 -0.6711295 -0.6589735
vn 0.3396161 -0.6711295 -0.6589735
vn 0.3396161 -0.6711295 -0.6589735
vn 0.8982924 -0.4298654 0.09103023
vn 0.8982924 -0.4298654 0.09103023
vn 0.8982924 -0.4298654 0.09103023
vn 0.7880639 -0.3754233 -0.4878654
vn 0.7880639 -0.3754233 -0.4878654
vn 0.7880639 -0.3754233 -0.4878654
vn 0.9115658 0.1726738 0.3731374
vn 0.9115658 0.1726738 0.3731374
vn 0.9115658 0.1726738 0.3731374
vn 0.426414 0.5544089 0.7147041
vn 0.426414 0.5544089 0.7147041
vn 0.426414 0.5544089 0.7147041

vt 0 0
vt 0 0
vt 0 0
vt 0 0
vt 0 0
vt 0 0
vt 0 0
vt 0 0
vt 0 0
vt 0 0
vt 0 0
vt 0 0
vt 0 0
vt 0 0
vt 0 0
vt 0 0
vt 0 0
vt 0 0
vt 0 0
vt 0 0
vt 0 0
vt 0 0
vt 0 0
vt 0 0
vt 0 0
vt 0 0
vt 0 0
vt 0 0
vt 0 0
vt 0 0
vt 0 0
vt 0 0
vt 0 0
vt 0 0
vt 0 0
vt 0 0
vt 0 0
vt 0 0
vt 0 0
vt 0 0
vt 0 0
vt 0 0
vt 0 0
vt 0 0
vt 0 0
vt 0 0
vt 0 0
vt 0 0
vt 0 0
vt 0 0
vt 0 0
vt 0 0
vt 0 0
vt 0 0
vt 0 0
vt 0 0
vt 0 0
vt 0 0
vt 0 0
vt 0 0
vt 0 0
vt 0 0
vt 0 0
vt 0 0
vt 0 0
vt 0 0
vt 0 0
vt 0 0
vt 0 0
vt 0 0
vt 0 0
vt 0 0
vt 0 0
vt 0 0
vt 0 0
vt 0 0
vt 0 0
vt 0 0
vt 0 0
vt 0 0
vt 0 0
vt 0 0
vt 0 0
vt 0 0
vt 0 0
vt 0 0
vt 0 0
vt 0 0
vt 0 0
vt 0 0
vt 0 0
vt 0 0
vt 0 0
vt 0 0
vt 0 0
vt 0 0
vt 0 0
vt 0 0
vt 0 0
vt 0 0
vt 0 0
vt 0 0
vt 0 0
vt 0 0
vt 0 0
vt 0 0
vt 0 0
vt 0 0
vt 0 0
vt 0 0
vt 0 0
vt 0 0
vt 0 0
vt 0 0
vt 0 0
vt 0 0
vt 0 0
vt 0 0
vt 0 0
vt 0 0
vt 0 0
vt 0 0
vt 0 0
vt 0 0
vt 0 0
vt 0 0
vt 0 0
vt 0 0
vt 0 0
vt 0 0
vt 0 0
vt 0 0
vt 0 0
vt 0 0
vt 0 0
vt 0 0
vt 0 0
vt 0 0
vt 0 0
vt 0 0
vt 0 0
vt 0 0
vt 0 0
vt 0 0
vt 0 0
vt 0 0
vt 0 0
vt 0 0
vt 0 0
vt 0 0
vt 0 0
vt 0 0
vt 0 0
vt 0 0
vt 0 0
vt 0 0
vt 0 0
vt 0 0
vt 0 0
vt 0 0
vt 0 0
vt 0 0
vt 0 0
vt 0 0
vt 0 0
vt 0 0
vt 0 0
vt 0 0
vt 0 0
vt 0 0
vt 0 0
vt 0 0
vt 0 0
vt 0 0
vt 0 0
vt 0 0
vt 0 0
vt 0 0
vt 0 0
vt 0 0
vt 0 0
vt 0 0
vt 0 0
vt 0 0
vt 0 0
vt 0 0
vt 0 0
vt 0 0
vt 0 0
vt 0 0
vt 0 0
vt 0 0
vt 0 0
vt 0 0
vt 0 0
vt 0 0
vt 0 0
vt 0 0
vt 0 0
vt 0 0
vt 0 0
vt 0 0
vt 0 0
vt 0 0
vt 0 0
vt 0 0
vt 0 0
vt 0 0
vt 0 0
vt 0 0
vt 0 0
vt 0 0
vt 0 0
vt 0 0
vt 0 0
vt 0 0
vt 0 0
vt 0 0
vt 0 0
vt 0 0
vt 0 0
vt 0 0
vt 0 0
vt 0 0
vt 0 0
vt 0 0
vt 0 0
vt 0 0
vt 0 0
vt 0 0
vt 0 0
vt 0 0
vt 0 0
vt 0 0
vt 0 0
vt 0 0
vt 0 0
vt 0 0
vt 0 0
vt 0 0
vt 0 0
vt 0 0
vt 0 0
vt 0 0
vt 0 0
vt 0 0
vt 0 0
vt 0 0
vt 0 0
vt 0 0
vt 0 0
vt 0 0
vt 0 0
vt 0 0
vt 0 0
vt 0 0
vt 0 0
vt 0 0
vt 0 0
vt 0 0
vt 0 0
vt 0 0
vt 0 0
vt 0 0
vt 0 0
vt 0 0
vt 0 0
vt 0 0
vt 0 0
vt 0 0
vt 0 0
vt 0 0
vt 0 0
vt 0 0
vt 0 0
vt 0 0
vt 0 0
vt 0 0
vt 0 0
f 1/1/1 3/3/3 2/2/2
f 4/4/4 6/6/6 5/5/5
f 7/7/7 9/9/9 8/8/8
f 10/10/10 12/12/12 11/11/11
f 13/13/13 15/15/15 14/14/14
f 16/16/16 18/18/18 17/17/17
f 19/19/19 21/21/21 20/20/20
f 19/19/19 22/22/22 21/21/21
f 23/23/23 25/25/25 24/24/24
f 26/26/26 28/28/28 27/27/27
f 29/29/29 31/31/31 30/30/30
f 32/32/32 34/34/34 33/33/33
f 35/35/35 37/37/37 36/36/36
f 38/38/38 40/40/40 39/39/39
f 41/41/41 43/43/43 42/42/42
f 44/44/44 46/46/46 45/45/45
f 47/47/47 49/49/49 48/48/48
f 50/50/50 52/52/52 51/51/51
f 53/53/53 55/55/55 54/54/54
f 53/53/53 56/56/56 55/55/55
f 57/57/57 59/59/59 58/58/58
f 57/57/57 60/60/60 59/59/59
f 61/61/61 63/63/63 62/62/62
f 61/61/61 64/64/64 63/63/63
f 65/65/65 67/67/67 66/66/66
f 68/68/68 70/70/70 69/69/69
f 68/68/68 71/71/71 70/70/70
f 72/72/72 74/74/74 73/73/73
f 75/75/75 77/77/77 76/76/76
f 78/78/78 80/80/80 79/79/79
f 81/81/81 83/83/83 82/82/82
f 84/84/84 86/86/86 85/85/85
f 87/87/87 89/89/89 88/88/88
f 87/87/87 90/90/90 89/89/89
f 91/91/91 93/93/93 92/92/92
f 94/94/94 96/96/96 95/95/95
f 94/94/94 97/97/97 96/96/96
f 98/98/98 100/100/100 99/99/99
f 101/101/101 103/103/103 102/102/102
f 104/104/104 106/106/106 105/105/105
f 107/107/107 109/109/109 108/108/108
f 107/107/107 110/110/110 109/109/109
f 111/111/111 113/113/113 112/112/112
f 111/111/111 114/114/114 113/113/113
f 115/115/115 117/117/117 116/116/116
f 118/118/118 120/120/120 119/119/119
f 121/121/121 123/123/123 122/122/122
f 124/124/124 122/122/122 123/123/123
f 125/125/125 127/127/127 126/126/126
f 128/128/128 130/130/130 129/129/129
f 128/128/128 129/129/129 131/131/131
f 132/132/132 134/134/134 133/133/133
f 135/135/135 137/137/137 136/136/136
f 138/138/138 140/140/140 139/139/139
f 141/141/141 143/143/143 142/142/142
f 144/144/144 146/146/146 145/145/145
f 147/147/147 149/149/149 148/148/148
f 150/150/150 152/152/152 151/151/151
f 153/153/153 155/155/155 154/154/154
f 156/156/156 158/158/158 157/157/157
f 159/159/159 161/161/161 160/160/160
f 162/162/162 164/164/164 163/163/163
f 165/165/165 167/167/167 166/166/166
f 168/168/168 170/170/170 169/169/169
f 171/171/171 173/173/173 172/172/172
f 174/174/174 176/176/176 175/175/175
f 177/177/177 174/174/174 175/175/175
f 177/177/177 179/179/179 178/178/178
f 180/180/180 182/182/182 181/181/181
f 183/183/183 185/185/185 184/184/184
f 186/186/186 188/188/188 187/187/187
f 186/186/186 189/189/189 188/188/188
f 190/190/190 192/192/192 191/191/191
f 193/193/193 195/195/195 194/194/194
f 196/196/196 198/198/198 197/197/197
f 199/199/199 201/201/201 200/200/200
f 202/202/202 204/204/204 203/203/203
f 205/205/205 207/207/207 206/206/206
f 208/208/208 210/210/210 209/209/209
f 211/211/211 213/213/213 212/212/212
f 214/214/214 216/216/216 215/215/215
f 217/217/217 219/219/219 218/218/218
f 220/220/220 222/222/222 221/221/221
f 223/223/223 225/225/225 224/224/224
f 226/226/226 228/228/228 227/227/227
f 229/229/229 231/231/231 230/230/230
f 232/232/232 234/234/234 233/233/233
f 235/235/235 237/237/237 236/236/236
f 238/238/238 240/240/240 239/239/239
f 241/241/241 243/243/243 242/242/242
f 244/244/244 246/246/246 245/245/245
f 247/247/247 249/249/249 248/248/248
f 250/250/250 252/252/252 251/251/251
f 253/253/253 255/255/255 254/254/254
f 256/256/256 258/258/258 257/257/257
f 259/259/259 261/261/261 260/260/260
f 262/262/262 264/264/264 263/263/263
f 265/265/265 267/267/267 266/266/266
f 268/268/268 270/270/270 269/269/269
f 271/271/271 273/273/273 272/272/272
f 274/274/274 276/276/276 275/275/275
f 277/277/277 279/279/279 278/278/278
