mtllib Cube.mtl
usemtl Cube

g Cube
v -5.960464E-10 1.341104E-09 0.01
v 0.003861102 2.086163E-09 0.01
v 0.003861103 -0.003861101 0.01
v 0 -0.003861102 0.01
v -8.940697E-10 0.003861104 0.01
v 0.003861101 0.003861105 0.01
v -1.192093E-09 0.007639348 -0.01
v -7.171863E-11 0.00463387 -0.01105024
v 0.006065795 0.006065793 -0.01105024
v 0.009999999 0.01 -0.01
v -0.01 0.005278696 -0.01
v -0.006065795 0.003201948 -0.01105024
v 9.879101E-10 0.001667683 -0.0119501
v -0.002183019 0.001152348 -0.0119501
v 0.002183021 0.002183018 -0.0119501
v -0.01 0.005278696 -0.01
v -0.01793325 0.01026675 -0.008366396
v -0.02299167 0.006999414 -0.008366396
v -0.01598503 0.001412846 -0.01
v 0.01111686 -0.009003654 -0.0005758971
v 0.01006439 -0.01824603 -0.0005474749
v 0.002118348 -0.01420011 0.01062373
v 0.003861103 -0.003861101 0.01
v 0.003861101 0.003861105 0.01
v 0.01147435 0.005337442 0.008156405
v 0.01147435 0.002212014 0.008156405
v 0.003861102 2.086163E-09 0.01
v 0.01147435 -0.0009134141 0.008156405
v 0.003861103 -0.003861101 0.01
v 0.00693055 0.006930552 0
v 0.004401062 0.01447762 2.425897E-05
v 0.007801121 0.02249211 -0.007808279
v 0.009999999 0.01 -0.01
v 0.009999999 0.01 -0.01
v 0.007801121 0.02249211 -0.007808279
v -0.00240383 0.02008307 -0.007808279
v -1.192093E-09 0.007639348 -0.01
v -0.01260878 0.01767404 -0.007808279
v -0.01 0.005278696 -0.01
v -0.01 0.005278696 -0.01
v -0.01260878 0.01767404 -0.007808279
v -0.006869617 0.01255814 2.425897E-05
v -0.006930552 0.0045699 0
v -0.003861103 0.003861104 0.01
v -0.0043738 0.0119818 0.008155415
v -0.001234277 0.0119818 0.008155415
v -8.940697E-10 0.003861104 0.01
v 0.001905245 0.0119818 0.008155415
v 0.003861101 0.003861105 0.01
v 0.009999999 0.01 -0.01
v 0.01644358 0.01030666 -0.008032894
v 0.01395897 0.007822052 6.17556E-05
v 0.00693055 0.006930552 0
v 0.01147435 0.005337442 0.008156405
v 0.003861101 0.003861105 0.01
v 0.003861103 -0.003861101 0.01
v 0.01147435 -0.0009134141 0.008156405
v 0.01880364 -0.00454168 6.17556E-05
v 0.01111686 -0.009003654 -0.0005758971
v 0.02613292 -0.008169944 -0.008032894
v 0.01900871 -0.01291041 -0.009291855
v 0.01598503 -0.001412851 -0.01
v 0.02128825 0.001068359 -0.008032894
v 0.01644358 0.01030666 -0.008032894
v 0.009999999 0.01 -0.01
v -0.0192893 -0.003869609 -0.009291855
v -0.01494839 -0.01995393 -0.007524905
v -0.002399619 -0.02435107 -0.007972741
v 4.768371E-09 -0.007639353 -0.01
v -0.01139746 -0.004483255 -0.0005758971
v -0.01378081 -0.01345842 -0.0005474749
v -0.01494839 -0.01995393 -0.007524905
v -0.0192893 -0.003869609 -0.009291855
v 0 -0.003861102 0.01
v -0.001970992 -0.01420011 0.01062373
v -0.006060333 -0.01420011 0.01062373
v -0.003861103 -0.003861102 0.01
v 0.003861103 -0.003861101 0.01
v 0.002118348 -0.01420011 0.01062373
v -0.003861103 -0.003861102 0.01
v -0.01274479 0.002541985 0.00853718
v -0.01274479 0.005805308 0.00853718
v -0.003861103 5.960464E-10 0.01
v -0.01274479 0.00906863 0.00853718
v -0.003861103 0.003861104 0.01
v -0.006930552 0.0045699 0
v -0.01533902 0.00966769 8.53919E-05
v -0.01793325 0.01026675 -0.008366396
v -0.01 0.005278696 -0.01
v -0.003861103 0.003861104 0.01
v -0.01274479 0.00906863 0.00853718
v -0.0192893 -0.003869609 -0.009291855
v -0.02805008 0.003732081 -0.008366396
v -0.02039743 0.003137033 8.53919E-05
v -0.01139746 -0.004483255 -0.0005758971
v -0.01274479 0.002541985 0.00853718
v -0.003861103 -0.003861102 0.01
v -0.01598503 0.001412846 -0.01
v -0.009696187 0.0008570026 -0.01105024
v -0.006065795 0.003201948 -0.01105024
v -0.01 0.005278696 -0.01
v -0.002183019 0.001152348 -0.0119501
v -0.003489562 0.0003084253 -0.0119501
v -0.01332658 -0.001487942 -0.01105024
v -0.004796105 -0.0005354974 -0.0119501
v 0.009999999 0.01 -0.01
v 0.006065795 0.006065793 -0.01105024
v 0.009696192 -0.000857007 -0.01105024
v 0.01598503 -0.001412851 -0.01
v 0.003489565 -0.00030843 -0.0119501
v 0.00479611 -0.002799878 -0.0119501
v 0.01332659 -0.007779808 -0.01105024
v 0.002183021 0.002183018 -0.0119501
v 4.768371E-09 -0.007639353 -0.01
v 3.543777E-09 -0.004633876 -0.01105024
v -0.01332658 -0.001487942 -0.01105024
v -0.0192893 -0.003869609 -0.009291855
v 0.01900871 -0.01291041 -0.009291855
v 0.01332659 -0.007779808 -0.01105024
v -0.003861103 0.003861104 0.01
v -8.940697E-10 0.003861104 0.01
v -5.960464E-10 1.341104E-09 0.01
v -0.003861103 5.960464E-10 0.01
v 0 -0.003861102 0.01
v -0.003861103 -0.003861102 0.01
v -0.001234277 0.01351788 2.425897E-05
v 0.004401062 0.01447762 2.425897E-05
v 0.001905245 0.0119818 0.008155415
v -0.001234277 0.0119818 0.008155415
v -0.00240383 0.02008307 -0.007808279
v 0.007801121 0.02249211 -0.007808279
v 0.004401062 0.01447762 2.425897E-05
v -0.001234277 0.01351788 2.425897E-05
v -0.01260878 0.01767404 -0.007808279
v -0.006869617 0.01255814 2.425897E-05
v -0.006869617 0.01255814 2.425897E-05
v -0.001234277 0.01351788 2.425897E-05
v -0.001234277 0.0119818 0.008155415
v -0.0043738 0.0119818 0.008155415
v -0.006930552 0.0045699 0
v -0.006869617 0.01255814 2.425897E-05
v -0.0043738 0.0119818 0.008155415
v -0.003861103 0.003861104 0.01
v 0.003861101 0.003861105 0.01
v 0.001905245 0.0119818 0.008155415
v 0.004401062 0.01447762 2.425897E-05
v 0.00693055 0.006930552 0
v -0.01786823 0.006402361 8.53919E-05
v -0.02039743 0.003137033 8.53919E-05
v -0.02805008 0.003732081 -0.008366396
v -0.02299167 0.006999414 -0.008366396
v -0.01274479 0.005805308 0.00853718
v -0.01274479 0.002541985 0.00853718
v -0.02039743 0.003137033 8.53919E-05
v -0.01786823 0.006402361 8.53919E-05
v -0.01274479 0.00906863 0.00853718
v -0.01274479 0.005805308 0.00853718
v -0.01786823 0.006402361 8.53919E-05
v -0.01533902 0.00966769 8.53919E-05
v -0.01533902 0.00966769 8.53919E-05
v -0.01786823 0.006402361 8.53919E-05
v -0.02299167 0.006999414 -0.008366396
v -0.01793325 0.01026675 -0.008366396
v -0.01598503 0.001412846 -0.01
v -0.02299167 0.006999414 -0.008366396
v -0.02805008 0.003732081 -0.008366396
v -0.0192893 -0.003869609 -0.009291855
v -0.00197099 -0.01620091 3.260978E-05
v 0.01006439 -0.01824603 -0.0005474749
v 0.0104848 -0.02595781 -0.007524905
v -0.002399619 -0.02435107 -0.007972741
v -0.001970992 -0.01420011 0.01062373
v 0.002118348 -0.01420011 0.01062373
v 0.01006439 -0.01824603 -0.0005474749
v -0.00197099 -0.01620091 3.260978E-05
v -0.006060333 -0.01420011 0.01062373
v -0.001970992 -0.01420011 0.01062373
v -0.00197099 -0.01620091 3.260978E-05
v -0.01378081 -0.01345842 -0.0005474749
v -0.01378081 -0.01345842 -0.0005474749
v -0.00197099 -0.01620091 3.260978E-05
v -0.002399619 -0.02435107 -0.007972741
v -0.01494839 -0.01995393 -0.007524905
v -0.003861103 -0.003861102 0.01
v -0.006060333 -0.01420011 0.01062373
v -0.01378081 -0.01345842 -0.0005474749
v -0.01139746 -0.004483255 -0.0005758971
v 4.768371E-09 -0.007639353 -0.01
v -0.002399619 -0.02435107 -0.007972741
v 0.0104848 -0.02595781 -0.007524905
v 0.01900871 -0.01291041 -0.009291855
v 0.01900871 -0.01291041 -0.009291855
v 0.0104848 -0.02595781 -0.007524905
v 0.01006439 -0.01824603 -0.0005474749
v 0.01111686 -0.009003654 -0.0005758971
v 0.0163813 0.001640186 6.17556E-05
v 0.01395897 0.007822052 6.17556E-05
v 0.01644358 0.01030666 -0.008032894
v 0.02128825 0.001068359 -0.008032894
v 0.01147435 0.002212014 0.008156405
v 0.01147435 0.005337442 0.008156405
v 0.01395897 0.007822052 6.17556E-05
v 0.0163813 0.001640186 6.17556E-05
v 0.01147435 -0.0009134141 0.008156405
v 0.01147435 0.002212014 0.008156405
v 0.0163813 0.001640186 6.17556E-05
v 0.01880364 -0.00454168 6.17556E-05
v 0.01880364 -0.00454168 6.17556E-05
v 0.0163813 0.001640186 6.17556E-05
v 0.02128825 0.001068359 -0.008032894
v 0.02613292 -0.008169944 -0.008032894
v 0.01900871 -0.01291041 -0.009291855
v 0.02613292 -0.008169944 -0.008032894
v 0.02128825 0.001068359 -0.008032894
v 0.01598503 -0.001412851 -0.01
v 0.01332659 -0.007779808 -0.01105024
v 0.009696192 -0.000857007 -0.01105024
v 0.01332659 -0.007779808 -0.01105024
v 0.00479611 -0.002799878 -0.0119501
v 2.289091E-09 -0.001667688 -0.0119501
v 3.543777E-09 -0.004633876 -0.01105024
v -0.004796105 -0.0005354974 -0.0119501
v -0.01332658 -0.001487942 -0.01105024
v -0.0192893 -0.003869609 -0.009291855
v -0.01332658 -0.001487942 -0.01105024
v -0.009696187 0.0008570026 -0.01105024
v -0.01598503 0.001412846 -0.01
v 1.638501E-09 -2.351759E-09 -0.0119501
v 2.289091E-09 -0.001667688 -0.0119501
v 0.00479611 -0.002799878 -0.0119501
v 0.003489565 -0.00030843 -0.0119501
v 9.879101E-10 0.001667683 -0.0119501
v -0.002183019 0.001152348 -0.0119501
v -0.003489562 0.0003084253 -0.0119501
v 0.002183021 0.002183018 -0.0119501
v -0.003489562 0.0003084253 -0.0119501
v -0.004796105 -0.0005354974 -0.0119501
v 2.289091E-09 -0.001667688 -0.0119501
v 1.638501E-09 -2.351759E-09 -0.0119501

vn -1.999067E-07 0 1
vn -1.999067E-07 0 1
vn -1.999067E-07 0 1
vn -1.999067E-07 0 1
vn -1.999067E-07 0 1
vn -1.999067E-07 0 1
vn -0.07763823 0.3288843 -0.9411734
vn -0.07763823 0.3288843 -0.9411734
vn -0.07763823 0.3288843 -0.9411734
vn -0.07763823 0.3288843 -0.9411734
vn -0.07763813 0.3288844 -0.9411734
vn -0.06837185 0.28963 -0.9546936
vn -0.06837185 0.28963 -0.9546936
vn -0.06837185 0.28963 -0.9546936
vn -0.06837153 0.28963 -0.9546936
vn -0.1024683 0.1586392 -0.982005
vn -0.1024683 0.1586392 -0.982005
vn -0.1024683 0.1586392 -0.982005
vn -0.1024683 0.1586392 -0.982005
vn 0.7969238 -0.09388614 0.5967392
vn 0.7969238 -0.09388614 0.5967392
vn 0.7969238 -0.09388614 0.5967392
vn 0.7969238 -0.09388614 0.5967392
vn 0.2353537 0 0.9719098
vn 0.2353537 0 0.9719098
vn 0.2353537 0 0.9719098
vn 0.2353537 0 0.9719098
vn 0.2353537 0 0.9719098
vn 0.2353537 0 0.9719098
vn 0.8905848 0.1631932 0.4245312
vn 0.8905848 0.1631932 0.4245312
vn 0.8905848 0.1631932 0.4245312
vn 0.8905848 0.1631932 0.4245312
vn -0.03918253 0.1659812 -0.9853501
vn -0.03918253 0.1659812 -0.9853501
vn -0.03918253 0.1659812 -0.9853501
vn -0.03918253 0.1659812 -0.9853501
vn -0.03918227 0.1659813 -0.9853501
vn -0.03918227 0.1659813 -0.9853501
vn -0.9048864 -0.1561543 0.3959753
vn -0.9048864 -0.1561543 0.3959753
vn -0.9048864 -0.1561543 0.3959753
vn -0.9048864 -0.1561543 0.3959753
vn -2.044822E-07 0.2215036 0.9751595
vn -2.044822E-07 0.2215036 0.9751595
vn -2.044822E-07 0.2215036 0.9751595
vn -2.044822E-07 0.2215036 0.9751595
vn 1.290452E-07 0.2215036 0.9751595
vn 1.290452E-07 0.2215036 0.9751595
vn -0.1238484 0.958647 0.2562371
vn -0.1238484 0.958647 0.2562371
vn -0.1238484 0.958647 0.2562371
vn -0.1238484 0.958647 0.2562371
vn -0.1238483 0.9586471 0.2562371
vn -0.1238483 0.9586471 0.2562371
vn 0.3810554 -0.6859404 0.6199053
vn 0.3810554 -0.6859404 0.6199053
vn 0.3810554 -0.6859404 0.6199053
vn 0.3810554 -0.6859404 0.6199053
vn 0.3507405 -0.6940747 0.6286822
vn 0.3507405 -0.6940747 0.6286822
vn 0.2823096 0.1480464 -0.947831
vn 0.2823096 0.1480464 -0.947831
vn 0.2823096 0.1480464 -0.947831
vn 0.2823096 0.1480464 -0.947831
vn -0.06638043 -0.1185475 -0.9907271
vn -0.06638043 -0.1185475 -0.9907271
vn -0.06638043 -0.1185475 -0.9907271
vn -0.06638043 -0.1185475 -0.9907271
vn -0.8605992 -0.03080676 0.5083503
vn -0.8605992 -0.03080676 0.5083503
vn -0.8605992 -0.03080676 0.5083503
vn -0.8605992 -0.03080676 0.5083503
vn 0 0.06021838 0.9981852
vn 0 0.06021838 0.9981852
vn 0 0.06021838 0.9981852
vn 0 0.06021838 0.9981852
vn 0 0.06021838 0.9981852
vn 0 0.06021838 0.9981852
vn -0.1624758 0 0.9867125
vn -0.1624758 0 0.9867125
vn -0.1624758 0 0.9867125
vn -0.1624758 0 0.9867125
vn -0.1624756 0 0.9867125
vn -0.1624756 0 0.9867125
vn 0.5152204 0.8514602 -0.09779312
vn 0.5152204 0.8514602 -0.09779312
vn 0.5152204 0.8514602 -0.09779312
vn 0.5152204 0.8514602 -0.09779312
vn 0.5152204 0.8514602 -0.09779313
vn 0.5152204 0.8514602 -0.09779313
vn -0.5559474 -0.6960347 0.4543768
vn -0.5559474 -0.6960347 0.4543768
vn -0.5559474 -0.6960347 0.4543768
vn -0.5559474 -0.6960347 0.4543768
vn -0.5632748 -0.6925737 0.4506253
vn -0.5632748 -0.6925737 0.4506253
vn -0.1417939 0.2195222 -0.9652484
vn -0.1417939 0.2195222 -0.9652484
vn -0.1417939 0.2195222 -0.9652484
vn -0.1417939 0.2195222 -0.9652484
vn -0.1241501 0.1922065 -0.9734698
vn -0.12415 0.1922065 -0.9734698
vn -0.12415 0.1922065 -0.9734698
vn -0.12415 0.1922065 -0.9734698
vn 0.1717906 0.09008896 -0.9810056
vn 0.1717906 0.09008896 -0.9810056
vn 0.1717906 0.09008896 -0.9810056
vn 0.1717906 0.09008896 -0.9810056
vn 0.1498399 0.07857767 -0.9855828
vn 0.1498399 0.07857767 -0.9855828
vn 0.1498399 0.07857767 -0.9855828
vn 0.14984 0.07857768 -0.9855828
vn -0.09887332 -0.3717926 -0.9230354
vn -0.09887332 -0.3717926 -0.9230354
vn -0.09887332 -0.3717926 -0.9230354
vn -0.09887332 -0.3717926 -0.9230354
vn -0.07680365 -0.3728523 -0.9247066
vn -0.07680365 -0.3728523 -0.9247066
vn 0 0 1
vn 0 0 1
vn 0 0 1
vn 0 0 1
vn 0 0 1
vn 0 0 1
vn -0.1059644 0.9688259 0.223937
vn -0.1059644 0.9688259 0.223937
vn -0.1059644 0.9688259 0.223937
vn -0.1059644 0.9688259 0.223937
vn -0.1561058 0.7340242 0.6609382
vn -0.1561058 0.7340242 0.6609382
vn -0.1561058 0.7340242 0.6609382
vn -0.1561058 0.7340242 0.6609382
vn -0.1607672 0.7559418 0.6345911
vn -0.1607672 0.7559418 0.6345911
vn -0.1075879 0.9836698 0.1442865
vn -0.1075879 0.9836698 0.1442865
vn -0.1075879 0.9836698 0.1442865
vn -0.1075879 0.9836698 0.1442865
vn -0.9558327 0.006398914 0.2938416
vn -0.9558327 0.006398914 0.2938416
vn -0.9558327 0.006398914 0.2938416
vn -0.9558327 0.006398914 0.2938416
vn 0.8842029 0.2951874 0.3620078
vn 0.8842029 0.2951874 0.3620078
vn 0.8842029 0.2951874 0.3620078
vn 0.8842029 0.2951874 0.3620078
vn -0.572518 0.6649735 0.4796179
vn -0.572518 0.6649735 0.4796179
vn -0.572518 0.6649735 0.4796179
vn -0.572518 0.6649735 0.4796179
vn -0.7530531 0.2917337 0.589748
vn -0.7530531 0.2917337 0.589748
vn -0.7530531 0.2917337 0.589748
vn -0.7530531 0.2917337 0.589748
vn -0.8499274 0.3292629 0.4113507
vn -0.8499274 0.3292629 0.4113507
vn -0.8499274 0.3292629 0.4113507
vn -0.8499274 0.3292629 0.4113507
vn -0.6155366 0.7149399 0.3316258
vn -0.6155366 0.7149399 0.3316258
vn -0.6155366 0.7149399 0.3316258
vn -0.6155366 0.7149399 0.3316258
vn -0.1262434 0.04138879 -0.9911355
vn -0.1262434 0.04138879 -0.9911355
vn -0.1262434 0.04138879 -0.9911355
vn -0.1262434 0.04138879 -0.9911355
vn -0.09631627 -0.6834546 0.7236111
vn -0.09631627 -0.6834546 0.7236111
vn -0.09631627 -0.6834546 0.7236111
vn -0.09631627 -0.6834546 0.7236111
vn -0.1145027 -0.9671591 0.2269193
vn -0.1145027 -0.9671591 0.2269193
vn -0.1145027 -0.9671591 0.2269193
vn -0.1145027 -0.9671591 0.2269193
vn -0.1729732 -0.9778398 0.1179393
vn -0.1729732 -0.9778398 0.1179393
vn -0.1729732 -0.9778398 0.1179393
vn -0.1729732 -0.9778398 0.1179393
vn -0.2056585 -0.6887776 0.6951907
vn -0.2056585 -0.6887776 0.6951907
vn -0.2056585 -0.6887776 0.6951907
vn -0.2056585 -0.6887776 0.6951907
vn -0.8000463 0.2088132 0.562426
vn -0.8000463 0.2088132 0.562426
vn -0.8000463 0.2088132 0.562426
vn -0.8000463 0.2088132 0.562426
vn 0.00804027 -0.129373 -0.9915634
vn 0.00804027 -0.129373 -0.9915634
vn 0.00804027 -0.129373 -0.9915634
vn 0.00804027 -0.129373 -0.9915634
vn 0.7509212 -0.2742298 0.6007624
vn 0.7509212 -0.2742298 0.6007624
vn 0.7509212 -0.2742298 0.6007624
vn 0.7509212 -0.2742298 0.6007624
vn 0.8207499 0.3867921 0.4204302
vn 0.8207499 0.3867921 0.4204302
vn 0.8207499 0.3867921 0.4204302
vn 0.8207499 0.3867921 0.4204302
vn 0.8753031 0.2278081 0.4265535
vn 0.8753031 0.2278081 0.4265535
vn 0.8753031 0.2278081 0.4265535
vn 0.8753031 0.2278081 0.4265535
vn 0.8054324 0.2096234 0.5543796
vn 0.8054324 0.2096234 0.5543796
vn 0.8054324 0.2096234 0.5543796
vn 0.8054324 0.2096234 0.5543796
vn 0.7848297 0.3698639 0.4972355
vn 0.7848297 0.3698639 0.4972355
vn 0.7848297 0.3698639 0.4972355
vn 0.7848297 0.3698639 0.4972355
vn 0.2228837 0.0513291 -0.9734928
vn 0.2228837 0.0513291 -0.9734928
vn 0.2228837 0.0513291 -0.9734928
vn 0.2228837 0.0513291 -0.9734928
vn 0.2523285 0.05400814 -0.9661332
vn 0.2523285 0.05400814 -0.9661332
vn -0.06837139 -0.2896301 -0.9546936
vn -0.06837139 -0.2896301 -0.9546936
vn -0.06837139 -0.2896301 -0.9546936
vn -0.06837139 -0.2896301 -0.9546936
vn -0.06837142 -0.2896301 -0.9546936
vn -0.06837142 -0.2896301 -0.9546936
vn -0.2397687 0.1286535 -0.9622678
vn -0.2397687 0.1286535 -0.9622678
vn -0.2397687 0.1286535 -0.9622678
vn -0.2397687 0.1286535 -0.9622678
vn 1.829543E-07 0 -1
vn 1.829543E-07 0 -1
vn 1.829543E-07 0 -1
vn 1.829543E-07 0 -1
vn -4.264488E-07 0 -1
vn -4.264488E-07 0 -1
vn -4.264488E-07 0 -1
vn 3.746619E-07 0 -1
vn 0 0 -1
vn 0 0 -1
vn 0 0 -1
vn 0 0 -1

vt 0 0
vt 0 0
vt 0 0
vt 0 0
vt 0 0
vt 0 0
vt 0 0
vt 0 0
vt 0 0
vt 0 0
vt 0 0
vt 0 0
vt 0 0
vt 0 0
vt 0 0
vt 0 0
vt 0 0
vt 0 0
vt 0 0
vt 0 0
vt 0 0
vt 0 0
vt 0 0
vt 0 0
vt 0 0
vt 0 0
vt 0 0
vt 0 0
vt 0 0
vt 0 0
vt 0 0
vt 0 0
vt 0 0
vt 0 0
vt 0 0
vt 0 0
vt 0 0
vt 0 0
vt 0 0
vt 0 0
vt 0 0
vt 0 0
vt 0 0
vt 0 0
vt 0 0
vt 0 0
vt 0 0
vt 0 0
vt 0 0
vt 0 0
vt 0 0
vt 0 0
vt 0 0
vt 0 0
vt 0 0
vt 0 0
vt 0 0
vt 0 0
vt 0 0
vt 0 0
vt 0 0
vt 0 0
vt 0 0
vt 0 0
vt 0 0
vt 0 0
vt 0 0
vt 0 0
vt 0 0
vt 0 0
vt 0 0
vt 0 0
vt 0 0
vt 0 0
vt 0 0
vt 0 0
vt 0 0
vt 0 0
vt 0 0
vt 0 0
vt 0 0
vt 0 0
vt 0 0
vt 0 0
vt 0 0
vt 0 0
vt 0 0
vt 0 0
vt 0 0
vt 0 0
vt 0 0
vt 0 0
vt 0 0
vt 0 0
vt 0 0
vt 0 0
vt 0 0
vt 0 0
vt 0 0
vt 0 0
vt 0 0
vt 0 0
vt 0 0
vt 0 0
vt 0 0
vt 0 0
vt 0 0
vt 0 0
vt 0 0
vt 0 0
vt 0 0
vt 0 0
vt 0 0
vt 0 0
vt 0 0
vt 0 0
vt 0 0
vt 0 0
vt 0 0
vt 0 0
vt 0 0
vt 0 0
vt 0 0
vt 0 0
vt 0 0
vt 0 0
vt 0 0
vt 0 0
vt 0 0
vt 0 0
vt 0 0
vt 0 0
vt 0 0
vt 0 0
vt 0 0
vt 0 0
vt 0 0
vt 0 0
vt 0 0
vt 0 0
vt 0 0
vt 0 0
vt 0 0
vt 0 0
vt 0 0
vt 0 0
vt 0 0
vt 0 0
vt 0 0
vt 0 0
vt 0 0
vt 0 0
vt 0 0
vt 0 0
vt 0 0
vt 0 0
vt 0 0
vt 0 0
vt 0 0
vt 0 0
vt 0 0
vt 0 0
vt 0 0
vt 0 0
vt 0 0
vt 0 0
vt 0 0
vt 0 0
vt 0 0
vt 0 0
vt 0 0
vt 0 0
vt 0 0
vt 0 0
vt 0 0
vt 0 0
vt 0 0
vt 0 0
vt 0 0
vt 0 0
vt 0 0
vt 0 0
vt 0 0
vt 0 0
vt 0 0
vt 0 0
vt 0 0
vt 0 0
vt 0 0
vt 0 0
vt 0 0
vt 0 0
vt 0 0
vt 0 0
vt 0 0
vt 0 0
vt 0 0
vt 0 0
vt 0 0
vt 0 0
vt 0 0
vt 0 0
vt 0 0
vt 0 0
vt 0 0
vt 0 0
vt 0 0
vt 0 0
vt 0 0
vt 0 0
vt 0 0
vt 0 0
vt 0 0
vt 0 0
vt 0 0
vt 0 0
vt 0 0
vt 0 0
vt 0 0
vt 0 0
vt 0 0
vt 0 0
vt 0 0
vt 0 0
vt 0 0
vt 0 0
vt 0 0
vt 0 0
vt 0 0
vt 0 0
vt 0 0
vt 0 0
vt 0 0
vt 0 0
vt 0 0
vt 0 0
vt 0 0
vt 0 0
vt 0 0
f 1/1/1 3/3/3 2/2/2
f 1/1/1 4/4/4 3/3/3
f 5/5/5 1/1/1 2/2/2
f 5/5/5 2/2/2 6/6/6
f 7/7/7 9/9/9 8/8/8
f 7/7/7 10/10/10 9/9/9
f 11/11/11 7/7/7 8/8/8
f 11/11/11 8/8/8 12/12/12
f 12/12/12 8/8/8 13/13/13
f 12/12/12 13/13/13 14/14/14
f 8/8/8 15/15/15 13/13/13
f 8/8/8 9/9/9 15/15/15
f 16/16/16 18/18/18 17/17/17
f 16/16/16 19/19/19 18/18/18
f 20/20/20 22/22/22 21/21/21
f 20/20/20 23/23/23 22/22/22
f 24/24/24 26/26/26 25/25/25
f 24/24/24 27/27/27 26/26/26
f 27/27/27 28/28/28 26/26/26
f 27/27/27 29/29/29 28/28/28
f 30/30/30 32/32/32 31/31/31
f 30/30/30 33/33/33 32/32/32
f 34/34/34 36/36/36 35/35/35
f 34/34/34 37/37/37 36/36/36
f 37/37/37 38/38/38 36/36/36
f 37/37/37 39/39/39 38/38/38
f 40/40/40 42/42/42 41/41/41
f 40/40/40 43/43/43 42/42/42
f 44/44/44 46/46/46 45/45/45
f 44/44/44 47/47/47 46/46/46
f 47/47/47 48/48/48 46/46/46
f 47/47/47 49/49/49 48/48/48
f 50/50/50 52/52/52 51/51/51
f 50/50/50 53/53/53 52/52/52
f 53/53/53 54/54/54 52/52/52
f 53/53/53 55/55/55 54/54/54
f 56/56/56 58/58/58 57/57/57
f 56/56/56 59/59/59 58/58/58
f 59/59/59 60/60/60 58/58/58
f 59/59/59 61/61/61 60/60/60
f 62/62/62 64/64/64 63/63/63
f 62/62/62 65/65/65 64/64/64
f 66/66/66 68/68/68 67/67/67
f 66/66/66 69/69/69 68/68/68
f 70/70/70 72/72/72 71/71/71
f 70/70/70 73/73/73 72/72/72
f 74/74/74 76/76/76 75/75/75
f 74/74/74 77/77/77 76/76/76
f 78/78/78 74/74/74 75/75/75
f 78/78/78 75/75/75 79/79/79
f 80/80/80 82/82/82 81/81/81
f 80/80/80 83/83/83 82/82/82
f 83/83/83 84/84/84 82/82/82
f 83/83/83 85/85/85 84/84/84
f 86/86/86 88/88/88 87/87/87
f 86/86/86 89/89/89 88/88/88
f 90/90/90 86/86/86 87/87/87
f 90/90/90 87/87/87 91/91/91
f 92/92/92 94/94/94 93/93/93
f 92/92/92 95/95/95 94/94/94
f 95/95/95 96/96/96 94/94/94
f 95/95/95 97/97/97 96/96/96
f 98/98/98 100/100/100 99/99/99
f 98/98/98 101/101/101 100/100/100
f 99/99/99 100/100/100 102/102/102
f 99/99/99 102/102/102 103/103/103
f 104/104/104 99/99/99 103/103/103
f 104/104/104 103/103/103 105/105/105
f 106/106/106 108/108/108 107/107/107
f 106/106/106 109/109/109 108/108/108
f 107/107/107 108/108/108 110/110/110
f 108/108/108 111/111/111 110/110/110
f 108/108/108 112/112/112 111/111/111
f 107/107/107 110/110/110 113/113/113
f 114/114/114 116/116/116 115/115/115
f 114/114/114 117/117/117 116/116/116
f 118/118/118 114/114/114 115/115/115
f 118/118/118 115/115/115 119/119/119
f 120/120/120 122/122/122 121/121/121
f 120/120/120 123/123/123 122/122/122
f 123/123/123 124/124/124 122/122/122
f 123/123/123 125/125/125 124/124/124
f 126/126/126 128/128/128 127/127/127
f 126/126/126 129/129/129 128/128/128
f 130/130/130 132/132/132 131/131/131
f 130/130/130 133/133/133 132/132/132
f 134/134/134 133/133/133 130/130/130
f 134/134/134 135/135/135 133/133/133
f 136/136/136 138/138/138 137/137/137
f 136/136/136 139/139/139 138/138/138
f 140/140/140 142/142/142 141/141/141
f 140/140/140 143/143/143 142/142/142
f 144/144/144 146/146/146 145/145/145
f 144/144/144 147/147/147 146/146/146
f 148/148/148 150/150/150 149/149/149
f 148/148/148 151/151/151 150/150/150
f 152/152/152 154/154/154 153/153/153
f 152/152/152 155/155/155 154/154/154
f 156/156/156 158/158/158 157/157/157
f 156/156/156 159/159/159 158/158/158
f 160/160/160 162/162/162 161/161/161
f 160/160/160 163/163/163 162/162/162
f 164/164/164 166/166/166 165/165/165
f 164/164/164 167/167/167 166/166/166
f 168/168/168 170/170/170 169/169/169
f 168/168/168 171/171/171 170/170/170
f 172/172/172 174/174/174 173/173/173
f 172/172/172 175/175/175 174/174/174
f 176/176/176 178/178/178 177/177/177
f 176/176/176 179/179/179 178/178/178
f 180/180/180 182/182/182 181/181/181
f 180/180/180 183/183/183 182/182/182
f 184/184/184 186/186/186 185/185/185
f 184/184/184 187/187/187 186/186/186
f 188/188/188 190/190/190 189/189/189
f 188/188/188 191/191/191 190/190/190
f 192/192/192 194/194/194 193/193/193
f 192/192/192 195/195/195 194/194/194
f 196/196/196 198/198/198 197/197/197
f 196/196/196 199/199/199 198/198/198
f 200/200/200 202/202/202 201/201/201
f 200/200/200 203/203/203 202/202/202
f 204/204/204 206/206/206 205/205/205
f 204/204/204 207/207/207 206/206/206
f 208/208/208 210/210/210 209/209/209
f 208/208/208 211/211/211 210/210/210
f 212/212/212 214/214/214 213/213/213
f 212/212/212 215/215/215 214/214/214
f 215/215/215 212/212/212 216/216/216
f 215/215/215 216/216/216 217/217/217
f 218/218/218 220/220/220 219/219/219
f 218/218/218 221/221/221 220/220/220
f 221/221/221 222/222/222 220/220/220
f 221/221/221 223/223/223 222/222/222
f 224/224/224 226/226/226 225/225/225
f 224/224/224 227/227/227 226/226/226
f 228/228/228 230/230/230 229/229/229
f 228/228/228 231/231/231 230/230/230
f 232/232/232 231/231/231 228/228/228
f 233/233/233 232/232/232 228/228/228
f 233/233/233 228/228/228 234/234/234
f 232/232/232 235/235/235 231/231/231
f 236/236/236 238/238/238 237/237/237
f 236/236/236 239/239/239 238/238/238
