mtllib Plane.009.mtl
usemtl Plane.009

g Plane.009
v 122.6162 27.4545 -4.590995
v 126.3657 27.83964 -4.591214
v 125.7942 29.22071 -4.547085
v 122.1499 28.6419 -4.546709
v 124.9836 30.33133 -4.501719
v 121.5383 29.48028 -4.501331
v 123.8548 31.37331 -4.451677
v 120.7051 30.24979 -4.451378
v 122.4251 32.30836 -4.398118
v 119.6501 30.93907 -4.397961
v 120.7524 33.11029 -4.342649
v 118.3891 31.54229 -4.342617
v 118.9107 33.77338 -4.286797
v 116.9502 32.05893 -4.28684
v 116.9649 34.30882 -4.231668
v 115.3684 32.49313 -4.231741
v 114.9607 34.73567 -4.1779
v 113.6781 32.85257 -4.177969
v 112.9262 35.07368 -4.125772
v 111.9081 33.14651 -4.125824
v 110.8776 35.33815 -4.075421
v 110.0794 33.3826 -4.075454
v 108.8245 35.53661 -4.027056
v 108.2045 33.56331 -4.027092
v 106.7722 35.68772 -3.980393
v 106.3008 33.70311 -3.98043
v 104.7229 35.80222 -3.935233
v 104.3775 33.81046 -3.935261
v 102.6777 35.88511 -3.89152
v 102.4389 33.88904 -3.891537
v 100.6378 35.93823 -3.84935
v 100.4874 33.93979 -3.849365
v 98.60334 35.96743 -3.808595
v 98.52677 33.96784 -3.80861
v 96.5733 35.97964 -3.768964
v 96.56024 33.97964 -3.768975
v 94.54802 35.97572 -3.730523
v 94.58844 33.97583 -3.73053
v 92.52786 35.95654 -3.693368
v 92.61191 33.95703 -3.693375
v 90.51153 35.92719 -3.657213
v 90.63223 33.9282 -3.657218
v 88.49878 35.88932 -3.622007
v 88.64986 33.89089 -3.62201
v 86.48993 35.84335 -3.587883
v 86.66467 33.84546 -3.587885
v 84.48437 35.79158 -3.554726
v 84.67706 33.79414 -3.554728
v 82.48138 35.73614 -3.522351
v 82.68748 33.73907 -3.522353
v 80.48132 35.6776 -3.490912
v 80.69556 33.68077 -3.490913
v 78.48393 35.61748 -3.460372
v 78.70119 33.62074 -3.460372
v 76.48861 35.55725 -3.430556
v 76.7047 33.56048 -3.430556
v 74.49529 35.49786 -3.401443
v 74.70597 33.50092 -3.401442
v 72.5043 35.44107 -3.373153
v 72.70428 33.44384 -3.373152
v 70.5154 35.38811 -3.345561
v 70.69971 33.39045 -3.345559
v 68.52841 35.33989 -3.318551
v 68.69232 33.34174 -3.318549
v 66.54348 35.29767 -3.292088
v 66.68183 33.29899 -3.292086
v 64.56092 35.26315 -3.266127
v 64.66787 33.26394 -3.266126
v 62.58127 35.23872 -3.240596
v 62.64987 33.23905 -3.240595
v 60.60511 35.22616 -3.21534
v 60.6276 33.2262 -3.21534
v 58.63314 35.22712 -3.190169
v 58.60089 33.22719 -3.19017
v 56.6666 35.24397 -3.16484
v 56.56936 33.24462 -3.164843
v 54.70731 35.27962 -3.138999
v 54.5326 33.28173 -3.139008
v 52.75848 35.33855 -3.112026
v 52.48991 33.34354 -3.112046
v 50.82488 35.42597 -3.082924
v 50.44053 33.43618 -3.082973
v 48.91272 35.54589 -3.050164
v 48.38409 33.56527 -3.050271
v 47.03484 35.70672 -3.010378
v 46.31911 33.74238 -3.010652
v 45.21959 35.92141 -2.953231
v 44.2427 33.98837 -2.95499
v 43.36408 36.22253 -2.827486
v 41.99397 34.35657 -2.83955
v 42.32458 36.49457 -2.677479
v 41.09642 34.59269 -2.684181

vn -0.004337213 0.03265195 -0.9994574
vn -0.004337213 0.03265195 -0.9994574
vn -0.006304823 0.03656771 -0.9993113
vn -0.006304823 0.03656771 -0.9993113
vn -0.01040959 0.04102098 -0.999104
vn -0.01040959 0.04102098 -0.999104
vn -0.01471861 0.04076009 -0.9990605
vn -0.01471861 0.04076009 -0.9990605
vn -0.01872077 0.03792416 -0.9991052
vn -0.01872077 0.03792416 -0.9991052
vn -0.02181138 0.03314124 -0.9992127
vn -0.02181138 0.03314124 -0.9992127
vn -0.02376001 0.02753099 -0.9993385
vn -0.02376001 0.02753099 -0.9993385
vn -0.02470029 0.02206328 -0.9994514
vn -0.02470029 0.02206328 -0.9994514
vn -0.02492343 0.01726143 -0.9995403
vn -0.02492343 0.01726143 -0.9995403
vn -0.02469048 0.01326961 -0.9996071
vn -0.02469048 0.01326961 -0.9996071
vn -0.02413608 0.01004005 -0.9996583
vn -0.02413608 0.01004005 -0.9996583
vn -0.02345016 0.007498182 -0.9996969
vn -0.02345016 0.007498182 -0.9996969
vn -0.022794 0.005512607 -0.999725
vn -0.022794 0.005512607 -0.999725
vn -0.02214299 0.003919933 -0.9997472
vn -0.02214299 0.003919933 -0.9997472
vn -0.02144258 0.00263435 -0.9997666
vn -0.02144258 0.00263435 -0.9997666
vn -0.02072705 0.001613151 -0.9997839
vn -0.02072705 0.001613151 -0.9997839
vn -0.02010401 0.0008077886 -0.9997976
vn -0.02010401 0.0008077886 -0.9997976
vn -0.01952929 0.0001618664 -0.9998093
vn -0.01952929 0.0001618664 -0.9998093
vn -0.01890797 -0.0003510181 -0.9998212
vn -0.01890797 -0.0003510181 -0.9998212
vn -0.0183319 -0.000748742 -0.9998317
vn -0.0183319 -0.000748742 -0.9998317
vn -0.01783984 -0.001058479 -0.9998403
vn -0.01783984 -0.001058479 -0.9998403
vn -0.01732665 -0.00129161 -0.9998491
vn -0.01732665 -0.00129161 -0.9998491
vn -0.01680932 -0.001455481 -0.9998577
vn -0.01680932 -0.001455481 -0.9998577
vn -0.01636805 -0.001567782 -0.9998648
vn -0.01636805 -0.001567782 -0.9998648
vn -0.01593584 -0.001632709 -0.9998717
vn -0.01593584 -0.001632709 -0.9998717
vn -0.01547556 -0.001649802 -0.9998789
vn -0.01547556 -0.001649802 -0.9998789
vn -0.01506937 -0.001631615 -0.9998851
vn -0.01506937 -0.001631615 -0.9998851
vn -0.01471318 -0.001584641 -0.9998905
vn -0.01471318 -0.001584641 -0.9998905
vn -0.01433299 -0.001503384 -0.9998961
vn -0.01433299 -0.001503384 -0.9998961
vn -0.01395511 -0.001389863 -0.9999017
vn -0.01395511 -0.001389863 -0.9999017
vn -0.01363808 -0.001251793 -0.9999062
vn -0.01363808 -0.001251793 -0.9999062
vn -0.01335909 -0.001088987 -0.9999102
vn -0.01335909 -0.001088987 -0.9999102
vn -0.01310045 -0.000899044 -0.9999138
vn -0.01310045 -0.000899044 -0.9999138
vn -0.01287087 -0.0006790069 -0.9999169
vn -0.01287087 -0.0006790069 -0.9999169
vn -0.01269739 -0.0004244789 -0.9999193
vn -0.01269739 -0.0004244789 -0.9999193
vn -0.01260915 -0.0001285916 -0.9999205
vn -0.01260915 -0.0001285916 -0.9999205
vn -0.01262698 0.0002209768 -0.9999202
vn -0.01262698 0.0002209768 -0.9999202
vn -0.01279011 0.0006463161 -0.999918
vn -0.01279011 0.0006463161 -0.999918
vn -0.01319017 0.001191783 -0.9999123
vn -0.01319017 0.001191783 -0.9999123
vn -0.01398095 0.001947388 -0.9999003
vn -0.01398095 0.001947388 -0.9999003
vn -0.01537607 0.003085021 -0.999877
vn -0.01537607 0.003085021 -0.999877
vn -0.01792617 0.005027523 -0.9998267
vn -0.01792617 0.005027523 -0.9998267
vn -0.02354784 0.009370944 -0.9996788
vn -0.02354784 0.009370944 -0.9996788
vn -0.0401249 0.02434222 -0.9988981
vn -0.0401249 0.02434222 -0.9988981
vn -0.09180695 0.06569212 -0.9936076
vn -0.09180695 0.06569212 -0.9936076
vn -0.1306532 0.09501249 -0.9868649
vn -0.1306532 0.09501249 -0.9868649

vt 0 0
vt 0 0
vt 0 0
vt 0 0
vt 0 0
vt 0 0
vt 0 0
vt 0 0
vt 0 0
vt 0 0
vt 0 0
vt 0 0
vt 0 0
vt 0 0
vt 0 0
vt 0 0
vt 0 0
vt 0 0
vt 0 0
vt 0 0
vt 0 0
vt 0 0
vt 0 0
vt 0 0
vt 0 0
vt 0 0
vt 0 0
vt 0 0
vt 0 0
vt 0 0
vt 0 0
vt 0 0
vt 0 0
vt 0 0
vt 0 0
vt 0 0
vt 0 0
vt 0 0
vt 0 0
vt 0 0
vt 0 0
vt 0 0
vt 0 0
vt 0 0
vt 0 0
vt 0 0
vt 0 0
vt 0 0
vt 0 0
vt 0 0
vt 0 0
vt 0 0
vt 0 0
vt 0 0
vt 0 0
vt 0 0
vt 0 0
vt 0 0
vt 0 0
vt 0 0
vt 0 0
vt 0 0
vt 0 0
vt 0 0
vt 0 0
vt 0 0
vt 0 0
vt 0 0
vt 0 0
vt 0 0
vt 0 0
vt 0 0
vt 0 0
vt 0 0
vt 0 0
vt 0 0
vt 0 0
vt 0 0
vt 0 0
vt 0 0
vt 0 0
vt 0 0
vt 0 0
vt 0 0
vt 0 0
vt 0 0
vt 0 0
vt 0 0
vt 0 0
vt 0 0
vt 0 0
vt 0 0
f 1/1/1 3/3/3 2/2/2
f 1/1/1 4/4/4 3/3/3
f 4/4/4 5/5/5 3/3/3
f 4/4/4 6/6/6 5/5/5
f 6/6/6 7/7/7 5/5/5
f 6/6/6 8/8/8 7/7/7
f 8/8/8 9/9/9 7/7/7
f 8/8/8 10/10/10 9/9/9
f 10/10/10 11/11/11 9/9/9
f 10/10/10 12/12/12 11/11/11
f 12/12/12 13/13/13 11/11/11
f 12/12/12 14/14/14 13/13/13
f 14/14/14 15/15/15 13/13/13
f 14/14/14 16/16/16 15/15/15
f 16/16/16 17/17/17 15/15/15
f 16/16/16 18/18/18 17/17/17
f 18/18/18 19/19/19 17/17/17
f 18/18/18 20/20/20 19/19/19
f 20/20/20 21/21/21 19/19/19
f 20/20/20 22/22/22 21/21/21
f 22/22/22 23/23/23 21/21/21
f 22/22/22 24/24/24 23/23/23
f 24/24/24 25/25/25 23/23/23
f 24/24/24 26/26/26 25/25/25
f 26/26/26 27/27/27 25/25/25
f 26/26/26 28/28/28 27/27/27
f 28/28/28 29/29/29 27/27/27
f 28/28/28 30/30/30 29/29/29
f 30/30/30 31/31/31 29/29/29
f 30/30/30 32/32/32 31/31/31
f 32/32/32 33/33/33 31/31/31
f 32/32/32 34/34/34 33/33/33
f 34/34/34 35/35/35 33/33/33
f 34/34/34 36/36/36 35/35/35
f 36/36/36 37/37/37 35/35/35
f 36/36/36 38/38/38 37/37/37
f 38/38/38 39/39/39 37/37/37
f 38/38/38 40/40/40 39/39/39
f 40/40/40 41/41/41 39/39/39
f 40/40/40 42/42/42 41/41/41
f 42/42/42 43/43/43 41/41/41
f 42/42/42 44/44/44 43/43/43
f 44/44/44 45/45/45 43/43/43
f 44/44/44 46/46/46 45/45/45
f 46/46/46 47/47/47 45/45/45
f 46/46/46 48/48/48 47/47/47
f 48/48/48 49/49/49 47/47/47
f 48/48/48 50/50/50 49/49/49
f 50/50/50 51/51/51 49/49/49
f 50/50/50 52/52/52 51/51/51
f 52/52/52 53/53/53 51/51/51
f 52/52/52 54/54/54 53/53/53
f 54/54/54 55/55/55 53/53/53
f 54/54/54 56/56/56 55/55/55
f 56/56/56 57/57/57 55/55/55
f 56/56/56 58/58/58 57/57/57
f 58/58/58 59/59/59 57/57/57
f 58/58/58 60/60/60 59/59/59
f 60/60/60 61/61/61 59/59/59
f 60/60/60 62/62/62 61/61/61
f 62/62/62 63/63/63 61/61/61
f 62/62/62 64/64/64 63/63/63
f 64/64/64 65/65/65 63/63/63
f 64/64/64 66/66/66 65/65/65
f 66/66/66 67/67/67 65/65/65
f 66/66/66 68/68/68 67/67/67
f 68/68/68 69/69/69 67/67/67
f 68/68/68 70/70/70 69/69/69
f 70/70/70 71/71/71 69/69/69
f 70/70/70 72/72/72 71/71/71
f 72/72/72 73/73/73 71/71/71
f 72/72/72 74/74/74 73/73/73
f 74/74/74 75/75/75 73/73/73
f 74/74/74 76/76/76 75/75/75
f 76/76/76 77/77/77 75/75/75
f 76/76/76 78/78/78 77/77/77
f 78/78/78 79/79/79 77/77/77
f 78/78/78 80/80/80 79/79/79
f 80/80/80 81/81/81 79/79/79
f 80/80/80 82/82/82 81/81/81
f 82/82/82 83/83/83 81/81/81
f 82/82/82 84/84/84 83/83/83
f 84/84/84 85/85/85 83/83/83
f 84/84/84 86/86/86 85/85/85
f 86/86/86 87/87/87 85/85/85
f 86/86/86 88/88/88 87/87/87
f 88/88/88 89/89/89 87/87/87
f 88/88/88 90/90/90 89/89/89
f 90/90/90 91/91/91 89/89/89
f 90/90/90 92/92/92 91/91/91
