mtllib Plane.mtl
usemtl Plane

g Plane
v 20.84636 -27.8386 -0.5423485
v 22.31961 -26.48599 -0.5423481
v 20.939 -24.99799 -0.561645
v 19.47752 -26.36329 -0.5616486
v 19.55123 -23.53681 -0.5839107
v 18.11087 -24.92438 -0.5839128
v 18.14463 -22.09632 -0.6085765
v 16.72317 -23.50324 -0.608577
v 16.71983 -20.67506 -0.6338461
v 15.31629 -22.09986 -0.6338456
v 15.27726 -19.27203 -0.6581398
v 13.89165 -20.71428 -0.658138
v 13.81736 -17.88648 -0.6801797
v 12.45043 -19.34645 -0.6801775
v 12.33785 -16.52054 -0.6983154
v 10.99113 -17.99917 -0.6983109
v 10.83815 -15.17479 -0.7111563
v 9.513861 -16.67354 -0.7111498
v 9.316032 -13.85163 -0.7168869
v 8.017241 -15.37254 -0.716878
v 7.768425 -12.5547 -0.7131583
v 6.499164 -14.10034 -0.7131462
v 6.192079 -11.28852 -0.6971281
v 4.957206 -12.86177 -0.6971099
v 4.584609 -10.05811 -0.665653
v 3.38895 -11.66135 -0.6656293
v 2.946126 -8.868217 -0.6156419
v 1.792078 -10.50167 -0.6156222
v 1.281925 -7.721939 -0.5446675
v 0.1642949 -9.380524 -0.5446526
v -0.3916733 -6.611014 -0.4552794
v -1.491354 -8.281553 -0.455278
v -2.053226 -5.513893 -0.3557357
v -3.163612 -7.177336 -0.3557339
v -3.686528 -4.401422 -0.2578884
v -4.832181 -6.040775 -0.2578757
v -5.286 -3.251022 -0.1716674
v -6.476772 -4.857902 -0.1716485
v -6.85375 -2.055621 -0.1013637
v -8.087704 -3.629585 -0.1013469
v -8.393368 -0.8172555 -0.04760643
v -9.66371 -2.361998 -0.04758775
v -9.970396 0.5057092 -0.006398472
v -11.27132 -1.01337 -0.006388844
v -11.45335 1.771721 0.02637741
v -12.75964 0.2572503 0.02637782

vn 0.006488233 -0.007004391 -0.9999544
vn 0.006488233 -0.007004391 -0.9999544
vn 0.007075626 -0.007539998 -0.9999465
vn 0.007075626 -0.007539998 -0.9999465
vn 0.008139804 -0.008449427 -0.9999312
vn 0.008139804 -0.008449427 -0.9999312
vn 0.008780642 -0.008873363 -0.9999221
vn 0.008780642 -0.008873363 -0.9999221
vn 0.008825389 -0.008696896 -0.9999232
vn 0.008825389 -0.008696896 -0.9999232
vn 0.008350604 -0.008027217 -0.9999329
vn 0.008350604 -0.008027217 -0.9999329
vn 0.007327762 -0.006868474 -0.9999496
vn 0.007327762 -0.006868474 -0.9999496
vn 0.00571873 -0.005221019 -0.99997
vn 0.00571873 -0.005221019 -0.99997
vn 0.003468637 -0.003085416 -0.9999892
vn 0.003468637 -0.003085416 -0.9999892
vn 0.0003634328 -0.000344067 -0.9999999
vn 0.0003634328 -0.000344067 -0.9999999
vn -0.003844737 0.003103413 -0.9999878
vn -0.003844737 0.003103413 -0.9999878
vn -0.009381451 0.007284937 -0.9999294
vn -0.009381451 0.007284937 -0.9999294
vn -0.0163747 0.0121192 -0.9997925
vn -0.0163747 0.0121192 -0.9997925
vn -0.02472822 0.01741519 -0.9995425
vn -0.02472822 0.01741519 -0.9995425
vn -0.03320637 0.02245968 -0.9991961
vn -0.03320637 0.02245968 -0.9991961
vn -0.03934228 0.02613517 -0.9988839
vn -0.03934228 0.02613517 -0.9988839
vn -0.04094502 0.02754705 -0.9987816
vn -0.04094502 0.02754705 -0.9987816
vn -0.03770149 0.02638729 -0.9989406
vn -0.03770149 0.02638729 -0.9989406
vn -0.03148052 0.02324214 -0.9992341
vn -0.03148052 0.02324214 -0.9992341
vn -0.02446384 0.01906391 -0.9995189
vn -0.02446384 0.01906391 -0.9995189
vn -0.01807608 0.01477984 -0.9997274
vn -0.01807608 0.01477984 -0.9997274
vn -0.01395502 0.01183391 -0.9998326
vn -0.01395502 0.01183391 -0.9998326
vn -0.01272308 0.01093163 -0.9998593
vn -0.01272308 0.01093163 -0.9998593

vt 0 0
vt 0 0
vt 0 0
vt 0 0
vt 0 0
vt 0 0
vt 0 0
vt 0 0
vt 0 0
vt 0 0
vt 0 0
vt 0 0
vt 0 0
vt 0 0
vt 0 0
vt 0 0
vt 0 0
vt 0 0
vt 0 0
vt 0 0
vt 0 0
vt 0 0
vt 0 0
vt 0 0
vt 0 0
vt 0 0
vt 0 0
vt 0 0
vt 0 0
vt 0 0
vt 0 0
vt 0 0
vt 0 0
vt 0 0
vt 0 0
vt 0 0
vt 0 0
vt 0 0
vt 0 0
vt 0 0
vt 0 0
vt 0 0
vt 0 0
vt 0 0
vt 0 0
vt 0 0
f 1/1/1 3/3/3 2/2/2
f 1/1/1 4/4/4 3/3/3
f 4/4/4 5/5/5 3/3/3
f 4/4/4 6/6/6 5/5/5
f 6/6/6 7/7/7 5/5/5
f 6/6/6 8/8/8 7/7/7
f 8/8/8 9/9/9 7/7/7
f 8/8/8 10/10/10 9/9/9
f 10/10/10 11/11/11 9/9/9
f 10/10/10 12/12/12 11/11/11
f 12/12/12 13/13/13 11/11/11
f 12/12/12 14/14/14 13/13/13
f 14/14/14 15/15/15 13/13/13
f 14/14/14 16/16/16 15/15/15
f 16/16/16 17/17/17 15/15/15
f 16/16/16 18/18/18 17/17/17
f 18/18/18 19/19/19 17/17/17
f 18/18/18 20/20/20 19/19/19
f 20/20/20 21/21/21 19/19/19
f 20/20/20 22/22/22 21/21/21
f 22/22/22 23/23/23 21/21/21
f 22/22/22 24/24/24 23/23/23
f 24/24/24 25/25/25 23/23/23
f 24/24/24 26/26/26 25/25/25
f 26/26/26 27/27/27 25/25/25
f 26/26/26 28/28/28 27/27/27
f 28/28/28 29/29/29 27/27/27
f 28/28/28 30/30/30 29/29/29
f 30/30/30 31/31/31 29/29/29
f 30/30/30 32/32/32 31/31/31
f 32/32/32 33/33/33 31/31/31
f 32/32/32 34/34/34 33/33/33
f 34/34/34 35/35/35 33/33/33
f 34/34/34 36/36/36 35/35/35
f 36/36/36 37/37/37 35/35/35
f 36/36/36 38/38/38 37/37/37
f 38/38/38 39/39/39 37/37/37
f 38/38/38 40/40/40 39/39/39
f 40/40/40 41/41/41 39/39/39
f 40/40/40 42/42/42 41/41/41
f 42/42/42 43/43/43 41/41/41
f 42/42/42 44/44/44 43/43/43
f 44/44/44 45/45/45 43/43/43
f 44/44/44 46/46/46 45/45/45
