mtllib Plane.003.mtl
usemtl Plane.003

g Plane.003
v 15.93722 26.15385 -2.692104
v 12.29009 26.58702 -2.692104
v 11.7963 25.65341 -2.703622
v 15.34158 25.02285 -2.704042
v 11.10762 24.82296 -2.65691
v 14.4072 23.88508 -2.658084
v 10.18613 24.03166 -2.555984
v 13.22767 22.87038 -2.556493
v 9.065412 23.27383 -2.414416
v 11.89066 21.96529 -2.414596
v 7.802523 22.54691 -2.247164
v 10.46467 21.14377 -2.247251
v 6.444739 21.84341 -2.065364
v 8.990769 20.37982 -2.065396
v 5.021999 21.15592 -1.875979
v 7.491413 19.65516 -1.875985
v 3.555907 20.47715 -1.684011
v 5.981131 18.95589 -1.684009
v 2.06245 19.80049 -1.493215
v 4.470195 18.27129 -1.493214
v 0.553992 19.11982 -1.30671
v 2.966914 17.59296 -1.306714
v -0.9587395 18.42974 -1.127006
v 1.478217 16.91386 -1.127019
v -2.466698 17.72576 -0.9561467
v 0.01008697 16.2285 -0.9561731
v -3.961736 17.00392 -0.7959702
v -1.431778 15.53236 -0.796012
v -5.436065 16.26085 -0.648124
v -2.841824 14.82172 -0.6481798
v -6.88203 15.49378 -0.5140643
v -4.214627 14.0935 -0.5141296
v -8.292087 14.70063 -0.3950269
v -5.544932 13.34527 -0.3950963
v -9.658909 13.88011 -0.2919651
v -6.827841 12.57518 -0.2920335
v -10.97565 13.03184 -0.2054698
v -8.059052 11.78206 -0.2055324
v -12.23633 12.15636 -0.1356801
v -9.235166 10.96536 -0.135735
v -13.43603 11.25513 -0.08225904
v -10.35378 10.12503 -0.08230941
v -14.57206 10.33066 -0.04413791
v -11.41454 9.261769 -0.04418402
v -15.64416 9.386257 -0.01956186
v -12.41912 8.376801 -0.01959837
v -16.65424 8.425699 -0.006177881
v -13.37098 7.471552 -0.006201336
v -17.60694 7.453181 -0.0009221906
v -14.27593 6.547703 -0.0009323234
v -18.51221 6.473034 9.388571E-06
v -15.14509 5.606688 9.418373E-06

vn 0.001504409 0.01056654 -0.999943
vn 0.001504409 0.01056654 -0.999943
vn -0.003880176 -0.01442461 -0.9998884
vn -0.003880176 -0.01442461 -0.9998884
vn -0.01808294 -0.05994042 -0.9980382
vn -0.01808294 -0.05994042 -0.9980382
vn -0.03546354 -0.09238202 -0.9950919
vn -0.03546354 -0.09238202 -0.9950919
vn -0.0505224 -0.1097949 -0.9926694
vn -0.0505224 -0.1097949 -0.9926694
vn -0.06128083 -0.1171612 -0.9912204
vn -0.06128083 -0.1171612 -0.9912204
vn -0.06808791 -0.1192641 -0.9905252
vn -0.06808791 -0.1192641 -0.9905252
vn -0.07181695 -0.1188639 -0.9903099
vn -0.07181695 -0.1188639 -0.9903099
vn -0.07311959 -0.117135 -0.9904206
vn -0.07311959 -0.117135 -0.9904206
vn -0.07246859 -0.1145663 -0.9907688
vn -0.07246859 -0.1145663 -0.9907688
vn -0.07022551 -0.1113388 -0.9912982
vn -0.07022551 -0.1113388 -0.9912982
vn -0.06672101 -0.1075306 -0.9919604
vn -0.06672101 -0.1075306 -0.9919604
vn -0.06220265 -0.1030823 -0.992726
vn -0.06220265 -0.1030823 -0.992726
vn -0.05685731 -0.09785724 -0.993575
vn -0.05685731 -0.09785724 -0.993575
vn -0.05086763 -0.09172359 -0.9944844
vn -0.05086763 -0.09172359 -0.9944844
vn -0.04442269 -0.08457197 -0.9954267
vn -0.04442269 -0.08457197 -0.9954267
vn -0.0377279 -0.07634748 -0.9963673
vn -0.0377279 -0.07634748 -0.9963673
vn -0.03100734 -0.06708299 -0.9972655
vn -0.03100734 -0.06708299 -0.9972655
vn -0.02449713 -0.05692779 -0.9980777
vn -0.02449713 -0.05692779 -0.9980777
vn -0.01842265 -0.04614373 -0.9987649
vn -0.01842265 -0.04614373 -0.9987649
vn -0.01300748 -0.03518365 -0.9992962
vn -0.01300748 -0.03518365 -0.9992962
vn -0.008445724 -0.02467009 -0.99966
vn -0.008445724 -0.02467009 -0.99966
vn -0.004845825 -0.01524738 -0.999872
vn -0.004845825 -0.01524738 -0.999872
vn -0.002260898 -0.00761808 -0.9999684
vn -0.002260898 -0.00761808 -0.9999684
vn -0.0007179545 -0.00256503 -0.9999964
vn -0.0007179545 -0.00256503 -0.9999964
vn -0.0002085041 -0.0007825177 -0.9999996
vn -0.0002085041 -0.0007825177 -0.9999996

vt 0 0
vt 0 0
vt 0 0
vt 0 0
vt 0 0
vt 0 0
vt 0 0
vt 0 0
vt 0 0
vt 0 0
vt 0 0
vt 0 0
vt 0 0
vt 0 0
vt 0 0
vt 0 0
vt 0 0
vt 0 0
vt 0 0
vt 0 0
vt 0 0
vt 0 0
vt 0 0
vt 0 0
vt 0 0
vt 0 0
vt 0 0
vt 0 0
vt 0 0
vt 0 0
vt 0 0
vt 0 0
vt 0 0
vt 0 0
vt 0 0
vt 0 0
vt 0 0
vt 0 0
vt 0 0
vt 0 0
vt 0 0
vt 0 0
vt 0 0
vt 0 0
vt 0 0
vt 0 0
vt 0 0
vt 0 0
vt 0 0
vt 0 0
vt 0 0
vt 0 0
f 1/1/1 3/3/3 2/2/2
f 1/1/1 4/4/4 3/3/3
f 4/4/4 5/5/5 3/3/3
f 4/4/4 6/6/6 5/5/5
f 6/6/6 7/7/7 5/5/5
f 6/6/6 8/8/8 7/7/7
f 8/8/8 9/9/9 7/7/7
f 8/8/8 10/10/10 9/9/9
f 10/10/10 11/11/11 9/9/9
f 10/10/10 12/12/12 11/11/11
f 12/12/12 13/13/13 11/11/11
f 12/12/12 14/14/14 13/13/13
f 14/14/14 15/15/15 13/13/13
f 14/14/14 16/16/16 15/15/15
f 16/16/16 17/17/17 15/15/15
f 16/16/16 18/18/18 17/17/17
f 18/18/18 19/19/19 17/17/17
f 18/18/18 20/20/20 19/19/19
f 20/20/20 21/21/21 19/19/19
f 20/20/20 22/22/22 21/21/21
f 22/22/22 23/23/23 21/21/21
f 22/22/22 24/24/24 23/23/23
f 24/24/24 25/25/25 23/23/23
f 24/24/24 26/26/26 25/25/25
f 26/26/26 27/27/27 25/25/25
f 26/26/26 28/28/28 27/27/27
f 28/28/28 29/29/29 27/27/27
f 28/28/28 30/30/30 29/29/29
f 30/30/30 31/31/31 29/29/29
f 30/30/30 32/32/32 31/31/31
f 32/32/32 33/33/33 31/31/31
f 32/32/32 34/34/34 33/33/33
f 34/34/34 35/35/35 33/33/33
f 34/34/34 36/36/36 35/35/35
f 36/36/36 37/37/37 35/35/35
f 36/36/36 38/38/38 37/37/37
f 38/38/38 39/39/39 37/37/37
f 38/38/38 40/40/40 39/39/39
f 40/40/40 41/41/41 39/39/39
f 40/40/40 42/42/42 41/41/41
f 42/42/42 43/43/43 41/41/41
f 42/42/42 44/44/44 43/43/43
f 44/44/44 45/45/45 43/43/43
f 44/44/44 46/46/46 45/45/45
f 46/46/46 47/47/47 45/45/45
f 46/46/46 48/48/48 47/47/47
f 48/48/48 49/49/49 47/47/47
f 48/48/48 50/50/50 49/49/49
f 50/50/50 51/51/51 49/49/49
f 50/50/50 52/52/52 51/51/51
