mtllib Plane.007.mtl
usemtl Plane.007

g Plane.007
v 118.7259 14.59371 -4.643605
v 118.0158 16.52387 -4.644057
v 115.595 16.20587 -4.642698
v 116.7969 14.30627 -4.642462
v 113.6523 15.85255 -4.601975
v 114.9673 13.97335 -4.601847
v 111.7547 15.48179 -4.529318
v 113.1296 13.61425 -4.529269
v 109.8871 15.10439 -4.429673
v 111.2857 13.2416 -4.429664
v 108.0387 14.72774 -4.307024
v 109.4354 12.86456 -4.307031
v 106.2015 14.35696 -4.164632
v 107.5782 12.48976 -4.164648
v 104.37 13.99562 -4.005219
v 105.7136 12.12191 -4.005241
v 102.5401 13.64618 -3.831095
v 103.8412 11.76437 -3.831122
v 100.709 13.31032 -3.64426
v 101.961 11.41948 -3.64429
v 98.87495 12.98907 -3.446477
v 100.0731 11.08881 -3.446507
v 97.03651 12.68305 -3.23932
v 98.1779 10.77335 -3.239346
v 95.19276 12.3925 -3.024227
v 96.27598 10.47364 -3.024246
v 93.34303 12.11739 -2.802509
v 94.36794 10.18987 -2.802521
v 91.48653 11.85812 -2.575249
v 92.45431 9.922613 -2.575259
v 89.62302 11.6137 -2.343919
v 90.53611 9.671005 -2.343927
v 87.75238 11.38277 -2.109897
v 88.61439 9.433762 -2.109901
v 85.87429 11.16415 -1.874428
v 86.6901 9.209762 -1.874428
v 83.98836 10.95635 -1.638811
v 84.76434 8.99757 -1.638808
v 82.09386 10.75756 -1.404523
v 82.83831 8.795465 -1.40452
v 80.18984 10.56523 -1.173344
v 80.91364 8.601041 -1.173341
v 78.27562 10.37572 -0.9470796
v 78.99221 8.410814 -0.9470797
v 76.34985 10.18476 -0.7279568
v 77.07668 8.220881 -0.7279666
v 74.41064 9.98667 -0.5187938
v 75.17085 8.026213 -0.5188259
v 72.4556 9.773528 -0.3232868
v 73.28069 7.820193 -0.3233599
v 70.48182 9.534081 -0.1464447
v 71.41595 7.594098 -0.1465872
v 68.41819 9.256964 0.007255067
v 69.2898 7.338828 0.007255186

vn -0.000514553 -0.000436448 -0.9999998
vn -0.000514553 -0.000436448 -0.9999998
vn -0.00986327 -0.006664643 -0.9999291
vn -0.00986327 -0.006664643 -0.9999291
vn -0.02663665 -0.01869727 -0.9994703
vn -0.02663665 -0.01869727 -0.9994703
vn -0.04032671 -0.02957911 -0.9987486
vn -0.04032671 -0.02957911 -0.9987486
vn -0.0519837 -0.03884934 -0.997892
vn -0.0519837 -0.03884934 -0.997892
vn -0.06208603 -0.04634743 -0.9969941
vn -0.06208603 -0.04634743 -0.9969941
vn -0.07095394 -0.05213044 -0.9961165
vn -0.07095394 -0.05213044 -0.9961165
vn -0.07880141 -0.05634397 -0.9952968
vn -0.07880141 -0.05634397 -0.9952968
vn -0.08577081 -0.05916367 -0.9945567
vn -0.08577081 -0.05916367 -0.9945567
vn -0.09195706 -0.06076952 -0.9939069
vn -0.09195706 -0.06076952 -0.9939069
vn -0.0974251 -0.06133661 -0.993351
vn -0.0974251 -0.06133661 -0.993351
vn -0.102217 -0.06103019 -0.9928882
vn -0.102217 -0.06103019 -0.9928882
vn -0.1063635 -0.06000813 -0.9925149
vn -0.1063635 -0.06000813 -0.9925149
vn -0.1099238 -0.05844174 -0.9922204
vn -0.1099238 -0.05844174 -0.9922204
vn -0.112833 -0.05643829 -0.9920098
vn -0.112833 -0.05643829 -0.9920098
vn -0.1149927 -0.05409341 -0.9918924
vn -0.1149927 -0.05409341 -0.9918924
vn -0.1164405 -0.05157123 -0.9918579
vn -0.1164405 -0.05157123 -0.9918579
vn -0.1171825 -0.0490156 -0.9919001
vn -0.1171825 -0.0490156 -0.9919001
vn -0.1171464 -0.04654268 -0.9920234
vn -0.1171464 -0.04654268 -0.9920234
vn -0.1161995 -0.0442628 -0.9922391
vn -0.1161995 -0.0442628 -0.9922391
vn -0.1142487 -0.04230895 -0.9925508
vn -0.1142487 -0.04230895 -0.9925508
vn -0.1111729 -0.04079843 -0.9929633
vn -0.1111729 -0.04079843 -0.9929633
vn -0.106707 -0.03979748 -0.9934937
vn -0.106707 -0.03979748 -0.9934937
vn -0.1004683 -0.03931676 -0.9941631
vn -0.1004683 -0.03931676 -0.9941631
vn -0.0918975 -0.03921711 -0.9949959
vn -0.0918975 -0.03921711 -0.9949959
vn -0.07801842 -0.03576605 -0.9963101
vn -0.07801842 -0.03576605 -0.9963101
vn -0.06908526 -0.03229763 -0.9970878
vn -0.06908526 -0.03229763 -0.9970878

vt 0 0
vt 0 0
vt 0 0
vt 0 0
vt 0 0
vt 0 0
vt 0 0
vt 0 0
vt 0 0
vt 0 0
vt 0 0
vt 0 0
vt 0 0
vt 0 0
vt 0 0
vt 0 0
vt 0 0
vt 0 0
vt 0 0
vt 0 0
vt 0 0
vt 0 0
vt 0 0
vt 0 0
vt 0 0
vt 0 0
vt 0 0
vt 0 0
vt 0 0
vt 0 0
vt 0 0
vt 0 0
vt 0 0
vt 0 0
vt 0 0
vt 0 0
vt 0 0
vt 0 0
vt 0 0
vt 0 0
vt 0 0
vt 0 0
vt 0 0
vt 0 0
vt 0 0
vt 0 0
vt 0 0
vt 0 0
vt 0 0
vt 0 0
vt 0 0
vt 0 0
vt 0 0
vt 0 0
f 1/1/1 3/3/3 2/2/2
f 1/1/1 4/4/4 3/3/3
f 4/4/4 5/5/5 3/3/3
f 4/4/4 6/6/6 5/5/5
f 6/6/6 7/7/7 5/5/5
f 6/6/6 8/8/8 7/7/7
f 8/8/8 9/9/9 7/7/7
f 8/8/8 10/10/10 9/9/9
f 10/10/10 11/11/11 9/9/9
f 10/10/10 12/12/12 11/11/11
f 12/12/12 13/13/13 11/11/11
f 12/12/12 14/14/14 13/13/13
f 14/14/14 15/15/15 13/13/13
f 14/14/14 16/16/16 15/15/15
f 16/16/16 17/17/17 15/15/15
f 16/16/16 18/18/18 17/17/17
f 18/18/18 19/19/19 17/17/17
f 18/18/18 20/20/20 19/19/19
f 20/20/20 21/21/21 19/19/19
f 20/20/20 22/22/22 21/21/21
f 22/22/22 23/23/23 21/21/21
f 22/22/22 24/24/24 23/23/23
f 24/24/24 25/25/25 23/23/23
f 24/24/24 26/26/26 25/25/25
f 26/26/26 27/27/27 25/25/25
f 26/26/26 28/28/28 27/27/27
f 28/28/28 29/29/29 27/27/27
f 28/28/28 30/30/30 29/29/29
f 30/30/30 31/31/31 29/29/29
f 30/30/30 32/32/32 31/31/31
f 32/32/32 33/33/33 31/31/31
f 32/32/32 34/34/34 33/33/33
f 34/34/34 35/35/35 33/33/33
f 34/34/34 36/36/36 35/35/35
f 36/36/36 37/37/37 35/35/35
f 36/36/36 38/38/38 37/37/37
f 38/38/38 39/39/39 37/37/37
f 38/38/38 40/40/40 39/39/39
f 40/40/40 41/41/41 39/39/39
f 40/40/40 42/42/42 41/41/41
f 42/42/42 43/43/43 41/41/41
f 42/42/42 44/44/44 43/43/43
f 44/44/44 45/45/45 43/43/43
f 44/44/44 46/46/46 45/45/45
f 46/46/46 47/47/47 45/45/45
f 46/46/46 48/48/48 47/47/47
f 48/48/48 49/49/49 47/47/47
f 48/48/48 50/50/50 49/49/49
f 50/50/50 51/51/51 49/49/49
f 50/50/50 52/52/52 51/51/51
f 52/52/52 53/53/53 51/51/51
f 52/52/52 54/54/54 53/53/53
