mtllib Plane.008.mtl
usemtl Plane.008

g Plane.008
v 166.2974 7.290298 -4.539034
v 161.9167 6.909208 -4.536027
v 162.297 5.946246 -4.777548
v 166.8051 6.271959 -4.781174
v 162.4667 5.201985 -4.75036
v 167.0318 5.285241 -4.753182
v 162.4422 4.443762 -4.695287
v 167.0003 4.304859 -4.697335
v 162.2287 3.683148 -4.616581
v 166.7309 3.342084 -4.6181
v 161.8411 2.929232 -4.518884
v 166.25 2.404219 -4.520073
v 161.3 2.188638 -4.406744
v 165.5862 1.495851 -4.407609
v 160.611 1.467544 -4.282854
v 164.7521 0.6223543 -4.283463
v 159.7862 0.7698392 -4.149934
v 163.765 -0.2134109 -4.150373
v 158.8418 0.09741148 -4.010612
v 162.6455 -1.010702 -4.010913
v 157.7897 -0.5479697 -3.866982
v 161.4093 -1.768542 -3.867146
v 156.6309 -1.162245 -3.720528
v 160.0619 -2.483059 -3.720586
v 155.3766 -1.745211 -3.572771
v 158.6177 -3.154943 -3.572762
v 154.0411 -2.298197 -3.425067
v 157.0931 -3.786597 -3.425007
v 152.6332 -2.821709 -3.278405
v 155.4991 -4.379368 -3.278309
v 151.1595 -3.316008 -3.133597
v 153.8444 -4.934285 -3.133483
v 149.6264 -3.781493 -2.991337
v 152.137 -5.452512 -2.991222
v 148.0384 -4.218151 -2.852316
v 150.3831 -5.934726 -2.852204
v 146.4 -4.626153 -2.717145
v 148.5886 -6.381786 -2.71702
v 144.7193 -5.008272 -2.585988
v 146.7615 -6.797393 -2.585853
v 143.0023 -5.366619 -2.459003
v 144.9078 -7.184404 -2.458866
v 141.2531 -5.702624 -2.336363
v 143.0318 -7.544858 -2.336229
v 139.4753 -6.017801 -2.21818
v 141.1372 -7.880814 -2.218053
v 137.6725 -6.313705 -2.104517
v 139.2275 -8.194319 -2.104399
v 135.8475 -6.591926 -1.995391
v 137.3054 -8.487394 -1.995286
v 134.0031 -6.854056 -1.890791
v 135.3733 -8.762009 -1.890699
v 132.1415 -7.101694 -1.790673
v 133.4334 -9.020091 -1.790594
v 130.2649 -7.336405 -1.694973
v 131.4874 -9.263489 -1.694909
v 128.375 -7.559732 -1.603613
v 129.5369 -9.493983 -1.603563
v 126.4733 -7.77308 -1.516567
v 127.5833 -9.713166 -1.51653
v 124.5609 -7.97774 -1.433884
v 125.6276 -9.922468 -1.433854
v 122.639 -8.175263 -1.355533
v 123.6712 -10.12356 -1.355507
v 120.709 -8.367421 -1.28131
v 121.7149 -10.31836 -1.281288
v 118.7723 -8.555923 -1.210974
v 119.7597 -10.50866 -1.210958
v 116.8297 -8.742222 -1.144394
v 117.8063 -10.696 -1.144386
v 114.882 -8.927702 -1.081455
v 115.8556 -10.88177 -1.081455
v 112.9301 -9.113717 -1.022044
v 113.9081 -11.06737 -1.022053
v 110.9747 -9.301586 -0.966051
v 111.9646 -11.25409 -0.9660665
v 109.0165 -9.492636 -0.913386
v 110.0257 -11.44324 -0.9134054
v 107.0562 -9.688397 -0.8640454
v 108.0924 -11.63629 -0.8640661
v 105.0948 -9.891065 -0.8181685
v 106.1663 -11.83529 -0.8181942
v 103.1333 -10.10266 -0.7757331
v 104.2487 -12.04214 -0.7757701
v 101.1729 -10.32398 -0.7362839
v 102.3401 -12.25763 -0.7363322
v 99.21481 -10.55617 -0.6996185
v 100.4411 -12.48279 -0.6996758
v 97.26009 -10.80048 -0.6656391
v 98.55299 -12.71875 -0.6657
v 95.30996 -11.05815 -0.6342474
v 96.67673 -12.96658 -0.6343058
v 93.36601 -11.33079 -0.6053954
v 94.81398 -13.22771 -0.605445
v 91.43134 -11.62228 -0.5792836
v 92.9687 -13.50567 -0.5793337
v 89.50869 -11.93465 -0.5558137
v 91.14347 -13.80225 -0.555876
v 87.59982 -12.26766 -0.5346013
v 89.33878 -14.11715 -0.5346758
v 85.7065 -12.6214 -0.5154083
v 87.55548 -14.45033 -0.5154877
v 83.8308 -12.99642 -0.4980925
v 85.79494 -14.8022 -0.4981669
v 81.97529 -13.39381 -0.4825666
v 84.05914 -15.1737 -0.4826273
v 80.14506 -13.81636 -0.4688284
v 82.35282 -15.56739 -0.4688765
v 78.34877 -14.26887 -0.4569444
v 80.68426 -15.98786 -0.4569983
v 76.58675 -14.74861 -0.4465441
v 79.05193 -16.43255 -0.4466069
v 74.85802 -15.2522 -0.437281
v 77.45305 -16.89833 -0.4373403
v 73.16468 -15.77944 -0.4290411
v 75.88885 -17.3851 -0.4290874
v 71.51199 -16.33185 -0.4217707
v 74.36373 -17.8945 -0.4218039
v 69.91144 -16.91315 -0.4154217
v 72.88802 -18.43053 -0.4154497
v 68.36438 -17.52151 -0.4097904
v 71.46184 -18.9918 -0.409819
v 66.86074 -18.14991 -0.4045834
v 70.07428 -19.57166 -0.4046058
v 65.22524 -18.86663 -0.3991189
v 68.56644 -20.23084 -0.3991276
v 63.95694 -19.44253 -0.3949013
v 67.34127 -20.78622 -0.3949013
v 62.53323 -20.0836 -0.3900513
v 65.91757 -21.42728 -0.3900513

vn -0.01894224 0.2290865 -0.9732217
vn -0.01894224 0.2290865 -0.9732217
vn -0.009191664 0.09955787 -0.9949893
vn -0.009191664 0.09955787 -0.9949893
vn -0.0001012985 -0.04767458 -0.9988629
vn -0.0001012985 -0.04767458 -0.9988629
vn -0.003036128 -0.07674149 -0.9970464
vn -0.003036128 -0.07674149 -0.9970464
vn -0.008042167 -0.09960973 -0.9949941
vn -0.008042167 -0.09960973 -0.9949941
vn -0.01415939 -0.115922 -0.9931574
vn -0.01415939 -0.115922 -0.9931574
vn -0.02074555 -0.1267988 -0.9917115
vn -0.02074555 -0.1267988 -0.9917115
vn -0.02738013 -0.1333516 -0.9906905
vn -0.02738013 -0.1333516 -0.9906905
vn -0.03368011 -0.1359036 -0.9901494
vn -0.03368011 -0.1359036 -0.9901494
vn -0.0394153 -0.1351642 -0.9900389
vn -0.0394153 -0.1351642 -0.9900389
vn -0.04450283 -0.1320315 -0.9902461
vn -0.04450283 -0.1320315 -0.9902461
vn -0.04884813 -0.1270626 -0.9906911
vn -0.04884813 -0.1270626 -0.9906911
vn -0.05237221 -0.1206378 -0.9913141
vn -0.05237221 -0.1206378 -0.9913141
vn -0.05511121 -0.1132721 -0.9920344
vn -0.05511121 -0.1132721 -0.9920344
vn -0.05712508 -0.1053896 -0.9927889
vn -0.05712508 -0.1053896 -0.9927889
vn -0.0584626 -0.09728604 -0.9935379
vn -0.0584626 -0.09728604 -0.9935379
vn -0.05915699 -0.0891684 -0.9942582
vn -0.05915699 -0.0891684 -0.9942582
vn -0.05923955 -0.08119944 -0.9949359
vn -0.05923955 -0.08119944 -0.9949359
vn -0.05884686 -0.0736199 -0.9955487
vn -0.05884686 -0.0736199 -0.9955487
vn -0.05811656 -0.06658115 -0.996087
vn -0.05811656 -0.06658115 -0.996087
vn -0.05708668 -0.06007141 -0.9965603
vn -0.05708668 -0.06007141 -0.9965603
vn -0.05579863 -0.05408932 -0.9969758
vn -0.05579863 -0.05408932 -0.9969758
vn -0.05430731 -0.04864248 -0.9973388
vn -0.05430731 -0.04864248 -0.9973388
vn -0.05266017 -0.04372194 -0.9976549
vn -0.05266017 -0.04372194 -0.9976549
vn -0.05089816 -0.03930772 -0.99793
vn -0.05089816 -0.03930772 -0.99793
vn -0.04905647 -0.03537311 -0.9981695
vn -0.04905647 -0.03537311 -0.9981695
vn -0.04716332 -0.03188569 -0.9983781
vn -0.04716332 -0.03188569 -0.9983781
vn -0.04524153 -0.02881006 -0.9985605
vn -0.04524153 -0.02881006 -0.9985605
vn -0.04329415 -0.02610264 -0.9987213
vn -0.04329415 -0.02610264 -0.9987213
vn -0.04129952 -0.0237128 -0.9988654
vn -0.04129952 -0.0237128 -0.9988654
vn -0.03926543 -0.02161226 -0.9989951
vn -0.03926543 -0.02161226 -0.9989951
vn -0.03725993 -0.01980298 -0.9991094
vn -0.03725993 -0.01980298 -0.9991094
vn -0.03534054 -0.0182749 -0.9992082
vn -0.03534054 -0.0182749 -0.9992082
vn -0.03349397 -0.01698262 -0.9992946
vn -0.03349397 -0.01698262 -0.9992946
vn -0.03169334 -0.01588145 -0.9993715
vn -0.03169334 -0.01588145 -0.9993715
vn -0.02993729 -0.01494527 -0.9994401
vn -0.02993729 -0.01494527 -0.9994401
vn -0.02822636 -0.01415184 -0.9995013
vn -0.02822636 -0.01415184 -0.9995013
vn -0.02655645 -0.01347877 -0.9995564
vn -0.02655645 -0.01347877 -0.9995564
vn -0.02490281 -0.0128951 -0.9996067
vn -0.02490281 -0.0128951 -0.9996067
vn -0.02320952 -0.01235456 -0.9996543
vn -0.02320952 -0.01235456 -0.9996543
vn -0.02148167 -0.01184165 -0.9996991
vn -0.02148167 -0.01184165 -0.9996991
vn -0.01986715 -0.01141917 -0.9997374
vn -0.01986715 -0.01141917 -0.9997374
vn -0.01841106 -0.01109742 -0.9997689
vn -0.01841106 -0.01109742 -0.9997689
vn -0.01702628 -0.01081527 -0.9997966
vn -0.01702628 -0.01081527 -0.9997966
vn -0.01568772 -0.01054707 -0.9998213
vn -0.01568772 -0.01054707 -0.9998213
vn -0.01438387 -0.01027415 -0.9998438
vn -0.01438387 -0.01027415 -0.9998438
vn -0.01304338 -0.009929447 -0.9998656
vn -0.01304338 -0.009929447 -0.9998656
vn -0.01168028 -0.009504038 -0.9998866
vn -0.01168028 -0.009504038 -0.9998866
vn -0.01043799 -0.00909939 -0.9999041
vn -0.01043799 -0.00909939 -0.9999041
vn -0.009350166 -0.008746599 -0.999918
vn -0.009350166 -0.008746599 -0.999918
vn -0.008358271 -0.008400946 -0.9999298
vn -0.008358271 -0.008400946 -0.9999298
vn -0.007426539 -0.008029456 -0.9999402
vn -0.007426539 -0.008029456 -0.9999402
vn -0.006523915 -0.007593599 -0.9999499
vn -0.006523915 -0.007593599 -0.9999499
vn -0.005618805 -0.007041449 -0.9999594
vn -0.005618805 -0.007041449 -0.9999594
vn -0.004797042 -0.006473689 -0.9999675
vn -0.004797042 -0.006473689 -0.9999675
vn -0.004149502 -0.006028789 -0.9999732
vn -0.004149502 -0.006028789 -0.9999732
vn -0.003614283 -0.005652854 -0.9999775
vn -0.003614283 -0.005652854 -0.9999775
vn -0.003125294 -0.005262825 -0.9999813
vn -0.003125294 -0.005262825 -0.9999813
vn -0.002670394 -0.004839444 -0.9999847
vn -0.002670394 -0.004839444 -0.9999847
vn -0.002280148 -0.00444369 -0.9999875
vn -0.002280148 -0.00444369 -0.9999875
vn -0.0019988 -0.004186194 -0.9999892
vn -0.0019988 -0.004186194 -0.9999892
vn -0.001803146 -0.004066873 -0.9999901
vn -0.001803146 -0.004066873 -0.9999901
vn -0.001655149 -0.003991247 -0.9999906
vn -0.001655149 -0.003991247 -0.9999906
vn -0.001594568 -0.003986736 -0.9999908
vn -0.001594568 -0.003986736 -0.9999908
vn -0.001596253 -0.004020486 -0.9999906
vn -0.001596253 -0.004020486 -0.9999906

vt 0 0
vt 0 0
vt 0 0
vt 0 0
vt 0 0
vt 0 0
vt 0 0
vt 0 0
vt 0 0
vt 0 0
vt 0 0
vt 0 0
vt 0 0
vt 0 0
vt 0 0
vt 0 0
vt 0 0
vt 0 0
vt 0 0
vt 0 0
vt 0 0
vt 0 0
vt 0 0
vt 0 0
vt 0 0
vt 0 0
vt 0 0
vt 0 0
vt 0 0
vt 0 0
vt 0 0
vt 0 0
vt 0 0
vt 0 0
vt 0 0
vt 0 0
vt 0 0
vt 0 0
vt 0 0
vt 0 0
vt 0 0
vt 0 0
vt 0 0
vt 0 0
vt 0 0
vt 0 0
vt 0 0
vt 0 0
vt 0 0
vt 0 0
vt 0 0
vt 0 0
vt 0 0
vt 0 0
vt 0 0
vt 0 0
vt 0 0
vt 0 0
vt 0 0
vt 0 0
vt 0 0
vt 0 0
vt 0 0
vt 0 0
vt 0 0
vt 0 0
vt 0 0
vt 0 0
vt 0 0
vt 0 0
vt 0 0
vt 0 0
vt 0 0
vt 0 0
vt 0 0
vt 0 0
vt 0 0
vt 0 0
vt 0 0
vt 0 0
vt 0 0
vt 0 0
vt 0 0
vt 0 0
vt 0 0
vt 0 0
vt 0 0
vt 0 0
vt 0 0
vt 0 0
vt 0 0
vt 0 0
vt 0 0
vt 0 0
vt 0 0
vt 0 0
vt 0 0
vt 0 0
vt 0 0
vt 0 0
vt 0 0
vt 0 0
vt 0 0
vt 0 0
vt 0 0
vt 0 0
vt 0 0
vt 0 0
vt 0 0
vt 0 0
vt 0 0
vt 0 0
vt 0 0
vt 0 0
vt 0 0
vt 0 0
vt 0 0
vt 0 0
vt 0 0
vt 0 0
vt 0 0
vt 0 0
vt 0 0
vt 0 0
vt 0 0
vt 0 0
vt 0 0
vt 0 0
vt 0 0
vt 0 0
f 1/1/1 3/3/3 2/2/2
f 1/1/1 4/4/4 3/3/3
f 4/4/4 5/5/5 3/3/3
f 4/4/4 6/6/6 5/5/5
f 6/6/6 7/7/7 5/5/5
f 6/6/6 8/8/8 7/7/7
f 8/8/8 9/9/9 7/7/7
f 8/8/8 10/10/10 9/9/9
f 10/10/10 11/11/11 9/9/9
f 10/10/10 12/12/12 11/11/11
f 12/12/12 13/13/13 11/11/11
f 12/12/12 14/14/14 13/13/13
f 14/14/14 15/15/15 13/13/13
f 14/14/14 16/16/16 15/15/15
f 16/16/16 17/17/17 15/15/15
f 16/16/16 18/18/18 17/17/17
f 18/18/18 19/19/19 17/17/17
f 18/18/18 20/20/20 19/19/19
f 20/20/20 21/21/21 19/19/19
f 20/20/20 22/22/22 21/21/21
f 22/22/22 23/23/23 21/21/21
f 22/22/22 24/24/24 23/23/23
f 24/24/24 25/25/25 23/23/23
f 24/24/24 26/26/26 25/25/25
f 26/26/26 27/27/27 25/25/25
f 26/26/26 28/28/28 27/27/27
f 28/28/28 29/29/29 27/27/27
f 28/28/28 30/30/30 29/29/29
f 30/30/30 31/31/31 29/29/29
f 30/30/30 32/32/32 31/31/31
f 32/32/32 33/33/33 31/31/31
f 32/32/32 34/34/34 33/33/33
f 34/34/34 35/35/35 33/33/33
f 34/34/34 36/36/36 35/35/35
f 36/36/36 37/37/37 35/35/35
f 36/36/36 38/38/38 37/37/37
f 38/38/38 39/39/39 37/37/37
f 38/38/38 40/40/40 39/39/39
f 40/40/40 41/41/41 39/39/39
f 40/40/40 42/42/42 41/41/41
f 42/42/42 43/43/43 41/41/41
f 42/42/42 44/44/44 43/43/43
f 44/44/44 45/45/45 43/43/43
f 44/44/44 46/46/46 45/45/45
f 46/46/46 47/47/47 45/45/45
f 46/46/46 48/48/48 47/47/47
f 48/48/48 49/49/49 47/47/47
f 48/48/48 50/50/50 49/49/49
f 50/50/50 51/51/51 49/49/49
f 50/50/50 52/52/52 51/51/51
f 52/52/52 53/53/53 51/51/51
f 52/52/52 54/54/54 53/53/53
f 54/54/54 55/55/55 53/53/53
f 54/54/54 56/56/56 55/55/55
f 56/56/56 57/57/57 55/55/55
f 56/56/56 58/58/58 57/57/57
f 58/58/58 59/59/59 57/57/57
f 58/58/58 60/60/60 59/59/59
f 60/60/60 61/61/61 59/59/59
f 60/60/60 62/62/62 61/61/61
f 62/62/62 63/63/63 61/61/61
f 62/62/62 64/64/64 63/63/63
f 64/64/64 65/65/65 63/63/63
f 64/64/64 66/66/66 65/65/65
f 66/66/66 67/67/67 65/65/65
f 66/66/66 68/68/68 67/67/67
f 68/68/68 69/69/69 67/67/67
f 68/68/68 70/70/70 69/69/69
f 70/70/70 71/71/71 69/69/69
f 70/70/70 72/72/72 71/71/71
f 72/72/72 73/73/73 71/71/71
f 72/72/72 74/74/74 73/73/73
f 74/74/74 75/75/75 73/73/73
f 74/74/74 76/76/76 75/75/75
f 76/76/76 77/77/77 75/75/75
f 76/76/76 78/78/78 77/77/77
f 78/78/78 79/79/79 77/77/77
f 78/78/78 80/80/80 79/79/79
f 80/80/80 81/81/81 79/79/79
f 80/80/80 82/82/82 81/81/81
f 82/82/82 83/83/83 81/81/81
f 82/82/82 84/84/84 83/83/83
f 84/84/84 85/85/85 83/83/83
f 84/84/84 86/86/86 85/85/85
f 86/86/86 87/87/87 85/85/85
f 86/86/86 88/88/88 87/87/87
f 88/88/88 89/89/89 87/87/87
f 88/88/88 90/90/90 89/89/89
f 90/90/90 91/91/91 89/89/89
f 90/90/90 92/92/92 91/91/91
f 92/92/92 93/93/93 91/91/91
f 92/92/92 94/94/94 93/93/93
f 94/94/94 95/95/95 93/93/93
f 94/94/94 96/96/96 95/95/95
f 96/96/96 97/97/97 95/95/95
f 96/96/96 98/98/98 97/97/97
f 98/98/98 99/99/99 97/97/97
f 98/98/98 100/100/100 99/99/99
f 100/100/100 101/101/101 99/99/99
f 100/100/100 102/102/102 101/101/101
f 102/102/102 103/103/103 101/101/101
f 102/102/102 104/104/104 103/103/103
f 104/104/104 105/105/105 103/103/103
f 104/104/104 106/106/106 105/105/105
f 106/106/106 107/107/107 105/105/105
f 106/106/106 108/108/108 107/107/107
f 108/108/108 109/109/109 107/107/107
f 108/108/108 110/110/110 109/109/109
f 110/110/110 111/111/111 109/109/109
f 110/110/110 112/112/112 111/111/111
f 112/112/112 113/113/113 111/111/111
f 112/112/112 114/114/114 113/113/113
f 114/114/114 115/115/115 113/113/113
f 114/114/114 116/116/116 115/115/115
f 116/116/116 117/117/117 115/115/115
f 116/116/116 118/118/118 117/117/117
f 118/118/118 119/119/119 117/117/117
f 118/118/118 120/120/120 119/119/119
f 120/120/120 121/121/121 119/119/119
f 120/120/120 122/122/122 121/121/121
f 122/122/122 123/123/123 121/121/121
f 122/122/122 124/124/124 123/123/123
f 124/124/124 125/125/125 123/123/123
f 124/124/124 126/126/126 125/125/125
f 126/126/126 127/127/127 125/125/125
f 126/126/126 128/128/128 127/127/127
f 128/128/128 129/129/129 127/127/127
f 128/128/128 130/130/130 129/129/129
