mtllib Icosphere.009.mtl
usemtl Icosphere.009

g Icosphere.009
v -0.08507821 -2.034409 -0.0934639
v 0.8115951 -2.66006 -4.032311
v -1.007391 -1.262815 -0.2636691
v 2.089971 -1.477047 -0.09346324
v 2.147499 -2.185462 -4.129833
v 1.175479 -2.059778 -0.2644884
v 1.856182 0.7820846 -0.09346324
v 3.507784 -0.8555852 -3.465188
v 2.329947 -0.3865725 -0.2636683
v -0.3832881 1.544532 -0.0934639
v 0.4619958 -0.5393163 -3.244355
v 0.8336687 1.401759 -0.2636736
v 3.507784 -0.8555852 -3.465188
v -1.583915 -0.1746312 -0.09345549
v -0.1986852 -1.493062 -3.582274
v -1.177904 0.8328373 -0.2636691
v -1.868072 0.5290027 0.7968236
v -0.1986852 -1.493062 -3.582274
v 3.496922 -3.538804 -9.252592
v 0.4619958 -0.5393163 -3.244355
v -1.177904 0.8328373 -0.2636691
v -1.177904 0.8328373 -0.2636691
v 0.4619958 -0.5393163 -3.244355
v -0.3832881 1.544532 -0.0934639
v 0.4619958 -0.5393163 -3.244355
v 3.496922 -3.538804 -9.252592
v 3.507784 -0.8555852 -3.465188
v 0.8336687 1.401759 -0.2636736
v 3.507784 -0.8555852 -3.465188
v 1.856182 0.7820846 -0.09346324
v 3.507784 -0.8555852 -3.465188
v 3.496922 -3.538804 -9.252592
v 2.147499 -2.185462 -4.129833
v 2.329947 -0.3865725 -0.2636683
v 2.329947 -0.3865725 -0.2636683
v 2.147499 -2.185462 -4.129833
v 2.089971 -1.477047 -0.09346324
v 2.147499 -2.185462 -4.129833
v 3.496922 -3.538804 -9.252592
v 0.8115951 -2.66006 -4.032311
v 2.147499 -2.185462 -4.129833
v 0.8115951 -2.66006 -4.032311
v 1.175479 -2.059778 -0.2644884
v 1.175479 -2.059778 -0.2644884
v 0.8115951 -2.66006 -4.032311
v -0.08507821 -2.034409 -0.0934639
v 0.8115951 -2.66006 -4.032311
v 3.496922 -3.538804 -9.252592
v -0.1986852 -1.493062 -3.582274
v 0.8115951 -2.66006 -4.032311
v -0.1986852 -1.493062 -3.582274
v -1.007391 -1.262815 -0.2636691
v -1.007391 -1.262815 -0.2636691
v -0.1986852 -1.493062 -3.582274
v -1.583915 -0.1746312 -0.09345549
v -1.868072 0.5290027 0.7968236
v -1.177904 0.8328373 -0.2636691
v -1.151861 1.529695 0.7968236
v -1.151861 1.529695 0.7968236
v -1.177904 0.8328373 -0.2636691
v -0.3832881 1.544532 -0.0934639
v 0.04156857 1.8997 0.7968236
v -0.3832881 1.544532 -0.0934639
v 0.8336687 1.401759 -0.2636736
v 0.04156857 1.8997 0.7968236
v 0.8336687 1.401759 -0.2636736
v 1.283741 1.485163 0.7968236
v 1.283741 1.485163 0.7968236
v 0.8336687 1.401759 -0.2636736
v 1.856182 0.7820846 -0.09346324
v 2.126973 0.4270214 0.7968236
v 1.856182 0.7820846 -0.09346324
v 2.329947 -0.3865725 -0.2636683
v 2.126973 0.4270214 0.7968236
v 2.329947 -0.3865725 -0.2636683
v 2.231622 -0.8705873 0.7968236
v 2.231622 -0.8705873 0.7968236
v 2.329947 -0.3865725 -0.2636683
v 2.089971 -1.477047 -0.09346324
v 1.524986 -1.890906 0.7968236
v 2.089971 -1.477047 -0.09346324
v 1.175479 -2.059778 -0.2644884
v 1.524986 -1.890906 0.7968236
v 1.175479 -2.059778 -0.2644884
v 0.2785549 -2.231552 0.7968236
v 0.2785549 -2.231552 0.7968236
v 1.175479 -2.059778 -0.2644884
v -0.08507821 -2.034409 -0.0934639
v -1.008083 -1.780022 0.7968236
v -0.08507821 -2.034409 -0.0934639
v -1.007391 -1.262815 -0.2636691
v -1.008083 -1.780022 0.7968236
v -1.007391 -1.262815 -0.2636691
v -1.824554 -0.7278358 0.7968236
v -1.824554 -0.7278358 0.7968236
v -1.007391 -1.262815 -0.2636691
v -1.583915 -0.1746312 -0.09345549
v -1.151861 1.529695 0.7968236
v -0.3832881 1.544532 -0.0934639
v 0.04156857 1.8997 0.7968236
v 1.283741 1.485163 0.7968236
v 1.856182 0.7820846 -0.09346324
v 2.126973 0.4270214 0.7968236
v 2.231622 -0.8705873 0.7968236
v 2.089971 -1.477047 -0.09346324
v 1.524986 -1.890906 0.7968236
v 0.2785549 -2.231552 0.7968236
v -0.08507821 -2.034409 -0.0934639
v -1.008083 -1.780022 0.7968236
v -1.824554 -0.7278358 0.7968236
v -1.583915 -0.1746312 -0.09345549
v -1.868072 0.5290027 0.7968236

vn -0.6389456 -0.7688982 -0.02332226
vn -0.6389456 -0.7688982 -0.02332226
vn -0.6389456 -0.7688982 -0.02332226
vn 0.5099511 -0.8459865 0.1557453
vn 0.5099511 -0.8459865 0.1557453
vn 0.5099511 -0.8459865 0.1557453
vn 0.9021831 0.3243172 0.2844012
vn 0.9021831 0.3243172 0.2844012
vn 0.9021831 0.3243172 0.2844012
vn 0.0215723 0.8365495 -0.5474665
vn 0.0215723 0.8365495 -0.5474665
vn 0.0215723 0.8365495 -0.5474665
vn 0.0468208 0.8343779 -0.5492007
vn -0.8554993 0.2701313 -0.4417578
vn -0.8554993 0.2701313 -0.4417578
vn -0.8554993 0.2701313 -0.4417578
vn -0.8417581 0.2592228 -0.473547
vn -0.5598683 0.5929059 -0.5788006
vn -0.5598683 0.5929059 -0.5788006
vn -0.5598683 0.5929059 -0.5788006
vn -0.558725 0.592612 -0.5802047
vn -0.4768958 0.6688449 -0.5702779
vn -0.4768958 0.6688449 -0.5702779
vn -0.4768958 0.6688449 -0.5702779
vn 0.06356791 0.9053554 -0.4198699
vn 0.06356791 0.9053554 -0.4198699
vn 0.06356791 0.9053554 -0.4198699
vn 0.5303835 0.8351223 -0.1458219
vn 0.5303835 0.8351223 -0.1458219
vn 0.5303835 0.8351223 -0.1458219
vn 0.5636809 -0.7497733 0.3465599
vn 0.5636809 -0.7497733 0.3465599
vn 0.5636809 -0.7497733 0.3465599
vn 0.5766334 -0.7508147 0.3221353
vn 0.9770143 -0.2071588 0.05028278
vn 0.9770143 -0.2071588 0.05028278
vn 0.9770143 -0.2071588 0.05028278
vn 0.3376935 -0.8842611 0.3225605
vn 0.3376935 -0.8842611 0.3225605
vn 0.3376935 -0.8842611 0.3225605
vn 0.3400103 -0.933259 0.115848
vn 0.3400103 -0.933259 0.115848
vn 0.3400103 -0.933259 0.115848
vn 0.001452764 -0.9875662 0.1571969
vn 0.001452764 -0.9875662 0.1571969
vn 0.001452764 -0.9875662 0.1571969
vn -0.7750391 -0.553117 -0.3055748
vn -0.7750391 -0.553117 -0.3055748
vn -0.7750391 -0.553117 -0.3055748
vn -0.7751319 -0.6146401 -0.1462467
vn -0.7751319 -0.6146401 -0.1462467
vn -0.7751319 -0.6146401 -0.1462467
vn -0.8801594 -0.4375105 -0.18413
vn -0.8801594 -0.4375105 -0.18413
vn -0.8801594 -0.4375105 -0.18413
vn -0.76451 0.5471711 -0.3407759
vn -0.76451 0.5471711 -0.3407759
vn -0.76451 0.5471711 -0.3407759
vn -0.5388337 0.7100323 -0.4533347
vn -0.5388337 0.7100323 -0.4533347
vn -0.5388337 0.7100323 -0.4533347
vn 0.05297584 0.9185554 -0.3917262
vn 0.05297584 0.9185554 -0.3917262
vn 0.05297584 0.9185554 -0.3917262
vn 0.3098658 0.9285206 -0.2045307
vn 0.3098658 0.9285206 -0.2045307
vn 0.3098658 0.9285206 -0.2045307
vn 0.5309318 0.7969722 -0.2880047
vn 0.5309318 0.7969722 -0.2880047
vn 0.5309318 0.7969722 -0.2880047
vn 0.9133418 0.3881745 -0.1229925
vn 0.9133418 0.3881745 -0.1229925
vn 0.9133418 0.3881745 -0.1229925
vn 0.9885591 0.07972466 0.1280424
vn 0.9885591 0.07972466 0.1280424
vn 0.9885591 0.07972466 0.1280424
vn 0.9763321 -0.216124 -0.008118214
vn 0.9763321 -0.216124 -0.008118214
vn 0.9763321 -0.216124 -0.008118214
vn 0.542852 -0.8386039 -0.0453346
vn 0.542852 -0.8386039 -0.0453346
vn 0.542852 -0.8386039 -0.0453346
vn 0.2630452 -0.9624874 0.06652218
vn 0.2630452 -0.9624874 0.06652218
vn 0.2630452 -0.9624874 0.06652218
vn -0.04654234 -0.9791354 -0.1978071
vn -0.04654234 -0.9791354 -0.1978071
vn -0.04654234 -0.9791354 -0.1978071
vn -0.5570877 -0.7462718 -0.3643236
vn -0.5570877 -0.7462718 -0.3643236
vn -0.5570877 -0.7462718 -0.3643236
vn -0.7568257 -0.5872787 -0.2869121
vn -0.7568257 -0.5872787 -0.2869121
vn -0.7568257 -0.5872787 -0.2869121
vn -0.817591 -0.3632854 -0.4467311
vn -0.817591 -0.3632854 -0.4467311
vn -0.817591 -0.3632854 -0.4467311
vn -0.2879705 0.9288312 -0.2331215
vn -0.2879705 0.9288312 -0.2331215
vn -0.2879705 0.9288312 -0.2331215
vn 0.7820055 0.62318 0.01067948
vn 0.7820055 0.62318 0.01067948
vn 0.7820055 0.62318 0.01067948
vn 0.7962118 -0.5514271 0.2489474
vn 0.7962118 -0.5514271 0.2489474
vn 0.7962118 -0.5514271 0.2489474
vn -0.3302433 -0.9410303 -0.0734937
vn -0.3302433 -0.9410303 -0.0734937
vn -0.3302433 -0.9410303 -0.0734937
vn -0.9594329 -0.03322001 -0.2799733
vn -0.9594329 -0.03322001 -0.2799733
vn -0.9594329 -0.03322001 -0.2799733

vt 0 0
vt 0 0
vt 0 0
vt 0 0
vt 0 0
vt 0 0
vt 0 0
vt 0 0
vt 0 0
vt 0 0
vt 0 0
vt 0 0
vt 0 0
vt 0 0
vt 0 0
vt 0 0
vt 0 0
vt 0 0
vt 0 0
vt 0 0
vt 0 0
vt 0 0
vt 0 0
vt 0 0
vt 0 0
vt 0 0
vt 0 0
vt 0 0
vt 0 0
vt 0 0
vt 0 0
vt 0 0
vt 0 0
vt 0 0
vt 0 0
vt 0 0
vt 0 0
vt 0 0
vt 0 0
vt 0 0
vt 0 0
vt 0 0
vt 0 0
vt 0 0
vt 0 0
vt 0 0
vt 0 0
vt 0 0
vt 0 0
vt 0 0
vt 0 0
vt 0 0
vt 0 0
vt 0 0
vt 0 0
vt 0 0
vt 0 0
vt 0 0
vt 0 0
vt 0 0
vt 0 0
vt 0 0
vt 0 0
vt 0 0
vt 0 0
vt 0 0
vt 0 0
vt 0 0
vt 0 0
vt 0 0
vt 0 0
vt 0 0
vt 0 0
vt 0 0
vt 0 0
vt 0 0
vt 0 0
vt 0 0
vt 0 0
vt 0 0
vt 0 0
vt 0 0
vt 0 0
vt 0 0
vt 0 0
vt 0 0
vt 0 0
vt 0 0
vt 0 0
vt 0 0
vt 0 0
vt 0 0
vt 0 0
vt 0 0
vt 0 0
vt 0 0
vt 0 0
vt 0 0
vt 0 0
vt 0 0
vt 0 0
vt 0 0
vt 0 0
vt 0 0
vt 0 0
vt 0 0
vt 0 0
vt 0 0
vt 0 0
vt 0 0
vt 0 0
vt 0 0
f 1/1/1 3/3/3 2/2/2
f 4/4/4 6/6/6 5/5/5
f 7/7/7 9/9/9 8/8/8
f 10/10/10 12/12/12 11/11/11
f 11/11/11 12/12/12 13/13/13
f 14/14/14 16/16/16 15/15/15
f 17/17/17 16/16/16 14/14/14
f 18/18/18 20/20/20 19/19/19
f 18/18/18 21/21/21 20/20/20
f 22/22/22 24/24/24 23/23/23
f 25/25/25 27/27/27 26/26/26
f 28/28/28 30/30/30 29/29/29
f 31/31/31 33/33/33 32/32/32
f 31/31/31 34/34/34 33/33/33
f 35/35/35 37/37/37 36/36/36
f 38/38/38 40/40/40 39/39/39
f 41/41/41 43/43/43 42/42/42
f 44/44/44 46/46/46 45/45/45
f 47/47/47 49/49/49 48/48/48
f 50/50/50 52/52/52 51/51/51
f 53/53/53 55/55/55 54/54/54
f 56/56/56 58/58/58 57/57/57
f 59/59/59 61/61/61 60/60/60
f 62/62/62 64/64/64 63/63/63
f 65/65/65 67/67/67 66/66/66
f 68/68/68 70/70/70 69/69/69
f 71/71/71 73/73/73 72/72/72
f 74/74/74 76/76/76 75/75/75
f 77/77/77 79/79/79 78/78/78
f 80/80/80 82/82/82 81/81/81
f 83/83/83 85/85/85 84/84/84
f 86/86/86 88/88/88 87/87/87
f 89/89/89 91/91/91 90/90/90
f 92/92/92 94/94/94 93/93/93
f 95/95/95 97/97/97 96/96/96
f 98/98/98 100/100/100 99/99/99
f 101/101/101 103/103/103 102/102/102
f 104/104/104 106/106/106 105/105/105
f 107/107/107 109/109/109 108/108/108
f 110/110/110 112/112/112 111/111/111
