mtllib Icosphere.008.mtl
usemtl Icosphere.008

g Icosphere.008
v -0.5541623 -1.763375 -0.0934639
v -0.427298 -1.055487 -3.881657
v -1.374407 -1.062868 -0.2636691
v 1.436544 -1.116544 -0.09346324
v 0.7428012 -0.9063216 -3.881654
v 0.5188792 -1.678028 -0.2636736
v 1.436544 0.9765952 -0.09346324
v 0.7428012 0.3385568 -3.881654
v 1.68898 -0.06751622 -0.2636683
v -0.5541623 1.623426 -0.0934639
v -0.427298 0.9543754 -3.881657
v 0.5188792 1.542996 -0.2636736
v -1.7845 -0.06997432 -0.09345549
v -1.150472 0.07016787 -3.881599
v -1.374407 0.9278354 -0.2636691
v -1.150472 0.07016787 -3.881599
v 2.531379 -4.393116 -10.1513
v -0.427298 0.9543754 -3.881657
v -1.150472 0.07016787 -3.881599
v -0.427298 0.9543754 -3.881657
v -1.374407 0.9278354 -0.2636691
v -1.374407 0.9278354 -0.2636691
v -0.427298 0.9543754 -3.881657
v -0.5541623 1.623426 -0.0934639
v -0.427298 0.9543754 -3.881657
v 2.531379 -4.393116 -10.1513
v 0.7428012 0.3385568 -3.881654
v -0.427298 0.9543754 -3.881657
v 0.7428012 0.3385568 -3.881654
v 0.5188792 1.542996 -0.2636736
v 0.5188792 1.542996 -0.2636736
v 0.7428012 0.3385568 -3.881654
v 1.436544 0.9765952 -0.09346324
v 0.7428012 0.3385568 -3.881654
v 2.531379 -4.393116 -10.1513
v 0.7428012 -0.9063216 -3.881654
v 0.7428012 0.3385568 -3.881654
v 0.7428012 -0.9063216 -3.881654
v 1.68898 -0.06751622 -0.2636683
v 1.68898 -0.06751622 -0.2636683
v 0.7428012 -0.9063216 -3.881654
v 1.436544 -1.116544 -0.09346324
v 0.7428012 -0.9063216 -3.881654
v 2.531379 -4.393116 -10.1513
v -0.427298 -1.055487 -3.881657
v 0.7428012 -0.9063216 -3.881654
v -0.427298 -1.055487 -3.881657
v 0.5188792 -1.678028 -0.2636736
v 0.5188792 -1.678028 -0.2636736
v -0.427298 -1.055487 -3.881657
v -0.5541623 -1.763375 -0.0934639
v -0.427298 -1.055487 -3.881657
v 2.531379 -4.393116 -10.1513
v -1.150472 0.07016787 -3.881599
v -0.427298 -1.055487 -3.881657
v -1.150472 0.07016787 -3.881599
v -1.374407 -1.062868 -0.2636691
v -1.374407 -1.062868 -0.2636691
v -1.150472 0.07016787 -3.881599
v -1.7845 -0.06997432 -0.09345549
v -1.897238 0.5451819 0.7968236
v -1.7845 -0.06997432 -0.09345549
v -1.374407 0.9278354 -0.2636691
v -1.897238 0.5451819 0.7968236
v -1.374407 0.9278354 -0.2636691
v -1.174066 1.540548 0.7968236
v -1.174066 1.540548 0.7968236
v -1.374407 0.9278354 -0.2636691
v -0.5541623 1.623426 -0.0934639
v -0.003952347 1.920741 0.7968236
v -0.5541623 1.623426 -0.0934639
v 0.5188792 1.542996 -0.2636736
v -0.003952347 1.920741 0.7968236
v 0.5188792 1.542996 -0.2636736
v 1.166161 1.540548 0.7968236
v 1.166161 1.540548 0.7968236
v 0.5188792 1.542996 -0.2636736
v 1.436544 0.9765952 -0.09346324
v 1.889333 0.5451819 0.7968236
v 1.436544 0.9765952 -0.09346324
v 1.68898 -0.06751622 -0.2636683
v 1.889333 0.5451819 0.7968236
v 1.68898 -0.06751622 -0.2636683
v 1.889333 -0.6851305 0.7968236
v 1.889333 -0.6851305 0.7968236
v 1.68898 -0.06751622 -0.2636683
v 1.436544 -1.116544 -0.09346324
v 1.166161 -1.680496 0.7968236
v 1.436544 -1.116544 -0.09346324
v 0.5188792 -1.678028 -0.2636736
v 1.166161 -1.680496 0.7968236
v 0.5188792 -1.678028 -0.2636736
v -0.003952347 -2.06069 0.7968236
v -0.003952347 -2.06069 0.7968236
v 0.5188792 -1.678028 -0.2636736
v -0.5541623 -1.763375 -0.0934639
v -1.174066 -1.680496 0.7968236
v -0.5541623 -1.763375 -0.0934639
v -1.374407 -1.062868 -0.2636691
v -1.174066 -1.680496 0.7968236
v -1.374407 -1.062868 -0.2636691
v -1.897238 -0.6851305 0.7968236
v -1.897238 -0.6851305 0.7968236
v -1.374407 -1.062868 -0.2636691
v -1.7845 -0.06997432 -0.09345549
v -1.174066 1.540548 0.7968236
v -0.5541623 1.623426 -0.0934639
v -0.003952347 1.920741 0.7968236
v 1.166161 1.540548 0.7968236
v 1.436544 0.9765952 -0.09346324
v 1.889333 0.5451819 0.7968236
v 1.889333 -0.6851305 0.7968236
v 1.436544 -1.116544 -0.09346324
v 1.166161 -1.680496 0.7968236
v -0.003952347 -2.06069 0.7968236
v -0.5541623 -1.763375 -0.0934639
v -1.174066 -1.680496 0.7968236
v -1.897238 -0.6851305 0.7968236
v -1.7845 -0.06997432 -0.09345549
v -1.897238 0.5451819 0.7968236

vn -0.6207179 -0.7666782 -0.1640541
vn -0.6207179 -0.7666782 -0.1640541
vn -0.6207179 -0.7666782 -0.1640541
vn 0.5357899 -0.8319316 -0.1442881
vn 0.5357899 -0.8319316 -0.1442881
vn 0.5357899 -0.8319316 -0.1442881
vn 0.9403113 0.2626223 -0.216435
vn 0.9403113 0.2626223 -0.216435
vn 0.9403113 0.2626223 -0.216435
vn 0.04643387 0.9839622 -0.1722272
vn 0.04643387 0.9839622 -0.1722272
vn 0.04643387 0.9839622 -0.1722272
vn -0.9238785 0.3555741 -0.1414768
vn -0.9238785 0.3555741 -0.1414768
vn -0.9238785 0.3555741 -0.1414768
vn -0.5738842 0.4693232 -0.6711131
vn -0.5738842 0.4693232 -0.6711131
vn -0.5738842 0.4693232 -0.6711131
vn -0.7593384 0.6210337 -0.1942223
vn -0.7593384 0.6210337 -0.1942223
vn -0.7593384 0.6210337 -0.1942223
vn -0.6196963 0.7690637 -0.1565812
vn -0.6196963 0.7690637 -0.1565812
vn -0.6196963 0.7690637 -0.1565812
vn 0.4106592 0.78028 -0.4717225
vn 0.4106592 0.78028 -0.4717225
vn 0.4106592 0.78028 -0.4717225
vn 0.4501082 0.8552362 -0.2568535
vn 0.4501082 0.8552362 -0.2568535
vn 0.4501082 0.8552362 -0.2568535
vn 0.5417132 0.8070076 -0.2351285
vn 0.5417132 0.8070076 -0.2351285
vn 0.5417132 0.8070076 -0.2351285
vn 0.9616352 0 0.2743312
vn 0.9616352 0 0.2743312
vn 0.9616352 0 0.2743312
vn 0.9674632 0 -0.2530118
vn 0.9674632 0 -0.2530118
vn 0.9674632 0 -0.2530118
vn 0.9475647 -0.2585031 -0.1878758
vn 0.9475647 -0.2585031 -0.1878758
vn 0.9475647 -0.2585031 -0.1878758
vn 0.1090199 -0.8551964 0.5067089
vn 0.1090199 -0.8551964 0.5067089
vn 0.1090199 -0.8551964 0.5067089
vn 0.1239124 -0.9719996 -0.199656
vn 0.1239124 -0.9719996 -0.199656
vn 0.1239124 -0.9719996 -0.199656
vn 0.04926403 -0.9820879 -0.1818697
vn 0.04926403 -0.9820879 -0.1818697
vn 0.04926403 -0.9820879 -0.1818697
vn -0.8363577 -0.5373099 -0.1086461
vn -0.8363577 -0.5373099 -0.1086461
vn -0.8363577 -0.5373099 -0.1086461
vn -0.8214578 -0.527732 -0.216116
vn -0.8214578 -0.527732 -0.216116
vn -0.8214578 -0.527732 -0.216116
vn -0.9210429 -0.3517589 -0.1671699
vn -0.9210429 -0.3517589 -0.1671699
vn -0.9210429 -0.3517589 -0.1671699
vn -0.892196 0.3107816 -0.3277211
vn -0.892196 0.3107816 -0.3277211
vn -0.892196 0.3107816 -0.3277211
vn -0.7952675 0.5777926 -0.1835902
vn -0.7952675 0.5777926 -0.1835902
vn -0.7952675 0.5777926 -0.1835902
vn -0.5707296 0.7530929 -0.3272901
vn -0.5707296 0.7530929 -0.3272901
vn -0.5707296 0.7530929 -0.3272901
vn 0.01891403 0.9447668 -0.3271973
vn 0.01891403 0.9447668 -0.3271973
vn 0.01891403 0.9447668 -0.3271973
vn 0.3037839 0.9349501 -0.1832585
vn 0.3037839 0.9349501 -0.1832585
vn 0.3037839 0.9349501 -0.1832585
vn 0.5395083 0.775676 -0.3275018
vn 0.5395083 0.775676 -0.3275018
vn 0.5395083 0.775676 -0.3275018
vn 0.9045604 0.2721898 -0.3281514
vn 0.9045604 0.2721898 -0.3281514
vn 0.9045604 0.2721898 -0.3281514
vn 0.9826177 0 -0.1856408
vn 0.9826177 0 -0.1856408
vn 0.9826177 0 -0.1856408
vn 0.9046807 -0.2710432 -0.3287682
vn 0.9046807 -0.2710432 -0.3287682
vn 0.9046807 -0.2710432 -0.3287682
vn 0.5364989 -0.7770157 -0.3292649
vn 0.5364989 -0.7770157 -0.3292649
vn 0.5364989 -0.7770157 -0.3292649
vn 0.3035401 -0.9341995 -0.1874427
vn 0.3035401 -0.9341995 -0.1874427
vn 0.3035401 -0.9341995 -0.1874427
vn 0.0228365 -0.9439338 -0.3293439
vn 0.0228365 -0.9439338 -0.3293439
vn 0.0228365 -0.9439338 -0.3293439
vn -0.5728653 -0.7507234 -0.3289981
vn -0.5728653 -0.7507234 -0.3289981
vn -0.5728653 -0.7507234 -0.3289981
vn -0.7948738 -0.5775066 -0.1861765
vn -0.7948738 -0.5775066 -0.1861765
vn -0.7948738 -0.5775066 -0.1861765
vn -0.891536 -0.3119265 -0.3284286
vn -0.891536 -0.3119265 -0.3284286
vn -0.891536 -0.3119265 -0.3284286
vn -0.3065689 0.9435216 -0.1256289
vn -0.3065689 0.9435216 -0.1256289
vn -0.3065689 0.9435216 -0.1256289
vn 0.802609 0.5831265 -0.1256273
vn 0.802609 0.5831265 -0.1256273
vn 0.802609 0.5831265 -0.1256273
vn 0.802609 -0.5831265 -0.1256272
vn 0.802609 -0.5831265 -0.1256272
vn 0.802609 -0.5831265 -0.1256272
vn -0.306569 -0.9435215 -0.1256288
vn -0.306569 -0.9435215 -0.1256288
vn -0.306569 -0.9435215 -0.1256288
vn -0.9920774 0 -0.1256283
vn -0.9920774 0 -0.1256283
vn -0.9920774 0 -0.1256283

vt 0 0
vt 0 0
vt 0 0
vt 0 0
vt 0 0
vt 0 0
vt 0 0
vt 0 0
vt 0 0
vt 0 0
vt 0 0
vt 0 0
vt 0 0
vt 0 0
vt 0 0
vt 0 0
vt 0 0
vt 0 0
vt 0 0
vt 0 0
vt 0 0
vt 0 0
vt 0 0
vt 0 0
vt 0 0
vt 0 0
vt 0 0
vt 0 0
vt 0 0
vt 0 0
vt 0 0
vt 0 0
vt 0 0
vt 0 0
vt 0 0
vt 0 0
vt 0 0
vt 0 0
vt 0 0
vt 0 0
vt 0 0
vt 0 0
vt 0 0
vt 0 0
vt 0 0
vt 0 0
vt 0 0
vt 0 0
vt 0 0
vt 0 0
vt 0 0
vt 0 0
vt 0 0
vt 0 0
vt 0 0
vt 0 0
vt 0 0
vt 0 0
vt 0 0
vt 0 0
vt 0 0
vt 0 0
vt 0 0
vt 0 0
vt 0 0
vt 0 0
vt 0 0
vt 0 0
vt 0 0
vt 0 0
vt 0 0
vt 0 0
vt 0 0
vt 0 0
vt 0 0
vt 0 0
vt 0 0
vt 0 0
vt 0 0
vt 0 0
vt 0 0
vt 0 0
vt 0 0
vt 0 0
vt 0 0
vt 0 0
vt 0 0
vt 0 0
vt 0 0
vt 0 0
vt 0 0
vt 0 0
vt 0 0
vt 0 0
vt 0 0
vt 0 0
vt 0 0
vt 0 0
vt 0 0
vt 0 0
vt 0 0
vt 0 0
vt 0 0
vt 0 0
vt 0 0
vt 0 0
vt 0 0
vt 0 0
vt 0 0
vt 0 0
vt 0 0
vt 0 0
vt 0 0
vt 0 0
vt 0 0
vt 0 0
vt 0 0
vt 0 0
vt 0 0
vt 0 0
f 1/1/1 3/3/3 2/2/2
f 4/4/4 6/6/6 5/5/5
f 7/7/7 9/9/9 8/8/8
f 10/10/10 12/12/12 11/11/11
f 13/13/13 15/15/15 14/14/14
f 16/16/16 18/18/18 17/17/17
f 19/19/19 21/21/21 20/20/20
f 22/22/22 24/24/24 23/23/23
f 25/25/25 27/27/27 26/26/26
f 28/28/28 30/30/30 29/29/29
f 31/31/31 33/33/33 32/32/32
f 34/34/34 36/36/36 35/35/35
f 37/37/37 39/39/39 38/38/38
f 40/40/40 42/42/42 41/41/41
f 43/43/43 45/45/45 44/44/44
f 46/46/46 48/48/48 47/47/47
f 49/49/49 51/51/51 50/50/50
f 52/52/52 54/54/54 53/53/53
f 55/55/55 57/57/57 56/56/56
f 58/58/58 60/60/60 59/59/59
f 61/61/61 63/63/63 62/62/62
f 64/64/64 66/66/66 65/65/65
f 67/67/67 69/69/69 68/68/68
f 70/70/70 72/72/72 71/71/71
f 73/73/73 75/75/75 74/74/74
f 76/76/76 78/78/78 77/77/77
f 79/79/79 81/81/81 80/80/80
f 82/82/82 84/84/84 83/83/83
f 85/85/85 87/87/87 86/86/86
f 88/88/88 90/90/90 89/89/89
f 91/91/91 93/93/93 92/92/92
f 94/94/94 96/96/96 95/95/95
f 97/97/97 99/99/99 98/98/98
f 100/100/100 102/102/102 101/101/101
f 103/103/103 105/105/105 104/104/104
f 106/106/106 108/108/108 107/107/107
f 109/109/109 111/111/111 110/110/110
f 112/112/112 114/114/114 113/113/113
f 115/115/115 117/117/117 116/116/116
f 118/118/118 120/120/120 119/119/119
