mtllib Icosphere.005.mtl
usemtl Icosphere.005

g Icosphere.005
v -0.5541623 -1.763375 -0.0934639
v -0.427298 -0.5374844 -3.881657
v -1.374407 -1.062868 -0.2636691
v 1.436544 -1.116544 -0.09346324
v 0.7428012 -0.1572904 -3.881654
v 0.5188792 -1.678028 -0.2636736
v 1.166161 -1.680496 0.7968236
v 1.436544 0.9765952 -0.09346324
v 0.7428012 1.073017 -3.881654
v 1.68898 -0.06751622 -0.2636683
v -0.5541623 1.623426 -0.0934639
v -0.427298 1.453212 -3.881657
v 0.5188792 1.542996 -0.2636736
v -1.7845 -0.06997432 -0.09345549
v -1.150472 0.4578546 -3.881599
v -1.374407 0.9278354 -0.2636691
v -1.150472 0.4578546 -3.881599
v 0.704526 0.4143916 -7.685917
v -0.427298 1.453212 -3.881657
v -1.150472 0.4578546 -3.881599
v -0.427298 1.453212 -3.881657
v -1.374407 0.9278354 -0.2636691
v -1.374407 0.9278354 -0.2636691
v -0.427298 1.453212 -3.881657
v -0.5541623 1.623426 -0.0934639
v -0.427298 1.453212 -3.881657
v 0.704526 0.4143916 -7.685917
v 0.7428012 1.073017 -3.881654
v -0.427298 1.453212 -3.881657
v 0.7428012 1.073017 -3.881654
v 0.5188792 1.542996 -0.2636736
v 0.5188792 1.542996 -0.2636736
v 0.7428012 1.073017 -3.881654
v 1.436544 0.9765952 -0.09346324
v 0.7428012 1.073017 -3.881654
v 0.704526 0.4143916 -7.685917
v 0.7428012 -0.1572904 -3.881654
v 0.7428012 1.073017 -3.881654
v 0.7428012 -0.1572904 -3.881654
v 1.68898 -0.06751622 -0.2636683
v 1.68898 -0.06751622 -0.2636683
v 0.7428012 -0.1572904 -3.881654
v 1.436544 -1.116544 -0.09346324
v 0.7428012 -0.1572904 -3.881654
v 0.704526 0.4143916 -7.685917
v -0.427298 -0.5374844 -3.881657
v 0.7428012 -0.1572904 -3.881654
v -0.427298 -0.5374844 -3.881657
v 0.5188792 -1.678028 -0.2636736
v 0.5188792 -1.678028 -0.2636736
v -0.427298 -0.5374844 -3.881657
v -0.5541623 -1.763375 -0.0934639
v -0.003952347 -2.06069 0.7968236
v -0.427298 -0.5374844 -3.881657
v 0.704526 0.4143916 -7.685917
v -1.150472 0.4578546 -3.881599
v -0.427298 -0.5374844 -3.881657
v -1.150472 0.4578546 -3.881599
v -1.374407 -1.062868 -0.2636691
v -1.374407 -1.062868 -0.2636691
v -1.150472 0.4578546 -3.881599
v -1.7845 -0.06997432 -0.09345549
v -1.897238 0.5451819 0.7968236
v -1.7845 -0.06997432 -0.09345549
v -1.374407 0.9278354 -0.2636691
v -1.897238 0.5451819 0.7968236
v -1.374407 0.9278354 -0.2636691
v -1.174066 1.540548 0.7968236
v -1.174066 1.540548 0.7968236
v -1.374407 0.9278354 -0.2636691
v -0.5541623 1.623426 -0.0934639
v -0.003952347 1.920741 0.7968236
v -0.5541623 1.623426 -0.0934639
v 0.5188792 1.542996 -0.2636736
v -0.003952347 1.920741 0.7968236
v 0.5188792 1.542996 -0.2636736
v 1.166161 1.540548 0.7968236
v 1.166161 1.540548 0.7968236
v 0.5188792 1.542996 -0.2636736
v 1.436544 0.9765952 -0.09346324
v 1.889333 0.5451819 0.7968236
v 1.436544 0.9765952 -0.09346324
v 1.68898 -0.06751622 -0.2636683
v 1.889333 0.5451819 0.7968236
v 1.68898 -0.06751622 -0.2636683
v 1.889333 -0.6851305 0.7968236
v 1.889333 -0.6851305 0.7968236
v 1.68898 -0.06751622 -0.2636683
v 1.436544 -1.116544 -0.09346324
v 1.166161 -1.680496 0.7968236
v 0.5188792 -1.678028 -0.2636736
v -0.003952347 -2.06069 0.7968236
v -1.174066 -1.680496 0.7968236
v -0.5541623 -1.763375 -0.0934639
v -1.374407 -1.062868 -0.2636691
v -1.174066 -1.680496 0.7968236
v -1.374407 -1.062868 -0.2636691
v -1.897238 -0.6851305 0.7968236
v -1.897238 -0.6851305 0.7968236
v -1.374407 -1.062868 -0.2636691
v -1.7845 -0.06997432 -0.09345549
v -1.174066 1.540548 0.7968236
v -0.5541623 1.623426 -0.0934639
v -0.003952347 1.920741 0.7968236
v 1.166161 1.540548 0.7968236
v 1.436544 0.9765952 -0.09346324
v 1.889333 0.5451819 0.7968236
v 1.889333 -0.6851305 0.7968236
v 1.436544 -1.116544 -0.09346324
v 1.166161 -1.680496 0.7968236
v -0.003952347 -2.06069 0.7968236
v -0.5541623 -1.763375 -0.0934639
v -1.174066 -1.680496 0.7968236
v -1.897238 -0.6851305 0.7968236
v -1.7845 -0.06997432 -0.09345549
v -1.897238 0.5451819 0.7968236

vn -0.5936052 -0.7596287 -0.2657015
vn -0.5936052 -0.7596287 -0.2657015
vn -0.5936052 -0.7596287 -0.2657015
vn 0.5378069 -0.7885779 -0.2981755
vn 0.5378069 -0.7885779 -0.2981755
vn 0.5378069 -0.7885779 -0.2981755
vn 0.5364989 -0.7770157 -0.3292649
vn 0.9516326 0.2574187 -0.1677231
vn 0.9516326 0.2574187 -0.1677231
vn 0.9516326 0.2574187 -0.1677231
vn 0.06797066 0.9967812 -0.04251188
vn 0.06797066 0.9967812 -0.04251188
vn 0.06797066 0.9967812 -0.04251188
vn -0.9260086 0.3627674 -0.1044408
vn -0.9260086 0.3627674 -0.1044408
vn -0.9260086 0.3627674 -0.1044408
vn -0.7508513 0.5455071 -0.3723498
vn -0.7508513 0.5455071 -0.3723498
vn -0.7508513 0.5455071 -0.3723498
vn -0.8026294 0.5831406 -0.1254313
vn -0.8026294 0.5831406 -0.1254313
vn -0.8026294 0.5831406 -0.1254313
vn -0.6389956 0.7671786 -0.05587105
vn -0.6389956 0.7671786 -0.05587105
vn -0.6389956 0.7671786 -0.05587105
vn 0.3047635 0.9379472 -0.1654515
vn 0.3047635 0.9379472 -0.1654515
vn 0.3047635 0.9379472 -0.1654515
vn 0.3073513 0.9459122 -0.1038524
vn 0.3073513 0.9459122 -0.1038524
vn 0.3073513 0.9459122 -0.1038524
vn 0.5339125 0.8420862 -0.07634321
vn 0.5339125 0.8420862 -0.07634321
vn 0.5339125 0.8420862 -0.07634321
vn 0.9999494 0 -0.01006062
vn 0.9999494 0 -0.01006062
vn 0.9999494 0 -0.01006062
vn 0.9674631 0 -0.2530119
vn 0.9674631 0 -0.2530119
vn 0.9674631 0 -0.2530119
vn 0.9348366 -0.2635631 -0.2379394
vn 0.9348366 -0.2635631 -0.2379394
vn 0.9348366 -0.2635631 -0.2379394
vn 0.3057784 -0.9410742 -0.1444955
vn 0.3057784 -0.9410742 -0.1444955
vn 0.3057784 -0.9410742 -0.1444955
vn 0.2888086 -0.8888447 -0.3557312
vn 0.2888086 -0.8888447 -0.3557312
vn 0.2888086 -0.8888447 -0.3557312
vn 0.02697644 -0.9513407 -0.3069581
vn 0.02697644 -0.9513407 -0.3069581
vn 0.02697644 -0.9513407 -0.3069581
vn 0.0228365 -0.9439338 -0.3293439
vn -0.7542969 -0.5480214 -0.3615368
vn -0.7542969 -0.5480214 -0.3615368
vn -0.7542969 -0.5480214 -0.3615368
vn -0.7755074 -0.5634363 -0.2848295
vn -0.7755074 -0.5634363 -0.2848295
vn -0.7755074 -0.5634363 -0.2848295
vn -0.9170225 -0.3442222 -0.2014466
vn -0.9170225 -0.3442222 -0.2014466
vn -0.9170225 -0.3442222 -0.2014466
vn -0.892196 0.3107816 -0.3277211
vn -0.892196 0.3107816 -0.3277211
vn -0.892196 0.3107816 -0.3277211
vn -0.7952675 0.5777926 -0.1835902
vn -0.7952675 0.5777926 -0.1835902
vn -0.7952675 0.5777926 -0.1835902
vn -0.5707296 0.7530929 -0.3272901
vn -0.5707296 0.7530929 -0.3272901
vn -0.5707296 0.7530929 -0.3272901
vn 0.01891403 0.9447668 -0.3271973
vn 0.01891403 0.9447668 -0.3271973
vn 0.01891403 0.9447668 -0.3271973
vn 0.3037839 0.9349501 -0.1832585
vn 0.3037839 0.9349501 -0.1832585
vn 0.3037839 0.9349501 -0.1832585
vn 0.5395083 0.775676 -0.3275018
vn 0.5395083 0.775676 -0.3275018
vn 0.5395083 0.775676 -0.3275018
vn 0.9045604 0.2721898 -0.3281514
vn 0.9045604 0.2721898 -0.3281514
vn 0.9045604 0.2721898 -0.3281514
vn 0.9826177 0 -0.1856408
vn 0.9826177 0 -0.1856408
vn 0.9826177 0 -0.1856408
vn 0.9046807 -0.2710432 -0.3287682
vn 0.9046807 -0.2710432 -0.3287682
vn 0.9046807 -0.2710432 -0.3287682
vn 0.3035401 -0.9341995 -0.1874427
vn 0.3035401 -0.9341995 -0.1874427
vn 0.3035401 -0.9341995 -0.1874427
vn -0.5728653 -0.7507234 -0.3289981
vn -0.5728653 -0.7507234 -0.3289981
vn -0.5728653 -0.7507234 -0.3289981
vn -0.7948738 -0.5775066 -0.1861765
vn -0.7948738 -0.5775066 -0.1861765
vn -0.7948738 -0.5775066 -0.1861765
vn -0.891536 -0.3119265 -0.3284286
vn -0.891536 -0.3119265 -0.3284286
vn -0.891536 -0.3119265 -0.3284286
vn -0.3065689 0.9435216 -0.1256289
vn -0.3065689 0.9435216 -0.1256289
vn -0.3065689 0.9435216 -0.1256289
vn 0.802609 0.5831265 -0.1256273
vn 0.802609 0.5831265 -0.1256273
vn 0.802609 0.5831265 -0.1256273
vn 0.802609 -0.5831265 -0.1256272
vn 0.802609 -0.5831265 -0.1256272
vn 0.802609 -0.5831265 -0.1256272
vn -0.306569 -0.9435215 -0.1256288
vn -0.306569 -0.9435215 -0.1256288
vn -0.306569 -0.9435215 -0.1256288
vn -0.9920774 0 -0.1256283
vn -0.9920774 0 -0.1256283
vn -0.9920774 0 -0.1256283

vt 0 0
vt 0 0
vt 0 0
vt 0 0
vt 0 0
vt 0 0
vt 0 0
vt 0 0
vt 0 0
vt 0 0
vt 0 0
vt 0 0
vt 0 0
vt 0 0
vt 0 0
vt 0 0
vt 0 0
vt 0 0
vt 0 0
vt 0 0
vt 0 0
vt 0 0
vt 0 0
vt 0 0
vt 0 0
vt 0 0
vt 0 0
vt 0 0
vt 0 0
vt 0 0
vt 0 0
vt 0 0
vt 0 0
vt 0 0
vt 0 0
vt 0 0
vt 0 0
vt 0 0
vt 0 0
vt 0 0
vt 0 0
vt 0 0
vt 0 0
vt 0 0
vt 0 0
vt 0 0
vt 0 0
vt 0 0
vt 0 0
vt 0 0
vt 0 0
vt 0 0
vt 0 0
vt 0 0
vt 0 0
vt 0 0
vt 0 0
vt 0 0
vt 0 0
vt 0 0
vt 0 0
vt 0 0
vt 0 0
vt 0 0
vt 0 0
vt 0 0
vt 0 0
vt 0 0
vt 0 0
vt 0 0
vt 0 0
vt 0 0
vt 0 0
vt 0 0
vt 0 0
vt 0 0
vt 0 0
vt 0 0
vt 0 0
vt 0 0
vt 0 0
vt 0 0
vt 0 0
vt 0 0
vt 0 0
vt 0 0
vt 0 0
vt 0 0
vt 0 0
vt 0 0
vt 0 0
vt 0 0
vt 0 0
vt 0 0
vt 0 0
vt 0 0
vt 0 0
vt 0 0
vt 0 0
vt 0 0
vt 0 0
vt 0 0
vt 0 0
vt 0 0
vt 0 0
vt 0 0
vt 0 0
vt 0 0
vt 0 0
vt 0 0
vt 0 0
vt 0 0
vt 0 0
vt 0 0
vt 0 0
vt 0 0
f 1/1/1 3/3/3 2/2/2
f 4/4/4 6/6/6 5/5/5
f 7/7/7 6/6/6 4/4/4
f 8/8/8 10/10/10 9/9/9
f 11/11/11 13/13/13 12/12/12
f 14/14/14 16/16/16 15/15/15
f 17/17/17 19/19/19 18/18/18
f 20/20/20 22/22/22 21/21/21
f 23/23/23 25/25/25 24/24/24
f 26/26/26 28/28/28 27/27/27
f 29/29/29 31/31/31 30/30/30
f 32/32/32 34/34/34 33/33/33
f 35/35/35 37/37/37 36/36/36
f 38/38/38 40/40/40 39/39/39
f 41/41/41 43/43/43 42/42/42
f 44/44/44 46/46/46 45/45/45
f 47/47/47 49/49/49 48/48/48
f 50/50/50 52/52/52 51/51/51
f 53/53/53 52/52/52 50/50/50
f 54/54/54 56/56/56 55/55/55
f 57/57/57 59/59/59 58/58/58
f 60/60/60 62/62/62 61/61/61
f 63/63/63 65/65/65 64/64/64
f 66/66/66 68/68/68 67/67/67
f 69/69/69 71/71/71 70/70/70
f 72/72/72 74/74/74 73/73/73
f 75/75/75 77/77/77 76/76/76
f 78/78/78 80/80/80 79/79/79
f 81/81/81 83/83/83 82/82/82
f 84/84/84 86/86/86 85/85/85
f 87/87/87 89/89/89 88/88/88
f 90/90/90 92/92/92 91/91/91
f 93/93/93 95/95/95 94/94/94
f 96/96/96 98/98/98 97/97/97
f 99/99/99 101/101/101 100/100/100
f 102/102/102 104/104/104 103/103/103
f 105/105/105 107/107/107 106/106/106
f 108/108/108 110/110/110 109/109/109
f 111/111/111 113/113/113 112/112/112
f 114/114/114 116/116/116 115/115/115
