mtllib Cone_001.mtl
usemtl Cone_001

g Cone_001
v 0.721197 -0.813389 0.997266
v 1.157395 -0.241484 0.990379
v 0.649558 -0.67542 -0.803633
v -0.000485 1.020309 0.998414
v -0.47553 0.654572 0.999995
v -0.131227 0.578643 -0.912908
v -0.58742 -0.824294 1.001193
v 0.001495 -0.853278 1.003447
v -0.410979 -0.557211 -0.81498
v 1.084023 0.323288 0.99581
v 0.474551 0.713746 0.995363
v 0.779475 0.294524 -0.927649
v -0.951057 0.309017 1
v -0.769419 -0.250085 1.000007
v -0.845223 0.20027 -0.908732
v -0.769419 -0.250085 1.000007
v -0.951057 0.309017 1
v -0.47553 0.654572 0.999995
v -0.58742 -0.824294 1.001193
v 0.001495 -0.853278 1.003447
v -0.000485 1.020309 0.998414
v 0.474551 0.713746 0.995363
v 0.721197 -0.813389 0.997266
v 1.084023 0.323288 0.99581
v 1.157395 -0.241484 0.990379
v -0.769419 -0.250085 1.000007
v -0.58742 -0.824294 1.001193
v -0.410979 -0.557211 -0.81498
v -0.769419 -0.250085 1.000007
v -0.410979 -0.557211 -0.81498
v -0.723927 -0.174767 -0.878421
v -0.845223 0.20027 -0.908732
v -0.845223 0.20027 -0.908732
v -0.723927 -0.174767 -0.878421
v -0.534035 0.245583 -1.855552
v 0.474551 0.713746 0.995363
v -0.000485 1.020309 0.998414
v -0.131227 0.578643 -0.912908
v 0.474551 0.713746 0.995363
v -0.131227 0.578643 -0.912908
v 0.251168 0.442446 -0.922181
v 0.779475 0.294524 -0.927649
v 0.779475 0.294524 -0.927649
v 0.251168 0.442446 -0.922181
v 0.28601 0.335807 -1.910278
v 0.001495 -0.853278 1.003447
v 0.721197 -0.813389 0.997266
v 0.649558 -0.67542 -0.803633
v 0.001495 -0.853278 1.003447
v 0.649558 -0.67542 -0.803633
v 0.157096 -0.682213 -0.697093
v -0.410979 -0.557211 -0.81498
v -0.410979 -0.557211 -0.81498
v 0.157096 -0.682213 -0.697093
v -0.24827 -0.267556 -1.717057
v -0.47553 0.654572 0.999995
v -0.951057 0.309017 1
v -0.845223 0.20027 -0.908732
v -0.47553 0.654572 0.999995
v -0.845223 0.20027 -0.908732
v -0.549333 0.353463 -0.913168
v -0.131227 0.578643 -0.912908
v -0.534035 0.245583 -1.855552
v -0.131227 0.578643 -0.912908
v -0.549333 0.353463 -0.913168
v -0.053402 0.611516 -1.886796
v 1.157395 -0.241484 0.990379
v 1.084023 0.323288 0.99581
v 0.779475 0.294524 -0.927649
v 1.157395 -0.241484 0.990379
v 0.779475 0.294524 -0.927649
v 0.584221 -0.552098 -0.836115
v 0.649558 -0.67542 -0.803633
v 0.649558 -0.67542 -0.803633
v 0.584221 -0.552098 -0.836115
v 0.128529 -0.207845 -1.764874
v 0.584221 -0.552098 -0.836115
v 0.779475 0.294524 -0.927649
v 0.28601 0.335807 -1.910278
v 0.584221 -0.552098 -0.836115
v 0.28601 0.335807 -1.910278
v 0.128529 -0.207845 -1.764874
v 0.128529 -0.207845 -1.764874
v 0.28601 0.335807 -1.910278
v -0.202031 0.27769 -3.281766
v -0.549333 0.353463 -0.913168
v -0.534035 0.245583 -1.855552
v -0.053402 0.611516 -1.886796
v -0.202031 0.27769 -3.281766
v 0.157096 -0.682213 -0.697093
v 0.649558 -0.67542 -0.803633
v 0.128529 -0.207845 -1.764874
v 0.157096 -0.682213 -0.697093
v 0.128529 -0.207845 -1.764874
v -0.24827 -0.267556 -1.717057
v -0.24827 -0.267556 -1.717057
v 0.128529 -0.207845 -1.764874
v -0.202031 0.27769 -3.281766
v 0.251168 0.442446 -0.922181
v -0.131227 0.578643 -0.912908
v -0.053402 0.611516 -1.886796
v 0.251168 0.442446 -0.922181
v -0.053402 0.611516 -1.886796
v 0.28601 0.335807 -1.910278
v 0.28601 0.335807 -1.910278
v -0.053402 0.611516 -1.886796
v -0.202031 0.27769 -3.281766
v -0.723927 -0.174767 -0.878421
v -0.410979 -0.557211 -0.81498
v -0.24827 -0.267556 -1.717057
v -0.723927 -0.174767 -0.878421
v -0.24827 -0.267556 -1.717057
v -0.534035 0.245583 -1.855552
v -0.534035 0.245583 -1.855552
v -0.24827 -0.267556 -1.717057
v -0.202031 0.27769 -3.281766

vn 0.7922553 -0.6051993 -0.07788004
vn 0.7922553 -0.6051993 -0.07788004
vn 0.7922553 -0.6051993 -0.07788004
vn -0.6043367 0.7843487 -0.1399079
vn -0.6043367 0.7843487 -0.1399079
vn -0.6043367 0.7843487 -0.1399079
vn -0.04802901 -0.9875352 -0.149891
vn -0.04802901 -0.9875352 -0.149891
vn -0.04802901 -0.9875352 -0.149891
vn 0.5369189 0.8379757 -0.09754397
vn 0.5369189 0.8379757 -0.09754397
vn 0.5369189 0.8379757 -0.09754397
vn -0.9504827 -0.3087879 -0.03510899
vn -0.9504827 -0.3087879 -0.03510899
vn -0.9504827 -0.3087879 -0.03510899
vn 0.003683001 0.001475 0.9999921
vn 0.003683001 0.001475 0.9999921
vn 0.003683001 0.001475 0.9999921
vn 0.003683001 0.001475 0.9999921
vn 0.003683001 0.001475 0.9999921
vn 0.003683001 0.001475 0.9999921
vn 0.003683001 0.001475 0.9999921
vn 0.003683001 0.001475 0.9999921
vn 0.003683001 0.001475 0.9999921
vn 0.003683001 0.001475 0.9999921
vn -0.944351 -0.299598 -0.135802
vn -0.944351 -0.299598 -0.135802
vn -0.944351 -0.299598 -0.135802
vn -0.8646238 -0.5007428 -0.04101699
vn -0.8646238 -0.5007428 -0.04101699
vn -0.8646238 -0.5007428 -0.04101699
vn -0.8646238 -0.5007428 -0.04101699
vn -0.897013 -0.315164 -0.309902
vn -0.897013 -0.315164 -0.309902
vn -0.897013 -0.315164 -0.309902
vn 0.5272641 0.8192652 -0.225382
vn 0.5272641 0.8192652 -0.225382
vn 0.5272641 0.8192652 -0.225382
vn 0.2911621 0.9419514 -0.1671891
vn 0.2911621 0.9419514 -0.1671891
vn 0.2911621 0.9419514 -0.1671891
vn 0.2911621 0.9419514 -0.1671891
vn 0.267525 0.958949 -0.09405999
vn 0.267525 0.958949 -0.09405999
vn 0.267525 0.958949 -0.09405999
vn 0.054498 -0.995429 -0.078429
vn 0.054498 -0.995429 -0.078429
vn 0.054498 -0.995429 -0.078429
vn -0.108955 -0.988013 -0.109358
vn -0.108955 -0.988013 -0.109358
vn -0.108955 -0.988013 -0.109358
vn -0.108955 -0.988013 -0.109358
vn -0.138327 -0.9354331 -0.325316
vn -0.138327 -0.9354331 -0.325316
vn -0.138327 -0.9354331 -0.325316
vn -0.5860466 0.8064715 -0.07844195
vn -0.5860466 0.8064715 -0.07844195
vn -0.5860466 0.8064715 -0.07844195
vn -0.4654121 0.8769132 -0.120062
vn -0.4654121 0.8769132 -0.120062
vn -0.4654121 0.8769132 -0.120062
vn -0.4654121 0.8769132 -0.120062
vn -0.4583411 0.8821381 -0.108424
vn -0.4741552 0.8804033 -0.008173004
vn -0.4741552 0.8804033 -0.008173004
vn -0.4741552 0.8804033 -0.008173004
vn 0.9791806 0.128718 -0.1569619
vn 0.9791806 0.128718 -0.1569619
vn 0.9791806 0.128718 -0.1569619
vn 0.9490911 -0.161689 -0.270338
vn 0.9490911 -0.161689 -0.270338
vn 0.9490911 -0.161689 -0.270338
vn 0.9490911 -0.161689 -0.270338
vn 0.8759108 0.3888339 -0.2856369
vn 0.8759108 0.3888339 -0.2856369
vn 0.8759108 0.3888339 -0.2856369
vn 0.8618322 -0.246676 -0.4431661
vn 0.8618322 -0.246676 -0.4431661
vn 0.8618322 -0.246676 -0.4431661
vn 0.776395 -0.362745 -0.51539
vn 0.776395 -0.362745 -0.51539
vn 0.776395 -0.362745 -0.51539
vn 0.890794 -0.338977 -0.302623
vn 0.890794 -0.338977 -0.302623
vn 0.890794 -0.338977 -0.302623
vn -0.6068359 0.7884968 -0.100115
vn -0.6068359 0.7884968 -0.100115
vn -0.6068359 0.7884968 -0.100115
vn -0.6062022 0.7856743 -0.123429
vn -0.07464703 -0.9120653 -0.4031931
vn -0.07464703 -0.9120653 -0.4031931
vn -0.07464703 -0.9120653 -0.4031931
vn 0.09248997 -0.9090378 -0.4063199
vn 0.09248997 -0.9090378 -0.4063199
vn 0.09248997 -0.9090378 -0.4063199
vn 0.107772 -0.939795 -0.3243
vn 0.107772 -0.939795 -0.3243
vn 0.107772 -0.939795 -0.3243
vn 0.3362069 0.9399636 0.05859398
vn 0.3362069 0.9399636 0.05859398
vn 0.3362069 0.9399636 0.05859398
vn 0.6267262 0.7767903 -0.06173502
vn 0.6267262 0.7767903 -0.06173502
vn 0.6267262 0.7767903 -0.06173502
vn 0.6008141 0.7605871 -0.246028
vn 0.6008141 0.7605871 -0.246028
vn 0.6008141 0.7605871 -0.246028
vn -0.7032923 -0.6300972 -0.3291771
vn -0.7032923 -0.6300972 -0.3291771
vn -0.7032923 -0.6300972 -0.3291771
vn -0.7633269 -0.5262299 -0.3747189
vn -0.7633269 -0.5262299 -0.3747189
vn -0.7633269 -0.5262299 -0.3747189
vn -0.8305432 -0.5178551 -0.204998
vn -0.8305432 -0.5178551 -0.204998
vn -0.8305432 -0.5178551 -0.204998

vt 0 0
vt 0 0
vt 0 0
vt 0 0
vt 0 0
vt 0 0
vt 0 0
vt 0 0
vt 0 0
vt 0 0
vt 0 0
vt 0 0
vt 0 0
vt 0 0
vt 0 0
vt 0 0
vt 0 0
vt 0 0
vt 0 0
vt 0 0
vt 0 0
vt 0 0
vt 0 0
vt 0 0
vt 0 0
vt 0 0
vt 0 0
vt 0 0
vt 0 0
vt 0 0
vt 0 0
vt 0 0
vt 0 0
vt 0 0
vt 0 0
vt 0 0
vt 0 0
vt 0 0
vt 0 0
vt 0 0
vt 0 0
vt 0 0
vt 0 0
vt 0 0
vt 0 0
vt 0 0
vt 0 0
vt 0 0
vt 0 0
vt 0 0
vt 0 0
vt 0 0
vt 0 0
vt 0 0
vt 0 0
vt 0 0
vt 0 0
vt 0 0
vt 0 0
vt 0 0
vt 0 0
vt 0 0
vt 0 0
vt 0 0
vt 0 0
vt 0 0
vt 0 0
vt 0 0
vt 0 0
vt 0 0
vt 0 0
vt 0 0
vt 0 0
vt 0 0
vt 0 0
vt 0 0
vt 0 0
vt 0 0
vt 0 0
vt 0 0
vt 0 0
vt 0 0
vt 0 0
vt 0 0
vt 0 0
vt 0 0
vt 0 0
vt 0 0
vt 0 0
vt 0 0
vt 0 0
vt 0 0
vt 0 0
vt 0 0
vt 0 0
vt 0 0
vt 0 0
vt 0 0
vt 0 0
vt 0 0
vt 0 0
vt 0 0
vt 0 0
vt 0 0
vt 0 0
vt 0 0
vt 0 0
vt 0 0
vt 0 0
vt 0 0
vt 0 0
vt 0 0
vt 0 0
vt 0 0
vt 0 0
vt 0 0
f 1/1/1 3/3/3 2/2/2
f 4/4/4 6/6/6 5/5/5
f 7/7/7 9/9/9 8/8/8
f 10/10/10 12/12/12 11/11/11
f 13/13/13 15/15/15 14/14/14
f 16/16/16 18/18/18 17/17/17
f 18/18/18 16/16/16 19/19/19
f 18/18/18 19/19/19 20/20/20
f 18/18/18 20/20/20 21/21/21
f 21/21/21 20/20/20 22/22/22
f 22/22/22 20/20/20 23/23/23
f 22/22/22 23/23/23 24/24/24
f 24/24/24 23/23/23 25/25/25
f 26/26/26 28/28/28 27/27/27
f 29/29/29 31/31/31 30/30/30
f 29/29/29 32/32/32 31/31/31
f 33/33/33 35/35/35 34/34/34
f 36/36/36 38/38/38 37/37/37
f 39/39/39 41/41/41 40/40/40
f 39/39/39 42/42/42 41/41/41
f 43/43/43 45/45/45 44/44/44
f 46/46/46 48/48/48 47/47/47
f 49/49/49 51/51/51 50/50/50
f 49/49/49 52/52/52 51/51/51
f 53/53/53 55/55/55 54/54/54
f 56/56/56 58/58/58 57/57/57
f 59/59/59 61/61/61 60/60/60
f 59/59/59 62/62/62 61/61/61
f 61/61/61 63/63/63 60/60/60
f 64/64/64 66/66/66 65/65/65
f 67/67/67 69/69/69 68/68/68
f 70/70/70 72/72/72 71/71/71
f 70/70/70 73/73/73 72/72/72
f 74/74/74 76/76/76 75/75/75
f 77/77/77 79/79/79 78/78/78
f 80/80/80 82/82/82 81/81/81
f 83/83/83 85/85/85 84/84/84
f 86/86/86 88/88/88 87/87/87
f 88/88/88 89/89/89 87/87/87
f 90/90/90 92/92/92 91/91/91
f 93/93/93 95/95/95 94/94/94
f 96/96/96 98/98/98 97/97/97
f 99/99/99 101/101/101 100/100/100
f 102/102/102 104/104/104 103/103/103
f 105/105/105 107/107/107 106/106/106
f 108/108/108 110/110/110 109/109/109
f 111/111/111 113/113/113 112/112/112
f 114/114/114 116/116/116 115/115/115
