mtllib Cone.mtl
usemtl Cone

g Cone
v 0.666212 -0.226127 -0.731325
v 0.401876 0.085704 -1.308434
v 0.150246 -0.350637 -3.616867
v 0.23806 -0.286136 -2.462651
v 0 0.892316 1
v -0.475528 0.546824 1
v 0.054499 0.309772 -1.364724
v -0.587785 -0.809017 1
v 0 -1.021059 1
v -0.087572 -0.493193 -1.308434
v -0.440839 -0.606763 -0.154217
v 0.877405 0.309017 1
v 0.475528 0.585704 1
v 0.401876 0.085704 -1.308434
v 0.054499 0.309772 -1.364724
v 0 0.892316 1
v 0.150246 -0.350637 -3.616867
v -0.262731 -0.226127 -0.731325
v -0.440839 -0.606763 -0.154217
v -0.087572 -0.493193 -1.308434
v 0.094656 -0.286136 -2.462651
v -0.669301 -0.25 1
v -0.850937 0.309017 1
v -0.475528 0.546824 1
v -0.587785 -0.809017 1
v 0 -1.021059 1
v 0 0.892316 1
v 0.869466 -0.852976 1
v 0.475528 0.585704 1
v 0.877405 0.309017 1
v 0.977449 -0.25 1
v 0 -1.021059 1
v 0.869466 -0.852976 1
v 0.722519 -0.650722 -0.154217
v 0.293893 -0.420255 -1.308434
v -0.087572 -0.493193 -1.308434
v 0.094656 -0.286136 -2.462651
v 0.23806 -0.286136 -2.462651
v 0.150246 -0.350637 -3.616867
v -0.087572 -0.493193 -1.308434
v 0.293893 -0.420255 -1.308434
v 0.23806 -0.286136 -2.462651
v 0.094656 -0.286136 -2.462651
v -0.669301 -0.25 1
v -0.587785 -0.809017 1
v -0.440839 -0.606763 -0.154217
v -0.262731 -0.226127 -0.731325
v -0.850937 0.309017 1
v -0.669301 -0.25 1
v -0.262731 -0.226127 -0.731325
v -0.311421 0.14612 -1.308434
v -0.311421 0.14612 -1.308434
v -0.262731 -0.226127 -0.731325
v 0.094656 -0.286136 -2.462651
v 0.150246 -0.350637 -3.616867
v -0.475528 0.546824 1
v -0.850937 0.309017 1
v -0.311421 0.14612 -1.308434
v -0.475528 0.546824 1
v -0.311421 0.14612 -1.308434
v 0.054499 0.309772 -1.364724
v 0.054499 0.309772 -1.364724
v -0.311421 0.14612 -1.308434
v 0.150246 -0.350637 -3.616867
v 0.977449 -0.25 1
v 0.877405 0.309017 1
v 0.401876 0.085704 -1.308434
v 0.666212 -0.226127 -0.731325
v 0.869466 -0.852976 1
v 0.977449 -0.25 1
v 0.666212 -0.226127 -0.731325
v 0.722519 -0.650722 -0.154217
v 0.722519 -0.650722 -0.154217
v 0.666212 -0.226127 -0.731325
v 0.23806 -0.286136 -2.462651
v 0.293893 -0.420255 -1.308434

vn 0.9751943 0.128912 -0.1799381
vn 0.9751943 0.128912 -0.1799381
vn 0.9751943 0.128912 -0.1799381
vn 0.9751943 0.128912 -0.1799381
vn -0.5749072 0.7912913 -0.2081821
vn -0.5749072 0.7912913 -0.2081821
vn -0.5749072 0.7912913 -0.2081821
vn -0.3408881 -0.9186803 -0.1995541
vn -0.3408881 -0.9186803 -0.1995541
vn -0.3408881 -0.9186803 -0.1995541
vn -0.3408881 -0.9186803 -0.1995541
vn 0.5564409 0.8082068 -0.192809
vn 0.5564409 0.8082068 -0.192809
vn 0.5564409 0.8082068 -0.192809
vn 0.5319282 0.8249742 -0.1909711
vn 0.5319282 0.8249742 -0.1909711
vn 0.5537521 0.8050991 -0.212542
vn -0.9640895 -0.1146321 -0.2395641
vn -0.9640895 -0.1146321 -0.2395641
vn -0.9640895 -0.1146321 -0.2395641
vn -0.9640895 -0.1146321 -0.2395641
vn 0 0 1
vn 0 0 1
vn 0 0 1
vn 0 0 1
vn 0 0 1
vn 0 0 1
vn 0 0 1
vn 0 0 1
vn 0 0 1
vn 0 0 1
vn 0.147058 -0.9649093 -0.217541
vn 0.147058 -0.9649093 -0.217541
vn 0.147058 -0.9649093 -0.217541
vn 0.147058 -0.9649093 -0.217541
vn 0.182956 -0.956853 -0.225742
vn 0 -0.9984422 0.05579501
vn 0 -0.9984422 0.05579501
vn 0 -0.9984422 0.05579501
vn 0.136334 -0.9810697 -0.1375329
vn 0.136334 -0.9810697 -0.1375329
vn 0.136334 -0.9810697 -0.1375329
vn 0.136334 -0.9810697 -0.1375329
vn -0.9817514 -0.015488 -0.1895371
vn -0.9817514 -0.015488 -0.1895371
vn -0.9817514 -0.015488 -0.1895371
vn -0.9817514 -0.015488 -0.1895371
vn -0.9142107 -0.3512969 -0.2020129
vn -0.9142107 -0.3512969 -0.2020129
vn -0.9142107 -0.3512969 -0.2020129
vn -0.9142107 -0.3512969 -0.2020129
vn -0.8421071 -0.530399 -0.09763501
vn -0.8421071 -0.530399 -0.09763501
vn -0.8421071 -0.530399 -0.09763501
vn -0.8421071 -0.530399 -0.09763501
vn -0.526231 0.830722 -0.181609
vn -0.526231 0.830722 -0.181609
vn -0.526231 0.830722 -0.181609
vn -0.4247458 0.8864045 -0.1840599
vn -0.4247458 0.8864045 -0.1840599
vn -0.4247458 0.8864045 -0.1840599
vn -0.427421 0.862456 -0.271074
vn -0.427421 0.862456 -0.271074
vn -0.427421 0.862456 -0.271074
vn 0.9440624 0.2645161 -0.1969201
vn 0.9440624 0.2645161 -0.1969201
vn 0.9440624 0.2645161 -0.1969201
vn 0.9440624 0.2645161 -0.1969201
vn 0.9757803 -0.142355 -0.166096
vn 0.9757803 -0.142355 -0.166096
vn 0.9757803 -0.142355 -0.166096
vn 0.9757803 -0.142355 -0.166096
vn 0.7260181 -0.6393111 -0.253336
vn 0.7260181 -0.6393111 -0.253336
vn 0.7260181 -0.6393111 -0.253336
vn 0.7260181 -0.6393111 -0.253336

vt 0 0
vt 0 0
vt 0 0
vt 0 0
vt 0 0
vt 0 0
vt 0 0
vt 0 0
vt 0 0
vt 0 0
vt 0 0
vt 0 0
vt 0 0
vt 0 0
vt 0 0
vt 0 0
vt 0 0
vt 0 0
vt 0 0
vt 0 0
vt 0 0
vt 0 0
vt 0 0
vt 0 0
vt 0 0
vt 0 0
vt 0 0
vt 0 0
vt 0 0
vt 0 0
vt 0 0
vt 0 0
vt 0 0
vt 0 0
vt 0 0
vt 0 0
vt 0 0
vt 0 0
vt 0 0
vt 0 0
vt 0 0
vt 0 0
vt 0 0
vt 0 0
vt 0 0
vt 0 0
vt 0 0
vt 0 0
vt 0 0
vt 0 0
vt 0 0
vt 0 0
vt 0 0
vt 0 0
vt 0 0
vt 0 0
vt 0 0
vt 0 0
vt 0 0
vt 0 0
vt 0 0
vt 0 0
vt 0 0
vt 0 0
vt 0 0
vt 0 0
vt 0 0
vt 0 0
vt 0 0
vt 0 0
vt 0 0
vt 0 0
vt 0 0
vt 0 0
vt 0 0
vt 0 0
f 1/1/1 3/3/3 2/2/2
f 1/1/1 4/4/4 3/3/3
f 5/5/5 7/7/7 6/6/6
f 8/8/8 10/10/10 9/9/9
f 8/8/8 11/11/11 10/10/10
f 12/12/12 14/14/14 13/13/13
f 13/13/13 14/14/14 15/15/15
f 13/13/13 15/15/15 16/16/16
f 14/14/14 17/17/17 15/15/15
f 18/18/18 20/20/20 19/19/19
f 18/18/18 21/21/21 20/20/20
f 22/22/22 24/24/24 23/23/23
f 24/24/24 22/22/22 25/25/25
f 24/24/24 25/25/25 26/26/26
f 24/24/24 26/26/26 27/27/27
f 27/27/27 26/26/26 28/28/28
f 27/27/27 28/28/28 29/29/29
f 29/29/29 28/28/28 30/30/30
f 30/30/30 28/28/28 31/31/31
f 32/32/32 34/34/34 33/33/33
f 32/32/32 35/35/35 34/34/34
f 32/32/32 36/36/36 35/35/35
f 37/37/37 39/39/39 38/38/38
f 40/40/40 42/42/42 41/41/41
f 40/40/40 43/43/43 42/42/42
f 44/44/44 46/46/46 45/45/45
f 44/44/44 47/47/47 46/46/46
f 48/48/48 50/50/50 49/49/49
f 48/48/48 51/51/51 50/50/50
f 52/52/52 54/54/54 53/53/53
f 52/52/52 55/55/55 54/54/54
f 56/56/56 58/58/58 57/57/57
f 59/59/59 61/61/61 60/60/60
f 62/62/62 64/64/64 63/63/63
f 65/65/65 67/67/67 66/66/66
f 65/65/65 68/68/68 67/67/67
f 69/69/69 71/71/71 70/70/70
f 69/69/69 72/72/72 71/71/71
f 73/73/73 75/75/75 74/74/74
f 73/73/73 76/76/76 75/75/75
