<?xml version="1.0" standalone="no"?>
<!DOCTYPE svg PUBLIC "-//W3C//DTD SVG 20010904//EN"
 "http://www.w3.org/TR/2001/REC-SVG-20010904/DTD/svg10.dtd">
<svg version="1.0" xmlns="http://www.w3.org/2000/svg"
 width="1062.000000pt" height="1062.000000pt" viewBox="0 0 1062.000000 1062.000000"
 preserveAspectRatio="xMidYMid meet">
<metadata>
Created by potrace 1.11, written by Peter Selinger 2001-2013
</metadata>
<g transform="translate(0.000000,1062.000000) scale(0.100000,-0.100000)"
fill="#000000" stroke="none">
<path d="M3586 8854 c-14 -25 -26 -52 -26 -59 0 -8 -3 -15 -7 -17 -5 -1 -75
-138 -157 -303 -81 -165 -166 -335 -188 -378 -21 -42 -36 -82 -32 -89 4 -6 3
-8 -2 -5 -6 3 -27 -29 -48 -71 -96 -192 -109 -218 -117 -227 -5 -5 -9 -14 -9
-21 0 -6 -18 -44 -40 -84 -22 -40 -40 -79 -40 -86 0 -7 -3 -14 -7 -16 -8 -3
-303 -590 -303 -601 0 -3 -16 -33 -35 -67 -19 -34 -35 -68 -35 -75 0 -7 -3
-15 -7 -17 -10 -4 -93 -171 -93 -185 0 -6 -3 -13 -7 -15 -10 -4 -103 -191
-103 -206 0 -6 -3 -12 -8 -14 -4 -1 -24 -39 -45 -83 -21 -44 -42 -88 -48 -97
-5 -10 -13 -26 -18 -35 -5 -10 -18 -36 -29 -58 -11 -22 -39 -76 -61 -120 -22
-44 -41 -84 -41 -90 0 -5 -9 -21 -20 -35 -11 -14 -20 -30 -20 -36 0 -6 -18
-44 -40 -84 -22 -40 -40 -79 -40 -86 0 -7 -3 -14 -7 -16 -15 -6 -194 -378
-188 -388 4 -6 1 -9 -6 -8 -7 2 -15 -6 -17 -17 -2 -11 -7 -22 -11 -25 -9 -8
-151 -296 -151 -308 0 -6 -3 -12 -7 -14 -10 -4 -93 -171 -93 -185 0 -6 -3 -13
-7 -15 -5 -1 -50 -88 -101 -193 -52 -104 -98 -198 -103 -207 -5 -10 -13 -27
-19 -38 -5 -11 -14 -29 -20 -40 -5 -10 -33 -66 -61 -122 -28 -57 -59 -119 -69
-138 -58 -111 -90 -176 -90 -182 0 -3 -16 -34 -35 -68 -19 -34 -35 -68 -35
-75 0 -7 -3 -15 -7 -17 -10 -4 -93 -171 -93 -185 0 -6 -3 -13 -7 -15 -5 -1
-50 -88 -101 -193 -52 -104 -98 -198 -103 -208 -5 -9 -14 -26 -19 -37 -6 -11
-14 -29 -20 -40 -5 -10 -33 -66 -61 -122 -28 -57 -55 -111 -59 -120 -5 -9 -30
-59 -56 -110 -25 -51 -62 -124 -82 -163 -19 -38 -39 -78 -44 -88 -4 -9 -13
-27 -19 -39 -45 -86 -99 -198 -101 -209 -2 -8 -9 -20 -15 -27 -24 -26 -13 -32
60 -32 1051 -2 10341 1 10343 3 5 4 -150 313 -167 333 -8 9 -12 19 -11 21 5 5
-731 1477 -740 1481 -5 2 -8 10 -8 18 0 16 -17 49 -39 77 -8 9 -11 17 -8 17 7
0 -136 284 -155 307 -7 9 -12 18 -10 20 7 7 -130 273 -138 268 -5 -3 -6 4 -3
15 3 11 0 20 -6 20 -6 0 -10 3 -9 8 3 9 -94 206 -104 210 -4 2 -8 10 -8 17 0
17 -26 66 -32 60 -2 -3 -5 2 -5 10 0 17 -34 87 -46 96 -5 3 -8 9 -7 13 2 10
-93 200 -102 204 -4 2 -8 8 -8 14 0 15 -72 162 -82 166 -4 2 -8 10 -8 18 0 16
-61 136 -73 145 -5 3 -7 8 -6 10 5 6 -94 203 -103 207 -4 2 -8 9 -8 15 0 11
-173 363 -195 397 -5 8 -10 17 -10 20 -1 12 -260 525 -267 528 -4 2 -8 10 -8
17 0 17 -26 66 -32 60 -2 -3 -5 2 -5 10 0 17 -34 87 -46 96 -5 3 -8 9 -7 13 2
9 -252 520 -263 527 -5 3 -8 9 -7 13 3 10 -103 220 -112 224 -5 2 -8 9 -8 16
0 18 -24 66 -32 66 -5 0 -8 6 -8 13 0 15 -102 221 -112 225 -5 2 -8 10 -8 17
0 17 -26 66 -32 60 -2 -3 -5 2 -5 10 0 17 -34 87 -46 96 -5 3 -8 9 -7 13 2 8
-371 758 -375 754 -2 -2 -51 -100 -110 -218 -58 -118 -111 -224 -117 -235 -20
-36 -211 -418 -260 -520 -15 -33 -34 -69 -40 -80 -24 -41 -158 -315 -156 -317
2 -2 -8 -18 -20 -36 -13 -18 -25 -38 -26 -45 -1 -7 -21 -47 -44 -90 -23 -43
-40 -82 -37 -87 3 -5 1 -10 -5 -12 -8 -3 -188 -356 -191 -376 -1 -4 -10 -19
-21 -34 -11 -16 -16 -28 -11 -28 4 0 4 -4 -2 -8 -12 -8 -90 -162 -90 -177 0
-5 -3 -12 -7 -15 -17 -13 -238 -472 -232 -482 4 -6 3 -8 -2 -5 -9 5 -28 -27
-92 -158 -83 -170 -174 -352 -184 -370 -16 -28 -72 -139 -73 -145 -6 -40 -29
-4 -134 205 -64 129 -121 232 -126 228 -4 -5 -5 -3 -2 3 4 6 -330 685 -742
1508 l-749 1497 -26 -47z m4104 -3674 c0 -5 -2 -10 -4 -10 -3 0 -8 5 -11 10
-3 6 -1 10 4 10 6 0 11 -4 11 -10z m320 -320 c0 -5 -5 -10 -11 -10 -5 0 -7 5
-4 10 3 6 8 10 11 10 2 0 4 -4 4 -10z m-6400 -2240 c0 -5 -2 -10 -4 -10 -3 0
-8 5 -11 10 -3 6 -1 10 4 10 6 0 11 -4 11 -10z m640 6 c0 -3 -4 -8 -10 -11 -5
-3 -10 -1 -10 4 0 6 5 11 10 11 6 0 10 -2 10 -4z"/>
</g>
</svg>
